<svg width="33" height="32" viewBox="0 0 33 32" fill="none" xmlns="http://www.w3.org/2000/svg">
<path d="M21.1781 19.7222C22.5836 18.5452 23.4057 16.9551 23.7178 15.9432C26.1756 15.9432 26.3394 11.1621 24.3732 11.1621C24.3732 11.1621 24.4684 10.5079 24.5037 9.5V8.00366M21.1781 19.7222C20.1239 20.6051 18.7415 21.2556 17 21.2556C12.9365 21.2556 10.8283 17.714 10.2822 15.9432C7.82444 15.9432 7.66056 11.1621 9.62676 11.1621C9.62676 11.1621 9.53163 10.5079 9.49634 9.5V8.00366M21.1781 19.7222C21.1781 19.7222 21.7477 21.6746 22.7535 22.3371M11.2465 22.3371L2.56136 27.0576C1.90245 27.4916 1.5 28.2681 1.5 29.1054C1.5 30.4279 2.48648 31.5 3.70337 31.5H30.2966C31.5135 31.5 32.5 30.4279 32.5 29.1054C32.5 28.2681 32.0975 27.4916 31.4386 27.0576L22.7535 22.3371M11.2465 22.3371C12.2523 21.6746 12.8219 19.7222 12.8219 19.7222M11.2465 22.3371C15.5254 25.8044 18.0382 25.925 22.7535 22.3371" stroke="#000577" stroke-linecap="round" stroke-linejoin="round"/>
<path d="M14.5 12C14.5 12.2761 14.2761 12.5 14 12.5C13.7239 12.5 13.5 12.2761 13.5 12C13.5 11.7239 13.7239 11.5 14 11.5C14.2761 11.5 14.5 11.7239 14.5 12ZM20.5 12C20.5 12.2761 20.2761 12.5 20 12.5C19.7239 12.5 19.5 12.2761 19.5 12C19.5 11.7239 19.7239 11.5 20 11.5C20.2761 11.5 20.5 11.7239 20.5 12Z" fill="#071563" stroke="#000577"/>
<path d="M8.5 2.5H25.5V7C25.5 7.27614 25.2761 7.5 25 7.5H9C8.72386 7.5 8.5 7.27614 8.5 7V2.5Z" fill="#A8ABFF" stroke="#A8ABFF"/>
<path d="M3 12.5V3.92857C3 2.03502 4.34315 0.5 6 0.5M16.9998 0.5H5.74976C5.33554 0.5 4.99976 0.835786 4.99976 1.25C4.99976 1.66421 5.33554 2 5.74976 2H16.9998M16.9998 0.5H28.2498C28.664 0.5 28.9998 0.835786 28.9998 1.25C28.9998 1.66421 28.664 2 28.2498 2H16.9998M16.9998 0.5V2" stroke="#000577" stroke-linecap="round" stroke-linejoin="round"/>
<path d="M1.27573 19.526L3.00006 11L4.72409 19.526C4.82203 19.9265 4.37691 20.2385 4.03389 20.0098L3.94908 19.9532C3.73018 19.8073 3.43279 19.9223 3.36898 20.1775C3.27293 20.5617 2.72689 20.5617 2.63084 20.1775C2.56703 19.9223 2.26964 19.8073 2.05074 19.9532L1.96592 20.0098C1.6229 20.2385 1.17779 19.9265 1.27573 19.526Z" fill="#A8ABFF"/>
<path d="M3.00006 11L3.49014 10.9009C3.44298 10.6677 3.23801 10.5 3.00007 10.5C2.76213 10.5 2.55715 10.6677 2.50998 10.9009L3.00006 11ZM1.27573 19.526L1.76141 19.6448L1.76381 19.635L1.76581 19.6251L1.27573 19.526ZM4.72409 19.526L4.23401 19.6251L4.236 19.635L4.2384 19.6448L4.72409 19.526ZM1.96592 20.0098L1.68857 19.5938L1.68857 19.5938L1.96592 20.0098ZM2.05074 19.9532L1.77339 19.5372L1.77339 19.5372L2.05074 19.9532ZM3.94908 19.9532L4.22643 19.5372L4.22642 19.5372L3.94908 19.9532ZM4.03389 20.0098L3.75654 20.4258L3.75654 20.4258L4.03389 20.0098ZM2.63084 20.1775L3.11591 20.0562L3.11591 20.0562L2.63084 20.1775ZM2.50998 10.9009L0.785651 19.4269L1.76581 19.6251L3.49014 11.0991L2.50998 10.9009ZM2.50998 11.0991L4.23401 19.6251L5.21417 19.4269L3.49014 10.9009L2.50998 11.0991ZM2.24327 20.4258L2.32809 20.3693L1.77339 19.5372L1.68857 19.5938L2.24327 20.4258ZM3.67172 20.3693L3.75654 20.4258L4.31125 19.5938L4.22643 19.5372L3.67172 20.3693ZM3.85405 20.2988C3.834 20.379 3.74053 20.4151 3.67173 20.3693L4.22642 19.5372C3.71983 19.1995 3.03157 19.4656 2.88391 20.0562L3.85405 20.2988ZM2.32809 20.3693C2.25929 20.4151 2.16582 20.379 2.14577 20.2988L3.11591 20.0562C2.96824 19.4656 2.27998 19.1995 1.77339 19.5372L2.32809 20.3693ZM4.2384 19.6448C4.23843 19.6449 4.23817 19.6439 4.238 19.6418C4.23783 19.6398 4.23777 19.6371 4.23801 19.6339C4.2385 19.6273 4.24011 19.6206 4.24258 19.6145C4.24731 19.6029 4.25355 19.5971 4.25737 19.5944C4.26119 19.5917 4.26876 19.5878 4.28131 19.5873C4.28787 19.5871 4.29474 19.5879 4.30113 19.5897C4.30421 19.5905 4.30672 19.5915 4.30859 19.5924C4.31046 19.5932 4.31133 19.5938 4.31124 19.5938L3.75654 20.4258C4.47878 20.9073 5.41599 20.2504 5.20977 19.4072L4.2384 19.6448ZM0.790044 19.4072C0.583828 20.2504 1.52104 20.9073 2.24327 20.4258L1.68857 19.5938C1.68848 19.5938 1.68936 19.5932 1.69123 19.5924C1.6931 19.5915 1.69561 19.5905 1.69869 19.5897C1.70508 19.5879 1.71195 19.5871 1.71851 19.5873C1.73105 19.5878 1.73862 19.5917 1.74244 19.5944C1.74627 19.5971 1.75251 19.6029 1.75723 19.6145C1.75971 19.6206 1.76131 19.6273 1.76181 19.6339C1.76205 19.6371 1.76199 19.6398 1.76182 19.6418C1.76164 19.6439 1.76139 19.6449 1.76141 19.6448L0.790044 19.4072ZM2.14577 20.2988C2.36806 21.188 3.63175 21.188 3.85405 20.2988L2.88391 20.0562C2.88834 20.0385 2.90384 20.0101 2.93301 19.9889C2.95808 19.9707 2.98222 19.9657 2.99991 19.9657C3.01759 19.9657 3.04173 19.9707 3.0668 19.9889C3.09597 20.0101 3.11147 20.0385 3.11591 20.0562L2.14577 20.2988Z" fill="#A8ABFF"/>
</svg>
