<svg width="34" height="32" viewBox="0 0 34 32" fill="none" xmlns="http://www.w3.org/2000/svg">
<path d="M3.70337 31.5H4.28068M29.7193 31.5H4.28068M29.7193 31.5V25.1886V15H4.28068V25.1886V30M29.7193 31.5H33V30H32.3411M29.7193 31.5V30H32.3411M9.49634 8.00366V9.5C9.53163 10.5079 9.62676 11.1621 9.62676 11.1621C8.22077 11.1621 7.90398 13.6069 8.73624 15M24.5037 8.00366V9.5C24.4684 10.5079 24.3732 11.1621 24.3732 11.1621C25.7792 11.1621 26.096 13.6069 25.2638 15M4.28068 31.5H1V30H1.6589M4.28068 31.5V30M4.28068 26.1231L2.56136 27.0576C1.90245 27.4916 1.5 28.2681 1.5 29.1054C1.5 29.4217 1.55641 29.7236 1.6589 30M29.7193 26.1231L31.4386 27.0576C32.0975 27.4916 32.5 28.2681 32.5 29.1054C32.5 29.4217 32.4436 29.7236 32.3411 30M4.28068 30H1.6589" stroke="#000577" stroke-linecap="round" stroke-linejoin="round"/>
<path d="M13 23C13 20.7909 14.7909 19 17 19C19.2091 19 21 20.7909 21 23C21 25.2091 19.2091 27 17 27C14.7909 27 13 25.2091 13 23Z" fill="#A8ABFF"/>
<path d="M15.0002 10C20.4396 8.47518 21.0949 6.65355 22.5002 3.5L22.5126 3.56879C23.1298 6.99132 23.4797 8.93195 26.0002 10C26.0002 10 27.5002 0.5 17.5002 0.5C7.50023 0.5 8.00023 10 8.00023 10C11.3842 9.56507 12.8792 8.74926 15.0002 6.5V10Z" fill="#A8ABFF"/>
<path d="M15.0002 10H14.5002C14.5002 10.1565 14.5735 10.3039 14.6981 10.3984C14.8228 10.493 14.9845 10.5237 15.1352 10.4814L15.0002 10ZM22.5002 3.5L22.9923 3.41126C22.9533 3.1953 22.7781 3.02998 22.5603 3.00362C22.3424 2.97726 22.1328 3.09604 22.0435 3.29648L22.5002 3.5ZM22.5126 3.56879L23.0047 3.48006L23.0047 3.48005L22.5126 3.56879ZM26.0002 10L25.8051 10.4604C25.9468 10.5204 26.1083 10.5119 26.2429 10.4372C26.3774 10.3625 26.4701 10.23 26.4941 10.078L26.0002 10ZM8.00023 10L7.50092 10.0263C7.50823 10.1652 7.57311 10.2948 7.67996 10.384C7.78681 10.4731 7.92596 10.5137 8.06397 10.4959L8.00023 10ZM15.0002 6.5H15.5002C15.5002 6.2951 15.3752 6.11093 15.1848 6.0353C14.9943 5.95968 14.777 6.00789 14.6365 6.15697L15.0002 6.5ZM13.5 23C13.5 21.067 15.067 19.5 17 19.5V18.5C14.5147 18.5 12.5 20.5147 12.5 23H13.5ZM17 19.5C18.933 19.5 20.5 21.067 20.5 23H21.5C21.5 20.5147 19.4853 18.5 17 18.5V19.5ZM20.5 23C20.5 24.933 18.933 26.5 17 26.5V27.5C19.4853 27.5 21.5 25.4853 21.5 23H20.5ZM17 26.5C15.067 26.5 13.5 24.933 13.5 23H12.5C12.5 25.4853 14.5147 27.5 17 27.5V26.5ZM15.1352 10.4814C17.894 9.70807 19.5133 8.84009 20.6201 7.71074C21.7159 6.59259 22.2664 5.25305 22.9569 3.70352L22.0435 3.29648C21.3287 4.90049 20.8489 6.04854 19.9059 7.01081C18.9739 7.96186 17.5459 8.76711 14.8653 9.51856L15.1352 10.4814ZM22.0082 3.58874L22.0206 3.65753L23.0047 3.48005L22.9923 3.41126L22.0082 3.58874ZM22.0206 3.65752C22.3251 5.34643 22.5763 6.75902 23.0882 7.87567C23.6198 9.03554 24.4299 9.87764 25.8051 10.4604L26.1953 9.53963C25.05 9.05431 24.4249 8.39206 23.9972 7.45898C23.5497 6.48267 23.3173 5.21368 23.0047 3.48006L22.0206 3.65752ZM26.0002 10C26.4941 10.078 26.4942 10.0777 26.4942 10.0774C26.4942 10.0772 26.4943 10.0769 26.4943 10.0766C26.4944 10.0759 26.4945 10.0752 26.4947 10.0743C26.495 10.0724 26.4953 10.07 26.4958 10.0671C26.4967 10.0611 26.4979 10.0529 26.4993 10.0425C26.5023 10.0217 26.5063 9.99209 26.5109 9.95426C26.5202 9.8786 26.5321 9.76996 26.5434 9.63301C26.5661 9.35934 26.5864 8.97137 26.5783 8.50685C26.562 7.58121 26.4324 6.33388 25.9694 5.07715C25.5048 3.81621 24.7007 2.53663 23.3348 1.57547C21.9685 0.613966 20.0811 0 17.5002 0V1C19.9194 1 21.5945 1.57353 22.7594 2.39328C23.9247 3.21337 24.6206 4.30879 25.0311 5.42285C25.443 6.54112 25.5634 7.66879 25.5784 8.5244C25.5859 8.95051 25.5672 9.30472 25.5468 9.55058C25.5367 9.6734 25.5262 9.76886 25.5184 9.83236C25.5145 9.86411 25.5112 9.88784 25.5091 9.90298C25.508 9.91055 25.5073 9.91597 25.5068 9.91917C25.5065 9.92077 25.5064 9.92181 25.5063 9.92229C25.5063 9.92253 25.5062 9.92262 25.5063 9.92258C25.5063 9.92256 25.5063 9.92242 25.5063 9.92241C25.5063 9.92223 25.5063 9.92202 26.0002 10ZM17.5002 0C14.9182 0 12.9758 0.614339 11.5231 1.56614C10.0719 2.51695 9.14183 3.78307 8.54836 5.03596C7.95631 6.28584 7.69576 7.529 7.58208 8.45468C7.52508 8.91881 7.50458 9.30668 7.4984 9.58052C7.49531 9.71754 7.4958 9.82629 7.49713 9.90208C7.49779 9.93999 7.49867 9.96968 7.49941 9.99056C7.49979 10.001 7.50013 10.0093 7.50039 10.0152C7.50052 10.0182 7.50064 10.0206 7.50073 10.0225C7.50077 10.0234 7.50081 10.0242 7.50084 10.0248C7.50086 10.0251 7.50088 10.0255 7.50088 10.0257C7.5009 10.026 7.50092 10.0263 8.00023 10C8.49953 9.97372 8.49955 9.97394 8.49956 9.97412C8.49956 9.97414 8.49956 9.97429 8.49957 9.97431C8.49957 9.97437 8.49956 9.97428 8.49955 9.97405C8.49953 9.9736 8.49948 9.97258 8.49941 9.971C8.49927 9.96784 8.49905 9.96246 8.49878 9.95493C8.49824 9.93987 8.49753 9.91621 8.49698 9.88454C8.49586 9.82117 8.49538 9.72582 8.49815 9.60307C8.50369 9.35738 8.52225 9.00306 8.57462 8.57657C8.67969 7.721 8.91915 6.58916 9.45209 5.46404C9.98362 4.34193 10.8036 3.23305 12.0711 2.40261C13.3371 1.57316 15.0822 1 17.5002 1V0ZM8.06397 10.4959C9.7837 10.2749 11.0667 9.95207 12.2003 9.37614C13.3351 8.79964 14.2849 7.98736 15.364 6.84303L14.6365 6.15697C13.5945 7.2619 12.7364 7.98215 11.7474 8.4846C10.7572 8.98763 9.60071 9.29018 7.93649 9.50408L8.06397 10.4959ZM14.5002 6.5V10H15.5002V6.5H14.5002Z" fill="#A8ABFF"/>
<path d="M14.5 12C14.5 12.2761 14.2761 12.5 14 12.5C13.7239 12.5 13.5 12.2761 13.5 12C13.5 11.7239 13.7239 11.5 14 11.5C14.2761 11.5 14.5 11.7239 14.5 12ZM20.5 12C20.5 12.2761 20.2761 12.5 20 12.5C19.7239 12.5 19.5 12.2761 19.5 12C19.5 11.7239 19.7239 11.5 20 11.5C20.2761 11.5 20.5 11.7239 20.5 12Z" fill="#071563" stroke="#000577"/>
</svg>
