<svg width="32" height="32" viewBox="0 0 32 32" fill="none" xmlns="http://www.w3.org/2000/svg">
<path d="M8.99097 5.24609C8.99097 7.17909 7.42396 8.74609 5.49097 8.74609C3.55797 8.74609 1.99097 7.17909 1.99097 5.24609C1.99097 3.3131 3.55797 1.74609 5.49097 1.74609C7.42396 1.74609 8.99097 3.3131 8.99097 5.24609Z" fill="#A8ABFF"/>
<path d="M30.2988 26.5413C30.2988 28.4743 28.7318 30.0413 26.7988 30.0413C24.8658 30.0413 23.2988 28.4743 23.2988 26.5413C23.2988 24.6083 24.8658 23.0413 26.7988 23.0413C28.7318 23.0413 30.2988 24.6083 30.2988 26.5413Z" fill="#A8ABFF"/>
<path d="M9 5.125C9 3.12297 7.32107 1.5 5.25 1.5C3.17893 1.5 1.5 3.12297 1.5 5.125C1.5 7.12703 3.17893 8.75 5.25 8.75C6.82377 8.75 8.17111 7.81286 8.72741 6.48438C8.9032 6.06459 9 5.60572 9 5.125ZM9 5.125H12.75C13.2678 5.125 13.6875 4.71926 13.6875 4.21875C13.6875 3.71824 14.1072 3.3125 14.625 3.3125H19.3125C19.8303 3.3125 20.25 3.71824 20.25 4.21875C20.25 4.71926 20.6697 5.125 21.1875 5.125H23M19.3125 16C19.3125 13.998 17.6336 12.375 15.5625 12.375C14.1745 12.375 12.9626 13.104 12.3142 14.1875C11.9951 14.7207 11.8125 15.3397 11.8125 16M19.3125 16C19.3125 17.0827 18.8215 18.0545 18.043 18.7188C17.3819 19.2828 16.5135 19.625 15.5625 19.625C13.4914 19.625 11.8125 18.002 11.8125 16M19.3125 16H20.9531C21.6003 16 22.125 15.4928 22.125 14.8672C22.125 14.2416 22.6497 13.7344 23.2969 13.7344H24.75C25.8546 13.7344 26.75 12.8688 26.75 11.801V8.75M11.8125 16H7.25C6.14543 16 5.25 16.8656 5.25 17.9333V21.4375M9 25.0625C9 27.0645 7.32107 28.6875 5.25 28.6875C3.17893 28.6875 1.5 27.0645 1.5 25.0625C1.5 23.0605 3.17893 21.4375 5.25 21.4375M9 25.0625C9 23.0605 7.32107 21.4375 5.25 21.4375M9 25.0625H15.3281C15.9753 25.0625 16.5 25.5697 16.5 26.1953C16.5 26.8209 17.0247 27.3281 17.6719 27.3281H23M23 5.125C23 7.12703 24.6789 8.75 26.75 8.75M23 5.125C23 3.12297 24.6789 1.5 26.75 1.5C28.8211 1.5 30.5 3.12297 30.5 5.125C30.5 5.60572 30.4032 6.06459 30.2274 6.48438C29.6711 7.81286 28.3238 8.75 26.75 8.75M30.5 26.875C30.5 28.877 28.8211 30.5 26.75 30.5C24.6789 30.5 23 28.877 23 26.875C23 25.5332 23.7541 24.3617 24.875 23.735C25.4266 23.4265 26.067 23.25 26.75 23.25C28.8211 23.25 30.5 24.873 30.5 26.875Z" stroke="#000577"/>
</svg>
