<svg width="32" height="32" viewBox="0 0 32 32" fill="none" xmlns="http://www.w3.org/2000/svg">
<path d="M2 28.4845V28.4845C2 27.9329 2.44716 27.4858 2.99875 27.4858H14.0012C14.5528 27.4858 15 27.9329 15 28.4845V28.4845" stroke="#A8ABFF" stroke-linecap="round" stroke-linejoin="round"/>
<path d="M17.8042 16.2308L18.1573 16.5849L18.5123 16.2308L18.1573 15.8768L17.8042 16.2308ZM16.2352 17.7954L15.8822 18.1494L16.2352 18.5015L16.5883 18.1494L16.2352 17.7954ZM5.38214 14.7955L5.73519 14.4414L5.73519 14.4414L5.38214 14.7955ZM1.35506 10.7798L1.00201 11.1339L1.00201 11.1339L1.35506 10.7798ZM6.7625 14.1231L7.11555 14.4772L7.11555 14.4772L6.7625 14.1231ZM6.08824 14.7955L6.44129 15.1495L6.44129 15.1495L6.08824 14.7955ZM1.35506 10.0717L1.70811 10.4258L1.70811 10.4258L1.35506 10.0717ZM2.02666 9.40203L1.67361 9.04798L1.67361 9.04798L2.02666 9.40203ZM10.9524 1.49846L11.3055 1.14441L11.3055 1.1444L10.9524 1.49846ZM14.7099 5.2453L14.3569 5.59936L14.3569 5.59936L14.7099 5.2453ZM14.7222 6.21016L14.3603 5.8652L14.3603 5.8652L14.7222 6.21016ZM14.4695 6.47535L14.8314 6.82031L14.8314 6.82031L14.4695 6.47535ZM9.72757 1.76068L10.0895 2.10564L10.0895 2.10563L9.72757 1.76068ZM9.96551 1.51102L10.3275 1.85598L10.3275 1.85598L9.96551 1.51102ZM2.9756 9.40311L2.62376 9.04785L2.62376 9.04785L2.9756 9.40311ZM9.73275 2.71099L10.0846 3.06624L10.0846 3.06624L9.73275 2.71099ZM6.76357 13.1786L6.41173 12.8233L6.41173 12.8234L6.76357 13.1786ZM13.5267 6.48059L13.8785 6.83585L13.8785 6.83585L13.5267 6.48059ZM13.9947 6.48139L13.6417 6.83545L13.6417 6.83545L13.9947 6.48139ZM9.73357 2.23236L10.0866 1.8783L10.0866 1.8783L9.73357 2.23236ZM6.7625 13.8086L7.11555 13.4546L7.11554 13.4546L6.7625 13.8086ZM2.34333 9.40203L2.69638 9.04798L2.69638 9.04798L2.34333 9.40203ZM10.3797 9.53353L10.414 9.56771L11.1201 8.8596L11.0858 8.82542L10.3797 9.53353ZM10.414 9.56771L17.4512 16.5849L18.1573 15.8768L11.1201 8.8596L10.414 9.56771ZM17.4512 15.8768L15.8822 17.4413L16.5883 18.1494L18.1573 16.5849L17.4512 15.8768ZM16.5883 17.4413L9.54573 10.4188L8.83963 11.1269L15.8822 18.1494L16.5883 17.4413ZM9.54573 10.4188L9.5168 10.39L8.8107 11.0981L8.83963 11.1269L9.54573 10.4188ZM5.73519 14.4414L1.70811 10.4258L1.00201 11.1339L5.02909 15.1495L5.73519 14.4414ZM6.40945 13.7691L5.73519 14.4414L6.44129 15.1495L7.11555 14.4772L6.40945 13.7691ZM1.70811 10.4258L2.37971 9.75609L1.67361 9.04798L1.00201 9.71766L1.70811 10.4258ZM10.5994 1.85252L14.3569 5.59936L15.063 4.89124L11.3055 1.14441L10.5994 1.85252ZM14.3603 5.8652L14.1075 6.13039L14.8314 6.82031L15.0842 6.55512L14.3603 5.8652ZM10.0895 2.10563L10.3275 1.85598L9.60357 1.16606L9.36563 1.41572L10.0895 2.10563ZM3.32744 9.75837L10.0846 3.06624L9.38091 2.35573L2.62376 9.04785L3.32744 9.75837ZM7.11541 13.5339L9.54452 11.1281L8.84084 10.4176L6.41173 12.8233L7.11541 13.5339ZM9.54452 11.1281L11.1189 9.56892L10.4152 8.8584L8.84084 10.4176L9.54452 11.1281ZM11.1189 9.56892L13.8785 6.83585L13.1748 6.12534L10.4152 8.8584L11.1189 9.56892ZM14.3478 6.12734C14.0238 5.80432 13.4999 5.80342 13.1748 6.12534L13.8785 6.83585C13.8129 6.90085 13.7071 6.90067 13.6417 6.83545L14.3478 6.12734ZM10.0846 3.06624C10.4146 2.73937 10.4156 2.2063 10.0866 1.8783L9.38052 2.58641C9.31665 2.52272 9.31682 2.4192 9.38091 2.35573L10.0846 3.06624ZM7.11554 13.4546C7.1375 13.4765 7.13744 13.512 7.11541 13.5339L6.41173 12.8234C6.03962 13.1919 6.03859 13.7929 6.40945 14.1627L7.11554 13.4546ZM1.99028 9.75609C2.35958 10.1243 2.95689 10.1254 3.32744 9.75837L2.62376 9.04785C2.64389 9.02792 2.67633 9.02798 2.69638 9.04798L1.99028 9.75609ZM9.36563 1.41572C9.05164 1.74516 9.05826 2.26506 9.38052 2.58641L10.0866 1.8783C10.1492 1.9407 10.1505 2.04166 10.0895 2.10564L9.36563 1.41572ZM14.1075 6.13039C14.1726 6.06215 14.281 6.06077 14.3478 6.12734L13.6417 6.83545C13.9723 7.1651 14.5093 7.15827 14.8314 6.82031L14.1075 6.13039ZM14.3569 5.59936C14.4301 5.67233 14.4316 5.79039 14.3603 5.8652L15.0842 6.55512C15.5304 6.08689 15.521 5.34797 15.063 4.89124L14.3569 5.59936ZM11.3055 1.1444C10.8326 0.672848 10.0643 0.682621 9.60357 1.16606L10.3275 1.85598C10.4011 1.77874 10.5238 1.77717 10.5994 1.85252L11.3055 1.1444ZM1.70812 10.4258L1.70811 10.4258L1.00202 9.71766C0.610147 10.1084 0.610148 10.7431 1.00201 11.1339L1.70812 10.4258ZM5.02908 15.1495C5.41938 15.5387 6.05099 15.5387 6.44129 15.1495L5.73519 14.4414L5.73519 14.4414L5.02908 15.1495ZM7.11555 14.4772C7.39849 14.195 7.39849 13.7367 7.11555 13.4546L6.40944 14.1627C6.30053 14.0541 6.30053 13.8777 6.40944 13.7691L7.11555 14.4772ZM2.37971 9.75609C2.27208 9.86341 2.09791 9.86341 1.99028 9.75609L2.69638 9.04798C2.41372 8.76611 1.95627 8.76611 1.67361 9.04798L2.37971 9.75609ZM1.9973 28.9843H15.0027V27.9843H1.9973V28.9843ZM15.0027 30.9789H1.9973V31.9789H15.0027V30.9789ZM1.9973 30.9789C1.44651 30.9789 1 30.5324 1 29.9816H0C0 31.0846 0.894223 31.9789 1.9973 31.9789V30.9789ZM16 29.9816C16 30.5324 15.5535 30.9789 15.0027 30.9789V31.9789C16.1058 31.9789 17 31.0846 17 29.9816H16ZM15.0027 28.9843C15.5535 28.9843 16 29.4308 16 29.9816H17C17 28.8785 16.1058 27.9843 15.0027 27.9843V28.9843ZM1.9973 27.9843C0.894223 27.9843 0 28.8785 0 29.9816H1C1 29.4308 1.44651 28.9843 1.9973 28.9843V27.9843Z" fill="#000577"/>
<path d="M8.5325 11.6719L8.53248 11.6719L4.53755 7.6825C4.53754 7.6825 4.53753 7.68249 4.53752 7.68248C4.36959 7.51473 4.3696 7.24302 4.53755 7.07529L7.08143 4.53458C7.2497 4.36651 7.52277 4.36651 7.69104 4.53458L7.69106 4.5346L11.686 8.52398C11.686 8.52399 11.686 8.52399 11.686 8.524C11.8539 8.69175 11.8539 8.96346 11.686 9.1312L9.14211 11.6719C8.97384 11.84 8.70077 11.84 8.5325 11.6719ZM15.1316 17.6622C14.9638 17.4946 14.9638 17.2234 15.1316 17.0558L17.0277 15.1632C17.1959 14.9952 17.4691 14.9952 17.6374 15.1632L31.4105 28.9115C31.5784 29.079 31.5784 29.3503 31.4105 29.5178L29.5145 31.4105C29.3462 31.5785 29.073 31.5785 28.9047 31.4105L15.1316 17.6622Z" fill="#A8ABFF" stroke="#A8ABFF" stroke-width="0.927408"/>
</svg>
