<svg width="70" height="71" viewBox="0 0 70 71" fill="none" xmlns="http://www.w3.org/2000/svg">
<path d="M34.9999 45.1814C22.0438 45.1814 11.8999 40.7623 11.8999 35.138C11.8999 29.5136 22.0438 25.0945 34.9999 25.0945C47.956 25.0945 58.0999 29.5136 58.0999 35.138C58.0999 40.7623 47.956 45.1814 34.9999 45.1814ZM34.9999 27.1032C22.3451 27.1032 13.9086 31.221 13.9086 35.138C13.9086 39.0549 22.3451 43.1727 34.9999 43.1727C47.6547 43.1727 56.0912 39.0549 56.0912 35.138C56.0912 31.221 47.6547 27.1032 34.9999 27.1032Z" fill="#61DAFB"/>
<path d="M26.062 55.8277C25.0576 55.8277 24.2542 55.6268 23.4507 55.1246C18.5294 52.3125 19.835 41.3651 26.2628 30.1164C29.2759 24.8938 32.992 20.4746 36.6076 17.6625C40.5246 14.6494 44.0398 13.7455 46.4502 15.1516C48.9611 16.5577 49.865 20.0729 49.2624 24.9942C48.6598 29.6142 46.6511 35.0377 43.6381 40.2603C40.625 45.4829 36.9089 49.902 33.2933 52.7142C30.682 54.7229 28.1711 55.8277 26.062 55.8277ZM43.9394 16.4572C42.3324 16.4572 40.2233 17.3612 37.9133 19.169C34.4985 21.8807 30.9833 26.099 28.0707 31.1207C21.7433 42.0681 21.1407 51.509 24.455 53.4173C26.1624 54.4216 28.9746 53.5177 32.0881 51.1073C35.5028 48.3955 39.0181 44.1773 41.9307 39.1555C44.8433 34.1338 46.7515 29.0116 47.3542 24.6929C47.8563 20.6755 47.2537 17.8633 45.5463 16.859C45.0442 16.6581 44.542 16.4572 43.9394 16.4572Z" fill="#61DAFB"/>
<path d="M44.0387 55.8278C39.0169 55.8278 31.7856 49.7013 26.3622 40.16C19.8339 28.9113 18.5282 17.9639 23.4496 15.1517C28.3709 12.3395 37.2091 18.8678 43.7374 30.1165C46.7504 35.3391 48.7591 40.7626 49.3617 45.3826C50.0648 50.3039 49.0604 53.7187 46.5496 55.2252C45.7461 55.6269 44.9426 55.8278 44.0387 55.8278ZM24.4539 16.8591C21.1396 18.7674 21.7422 28.2082 28.0696 39.1556C34.3969 50.103 42.2309 55.3256 45.5452 53.4174C47.2526 52.413 47.8552 49.6009 47.353 45.5835C46.7504 41.2648 44.8422 36.1426 41.9296 31.1209C35.6022 20.1735 27.7682 14.9509 24.4539 16.8591Z" fill="#61DAFB"/>
<path d="M34.9983 39.1542C37.2171 39.1542 39.0157 37.3555 39.0157 35.1368C39.0157 32.918 37.2171 31.1194 34.9983 31.1194C32.7796 31.1194 30.981 32.918 30.981 35.1368C30.981 37.3555 32.7796 39.1542 34.9983 39.1542Z" fill="#61DAFB"/>
</svg>
