<svg width="70" height="71" viewBox="0 0 70 71" fill="none" xmlns="http://www.w3.org/2000/svg">
<path fill-rule="evenodd" clip-rule="evenodd" d="M20.9698 16C18.2309 16 16.2043 18.3972 16.2951 20.9969C16.3822 23.4945 16.269 26.7292 15.4547 29.3672C14.6375 32.0125 13.2564 33.6888 11 33.904V36.3332C13.2564 36.5489 14.6375 38.2244 15.4546 40.8701C16.269 43.508 16.3821 46.7428 16.295 49.2404C16.2042 51.8397 18.2308 54.2372 20.9701 54.2372H49.0339C51.7727 54.2372 53.7989 51.8401 53.7082 49.2404C53.6211 46.7428 53.7342 43.508 54.5486 40.8701C55.3658 38.2244 56.7435 36.5482 59 36.3332V33.904C56.7436 33.6884 55.3659 32.0129 54.5486 29.3672C53.7342 26.7296 53.6211 23.4945 53.7082 20.9969C53.7989 18.3976 51.7727 16 49.0339 16H20.9694H20.9698ZM43.5424 39.5375C43.5424 43.1172 40.8723 45.2882 36.4412 45.2882H28.8983C28.6825 45.2882 28.4756 45.2024 28.323 45.0499C28.1704 44.8973 28.0847 44.6904 28.0847 44.4746V25.7627C28.0847 25.547 28.1704 25.34 28.323 25.1875C28.4756 25.0349 28.6825 24.9492 28.8983 24.9492H36.3983C40.0931 24.9492 42.5179 26.9506 42.5179 30.0233C42.5179 32.18 40.8867 34.1108 38.8085 34.4491V34.5616C41.6375 34.8719 43.5424 36.8312 43.5424 39.5375ZM35.6188 27.5282H31.3179V33.6032H34.9403C37.7406 33.6032 39.2847 32.4755 39.2847 30.46C39.2844 28.5711 37.9569 27.5282 35.6188 27.5282ZM31.3179 36.0136V42.7083H35.777C38.6926 42.7083 40.237 41.5384 40.237 39.3398C40.237 37.1412 38.6493 36.0132 35.5895 36.0132H31.3179V36.0136Z" fill="url(#paint0_linear_5854_234490)"/>
<defs>
<linearGradient id="paint0_linear_5854_234490" x1="21.9714" y1="16.0767" x2="45.2857" y2="54.4767" gradientUnits="userSpaceOnUse">
<stop stop-color="#8E13FD"/>
<stop offset="1" stop-color="#6C10F4"/>
</linearGradient>
</defs>
</svg>
