<svg width="42" height="43" viewBox="0 0 42 43" fill="none" xmlns="http://www.w3.org/2000/svg">
<rect width="42" height="42.0624" rx="12" fill="#093F70"/>
<path fill-rule="evenodd" clip-rule="evenodd" d="M21.0078 27.7213C22.5893 29.1785 24.7131 30.0624 27.0232 30.0624C31.9845 30.0624 36.0001 26.0159 36.0001 21.0389C36.0001 16.0467 31.9845 12 27.0232 12C24.7131 12 22.5893 12.8837 21.0078 14.3412C19.1938 16 18.0464 18.3877 18.0464 21.0389C18.0466 23.6901 19.1938 26.0779 21.0078 27.7213Z" fill="#E9B040"/>
<path fill-rule="evenodd" clip-rule="evenodd" d="M34.8069 26.0632C34.8069 25.9081 34.931 25.7842 35.0859 25.7842C35.2563 25.7842 35.3802 25.9083 35.3802 26.0632C35.3802 26.234 35.2561 26.3579 35.0859 26.3579C34.931 26.3579 34.8069 26.234 34.8069 26.0632ZM35.0859 26.296C35.21 26.296 35.3182 26.1873 35.3182 26.0634C35.3182 25.9395 35.2098 25.8464 35.0859 25.8464C34.9771 25.8464 34.8689 25.9395 34.8689 26.0634C34.8689 26.1873 34.9773 26.296 35.0859 26.296ZM35.0549 26.203H34.9928V25.9393H35.1012C35.1169 25.9393 35.1479 25.9393 35.1633 25.955C35.1943 25.9703 35.1943 25.986 35.1943 26.017C35.1943 26.048 35.179 26.0791 35.1479 26.0791L35.21 26.2031H35.1322L35.1012 26.0944H35.0549V26.203V26.0479H35.1169C35.1322 26.0479 35.1322 26.0322 35.1322 26.0168C35.1322 26.0011 35.1322 26.0011 35.1169 25.9858H35.0549V26.203Z" fill="#E9B040"/>
<path fill-rule="evenodd" clip-rule="evenodd" d="M23.9072 20.0778C23.8761 19.7523 23.8141 19.4422 23.7521 19.1165H18.2636C18.3256 18.791 18.4187 18.481 18.5116 18.1707H23.4886C23.3805 17.8444 23.2563 17.5235 23.1165 17.2095H18.8993C19.0544 16.8811 19.2252 16.5603 19.411 16.2482H22.5895C22.385 15.9171 22.157 15.601 21.9074 15.3024H20.0933C20.3739 14.9597 20.6796 14.6384 21.008 14.3412C19.4112 12.8992 17.3025 12 14.9768 12C10.031 12 6 16.0467 6 21.0389C6 26.0159 10.031 30.0624 14.9768 30.0624C17.3025 30.0624 19.411 29.1785 21.008 27.7213C21.3313 27.4292 21.632 27.113 21.9074 26.7753H20.0933C19.8451 26.4653 19.6281 26.1553 19.411 25.8141H22.5895C22.7894 25.5075 22.9656 25.1861 23.1167 24.8528H18.8993C18.7597 24.5428 18.6203 24.2327 18.5116 23.9068H23.4886C23.597 23.5968 23.6747 23.2715 23.7519 22.9456C23.8139 22.6355 23.876 22.3102 23.907 21.9843C23.9384 21.67 23.954 21.3542 23.9537 21.0383C23.9537 20.7133 23.9382 20.3878 23.9072 20.0778Z" fill="#CC2131"/>
<path fill-rule="evenodd" clip-rule="evenodd" d="M34.8069 23.1312C34.8069 22.9608 34.931 22.8369 35.0859 22.8369C35.2563 22.8369 35.3802 22.961 35.3802 23.1312C35.3802 23.2863 35.2561 23.4259 35.0859 23.4259C34.931 23.4259 34.8069 23.2862 34.8069 23.1312ZM35.0859 23.3482C35.21 23.3482 35.3182 23.2551 35.3182 23.1312C35.3182 23.0073 35.2098 22.9143 35.0859 22.9143C34.9771 22.9143 34.8689 23.0073 34.8689 23.1312C34.8689 23.2551 34.9773 23.3482 35.0859 23.3482ZM35.0549 23.2551H34.9928V23.0072H35.1633C35.1943 23.0229 35.1943 23.0539 35.1943 23.0849C35.1943 23.1002 35.179 23.1312 35.1479 23.1469L35.21 23.2553H35.1322L35.1012 23.1623H35.0549V23.2551V23.1157H35.0859C35.1012 23.1157 35.1169 23.1157 35.1169 23.1C35.1322 23.1 35.1322 23.0847 35.1322 23.069C35.1322 23.069 35.1322 23.0537 35.1169 23.0537C35.1169 23.038 35.1012 23.0537 35.0859 23.0537H35.0549V23.2551Z" fill="white"/>
<path fill-rule="evenodd" clip-rule="evenodd" d="M17.9535 23.6467C17.659 23.7241 17.4419 23.7708 17.2249 23.7708C16.7598 23.7708 16.4806 23.4761 16.4806 22.9489C16.4806 22.8405 16.4961 22.7319 16.5116 22.6079L16.5736 22.2515L16.6202 21.9568L17.0388 19.4142H17.969L17.8605 19.9724H18.4497L18.3101 20.9026H17.7209L17.4729 22.4219C17.4574 22.4997 17.4574 22.546 17.4574 22.577C17.4574 22.7787 17.5504 22.856 17.7829 22.856C17.8915 22.856 17.9844 22.8407 18.0774 22.825L17.9535 23.6467ZM20.9614 23.6157C20.6204 23.7087 20.3104 23.7551 19.9691 23.7551C18.9148 23.7551 18.3101 23.1969 18.3101 22.0964C18.3101 20.8094 19.0234 19.8791 20.0155 19.8791C20.8061 19.8791 21.3178 20.4063 21.3178 21.2278C21.3178 21.5072 21.2868 21.7707 21.2094 22.1427H19.2714C19.2558 22.2048 19.2558 22.2358 19.2558 22.2668C19.2558 22.7009 19.5504 22.9179 20.1085 22.9179C20.4651 22.9179 20.7751 22.8405 21.1164 22.6856L20.9614 23.6157ZM20.3877 21.3986V21.2125C20.3877 20.9025 20.2171 20.7318 19.9226 20.7318C19.6124 20.7318 19.3954 20.9643 19.3024 21.3984L20.3877 21.3986ZM10.5115 23.693H9.5502L10.1084 20.1738L8.8526 23.693H8.18602L8.10846 20.1893L7.51925 23.693H6.57349L7.33313 19.1195H8.74402L8.77504 21.9415L9.72081 19.1195H11.2713L10.5115 23.693ZM12.8528 22.0343C12.7597 22.0187 12.7287 22.0187 12.6667 22.0187C12.1085 22.0187 11.8295 22.2356 11.8295 22.5768C11.8295 22.8095 11.9691 22.9646 12.186 22.9646C12.6512 22.9646 12.8371 22.5768 12.8528 22.0343ZM13.628 23.693H12.7908L12.8063 23.3056C12.5891 23.6 12.2946 23.7551 11.783 23.7551C11.3178 23.7551 10.9147 23.3367 10.9147 22.7319C10.9147 22.5615 10.9458 22.4066 10.9923 22.2515C11.1472 21.6776 11.7209 21.3212 12.6046 21.3055C12.7132 21.3055 12.8836 21.3055 13.0387 21.3212C13.0696 21.1972 13.0696 21.1504 13.0696 21.0731C13.0696 20.8249 12.8681 20.7474 12.4185 20.7474C12.1395 20.7474 11.8293 20.7939 11.6123 20.8714L11.4727 20.9025L11.4107 20.9178L11.5503 20.0806C11.9999 19.941 12.3255 19.8791 12.6822 19.8791C13.5194 19.8791 13.969 20.2667 13.969 20.9798C13.969 21.166 13.9845 21.3055 13.9225 21.7086L13.7055 23.042L13.6745 23.2746L13.659 23.4608L13.6435 23.5848L13.628 23.693ZM25.6437 20.0032C25.9227 20.0032 26.1709 20.0808 26.5119 20.2512L26.6824 19.2589C26.5893 19.2124 26.5583 19.2124 26.4344 19.1658L26.047 19.0573C25.9229 19.0263 25.768 19.0107 25.5972 19.0107C25.1164 19.0107 24.8374 19.0263 24.543 19.1969C24.3879 19.3054 24.1863 19.445 23.9692 19.693L23.8451 19.662L22.8528 20.3596L22.8995 19.972H21.876L21.2716 23.6929H22.2486L22.605 21.6931C22.605 21.6931 22.7448 21.4138 22.8066 21.3211C22.9927 21.0884 23.1477 21.0884 23.3491 21.0884H23.4268C23.3943 21.3247 23.3787 21.563 23.3801 21.8015C23.3801 23.0108 24.0622 23.7706 25.1166 23.7706C25.3802 23.7706 25.6131 23.7396 25.9695 23.6465L26.1402 22.5924C25.8302 22.7628 25.551 22.8403 25.3184 22.8403C24.7449 22.8403 24.4035 22.4062 24.4035 21.7241C24.4031 20.7163 24.9149 20.0032 25.6437 20.0032ZM33.8761 19.1195L33.6593 20.4218C33.4266 20.0653 33.1475 19.8946 32.7754 19.8946C32.2636 19.8946 31.7831 20.1892 31.4884 20.7474V20.732L30.8683 20.3598L30.9304 19.9722H29.8916L29.3024 23.693H30.2636L30.5893 21.6933C30.5893 21.6933 30.8373 21.4139 30.8994 21.3212C31.0545 21.1351 31.2094 21.1039 31.3335 21.0886C31.2251 21.3986 31.163 21.7707 31.163 22.1895C31.163 23.1197 31.6435 23.7398 32.3566 23.7398C32.7134 23.7398 32.9924 23.6157 33.2559 23.321L33.2095 23.693H34.1244L34.8686 19.1195H33.8761ZM32.6825 22.8095C32.3568 22.8095 32.1864 22.5615 32.1864 22.0807C32.1864 21.3519 32.4964 20.8249 32.9458 20.8249C33.2869 20.8249 33.4577 21.0886 33.4577 21.5537C33.4577 22.2978 33.1476 22.8095 32.6825 22.8095ZM28.202 22.0343C28.109 22.0187 28.0779 22.0187 28.0159 22.0187C27.4574 22.0187 27.1783 22.2356 27.1783 22.5768C27.1783 22.8095 27.3181 22.9646 27.5351 22.9646C28.0002 22.9646 28.1863 22.5768 28.202 22.0343ZM28.9772 23.693H28.1243L28.1553 23.3056C27.9384 23.6 27.6435 23.7551 27.1322 23.7551C26.6514 23.7551 26.2329 23.352 26.2329 22.7319C26.2329 21.8484 26.8993 21.3057 27.9537 21.3057C28.0624 21.3057 28.2327 21.3057 28.3725 21.3214C28.4035 21.1973 28.4192 21.1506 28.4192 21.0733C28.4192 20.8251 28.2175 20.7475 27.7524 20.7475C27.4887 20.7475 27.1632 20.7941 26.9462 20.8716L26.8222 20.9026L26.7601 20.918L26.8995 20.0808C27.3493 19.9412 27.675 19.8793 28.0314 19.8793C28.8686 19.8793 29.3027 20.2669 29.3027 20.98C29.3027 21.1661 29.3337 21.3057 29.2564 21.7088L29.0547 23.0422L29.0237 23.2748L28.9927 23.4609L28.9774 23.585V23.693H28.9772ZM15.6589 20.7629C15.845 20.7629 16.1085 20.7784 16.3877 20.8249L16.5273 19.9567C16.2481 19.9257 15.876 19.8791 15.6589 19.8791C14.5737 19.8791 14.2172 20.4683 14.2172 21.1504C14.2172 21.6002 14.4186 21.9256 14.9458 22.1736C15.3334 22.3597 15.3954 22.3905 15.3954 22.5613C15.3954 22.7936 15.194 22.9334 14.8217 22.9334C14.5272 22.9334 14.248 22.8867 13.938 22.7783L13.8294 23.6308L13.8447 23.6465L14.0309 23.6775C14.0929 23.6929 14.1705 23.7086 14.279 23.7239C14.5115 23.7396 14.7131 23.7549 14.8372 23.7549C15.9226 23.7549 16.3722 23.3365 16.3722 22.5146C16.3722 22.0031 16.124 21.6931 15.6434 21.4762C15.2248 21.2899 15.1783 21.2592 15.1783 21.0884C15.1783 20.918 15.3644 20.7629 15.6589 20.7629Z" fill="#1B3771"/>
<path fill-rule="evenodd" clip-rule="evenodd" d="M26.946 18.959L26.7752 19.9513C26.4342 19.7807 26.186 19.7033 25.907 19.7033C25.1782 19.7033 24.6667 20.4165 24.6667 21.4243C24.6667 22.1221 25.0078 22.5405 25.5817 22.5405C25.814 22.5405 26.0932 22.4631 26.4032 22.3082L26.2327 23.3466C25.876 23.4397 25.6435 23.4864 25.3799 23.4864C24.3257 23.4864 23.6744 22.7266 23.6744 21.502C23.6744 19.874 24.5737 18.7266 25.8605 18.7266C26.0309 18.7266 26.1858 18.7421 26.3099 18.7731L26.6977 18.8662C26.822 18.9127 26.853 18.9282 26.946 18.959ZM23.814 19.6413H23.721C23.3956 19.6413 23.2095 19.7964 22.9148 20.2458L23.0079 19.6721H22.124L21.5196 23.3932H22.4966C22.8529 21.1141 22.946 20.7265 23.4111 20.7265H23.4732C23.5662 20.2769 23.6901 19.9512 23.8452 19.6566L23.814 19.6413ZM18.2017 23.3466C17.9382 23.4397 17.721 23.4707 17.5041 23.4707C17.0079 23.4707 16.7287 23.1917 16.7287 22.6492C16.7287 22.5562 16.7442 22.4323 16.7598 22.3235L16.8218 21.9514L16.8683 21.6571L17.2869 19.1141H18.2482L18.1396 19.6723H18.6358L18.5117 20.5871H18.0155L17.7521 22.1376C17.7365 22.1996 17.7365 22.2463 17.7365 22.2927C17.7365 22.4788 17.8296 22.5563 18.0621 22.5563C18.1706 22.5563 18.2635 22.5563 18.3256 22.5253L18.2017 23.3466ZM14.4651 20.8506C14.4651 21.3159 14.6821 21.6412 15.1938 21.8894C15.5968 22.0755 15.6589 22.1374 15.6589 22.2925C15.6589 22.5251 15.4883 22.6335 15.1007 22.6335C14.8062 22.6335 14.5425 22.5872 14.2325 22.4941L14.0929 23.3466L14.1394 23.3623L14.31 23.3934C14.3719 23.4087 14.4496 23.4244 14.5735 23.4244C14.7905 23.4554 14.9766 23.4554 15.1007 23.4554C16.1238 23.4554 16.6046 23.0676 16.6046 22.2151C16.6046 21.7033 16.4032 21.4086 15.9226 21.1763C15.504 20.9902 15.4574 20.9438 15.4574 20.7732C15.4574 20.5717 15.628 20.4787 15.9381 20.4787C16.1242 20.4787 16.3877 20.4942 16.6359 20.5252L16.7753 19.6725C16.5273 19.626 16.1397 19.595 15.9226 19.595C14.8372 19.5948 14.4496 20.1685 14.4651 20.8506ZM34.3726 23.3934H33.4576L33.5044 23.0366C33.2407 23.3156 32.9615 23.4397 32.6048 23.4397C31.8916 23.4397 31.4265 22.8353 31.4265 21.9051C31.4265 20.6646 32.1553 19.6103 33.0078 19.6103C33.3956 19.6103 33.6746 19.7809 33.9385 20.1219L34.1554 18.8196H35.1167L34.3726 23.3934ZM32.946 22.5251C33.3958 22.5251 33.7058 21.998 33.7058 21.2692C33.7058 20.7885 33.535 20.5404 33.194 20.5404C32.7599 20.5404 32.4345 21.052 32.4345 21.7808C32.4345 22.2772 32.6049 22.5251 32.946 22.5251ZM21.1784 23.3156C20.8372 23.4244 20.5271 23.4707 20.1706 23.4707C19.0852 23.4707 18.527 22.8972 18.527 21.7963C18.527 20.525 19.2403 19.5793 20.2171 19.5793C21.0233 19.5793 21.5348 20.1064 21.5348 20.9281C21.5348 21.2073 21.5037 21.471 21.4107 21.8584H19.4885C19.473 21.9051 19.473 21.9361 19.473 21.9671C19.473 22.4012 19.7677 22.6182 20.3257 22.6182C20.6822 22.6182 20.9923 22.5562 21.3335 22.3855L21.1784 23.3156ZM20.6357 21.0986V20.9126C20.6357 20.6026 20.4651 20.432 20.1706 20.432C19.8605 20.432 19.6434 20.6646 19.5503 21.0986H20.6357ZM10.7596 23.3934H9.79834L10.3565 19.8738L9.10074 23.3934H8.43398L8.35643 19.9048L7.7674 23.3934H6.86816L7.62781 18.8196H9.02319L9.06972 21.6569L9.9998 18.8196H11.5193L10.7596 23.3934ZM13.1628 21.7343C13.0697 21.7343 13.0232 21.719 12.9457 21.719C12.403 21.719 12.124 21.9204 12.124 22.2925C12.124 22.5251 12.2481 22.6645 12.465 22.6645C12.8681 22.6645 13.1473 22.2925 13.1628 21.7343ZM13.8759 23.3934H13.0696L13.0851 23.0056C12.8369 23.3156 12.5114 23.4554 12.0618 23.4554C11.5346 23.4554 11.178 23.0523 11.178 22.4476C11.178 21.533 11.7981 21.0059 12.8834 21.0059C12.992 21.0059 13.1316 21.0214 13.2865 21.0367C13.3175 20.9128 13.3176 20.8663 13.3176 20.8042C13.3176 20.5562 13.1469 20.4632 12.6973 20.4632C12.4183 20.4632 12.1081 20.4942 11.8911 20.5562L11.7516 20.6028L11.6585 20.6183L11.7981 19.7811C12.2787 19.6415 12.6043 19.595 12.961 19.595C13.7982 19.595 14.2478 19.967 14.2478 20.6801C14.2478 20.8663 14.2323 21.0059 14.1703 21.4245L13.9531 22.7425L13.9221 22.9748L13.9066 23.1609L13.8911 23.3007L13.8759 23.3934ZM28.512 21.7343C28.4033 21.7343 28.3569 21.719 28.2951 21.719C27.7369 21.719 27.4575 21.9204 27.4575 22.2925C27.4575 22.5251 27.5973 22.6645 27.8143 22.6645C28.202 22.6645 28.4963 22.2925 28.512 21.7343ZM29.2251 23.3934H28.419L28.4343 23.0056C28.1863 23.3156 27.8608 23.4554 27.4112 23.4554C26.884 23.4554 26.5273 23.0523 26.5273 22.4476C26.5273 21.533 27.1473 21.0059 28.2327 21.0059C28.3414 21.0059 28.481 21.0214 28.6204 21.0367C28.6514 20.9128 28.6671 20.8663 28.6671 20.8042C28.6671 20.5562 28.4963 20.4632 28.0471 20.4632C27.7677 20.4632 27.4424 20.4942 27.2252 20.5562L27.1011 20.6028L27.0081 20.6183L27.1475 19.7811C27.6283 19.6415 27.9537 19.595 28.3104 19.595C29.1476 19.595 29.5817 19.967 29.5817 20.6801C29.5817 20.8663 29.5817 21.0059 29.5043 21.4245L29.3027 22.7425L29.2717 22.9748L29.2407 23.1609L29.2253 23.3007L29.2251 23.3934ZM31.8298 19.6413H31.7367C31.4114 19.6413 31.2253 19.7964 30.9306 20.2458L31.0236 19.6721H30.1397L29.5505 23.3932H30.5118C30.8685 21.1141 30.9616 20.7265 31.4267 20.7265H31.4887C31.5818 20.2769 31.7057 19.9512 31.8608 19.6566L31.8298 19.6413Z" fill="white"/>
</svg>
