<svg width="129" height="69" viewBox="0 0 129 69" fill="none" xmlns="http://www.w3.org/2000/svg">
<rect x="9.5" y="0.5" width="68" height="9" rx="0.5" transform="rotate(90 9.5 0.5)" fill="#DAE6FF" stroke="#04A9F5" stroke-dasharray="2 2"/>
<rect x="128.5" y="0.5" width="26" height="108" rx="3.5" transform="rotate(90 128.5 0.5)" fill="#DAE6FF" stroke="#04A9F5" stroke-dasharray="2 2"/>
<path d="M33.9995 18.78C33.8729 18.78 33.7462 18.7333 33.6462 18.6333L29.2995 14.2867C28.5929 13.58 28.5929 12.42 29.2995 11.7133L33.6462 7.36668C33.8395 7.17335 34.1595 7.17335 34.3529 7.36668C34.5462 7.56001 34.5462 7.88001 34.3529 8.07335L30.0062 12.42C29.6862 12.74 29.6862 13.26 30.0062 13.58L34.3529 17.9267C34.5462 18.12 34.5462 18.44 34.3529 18.6333C34.2529 18.7267 34.1262 18.78 33.9995 18.78Z" fill="#F44236"/>
<line x1="112" y1="13.5" x2="38" y2="13.5" stroke="#F44236" stroke-dasharray="2 2"/>
<path d="M116 7.21999C116.127 7.21999 116.254 7.26665 116.354 7.36665L120.7 11.7133C121.407 12.42 121.407 13.58 120.7 14.2867L116.354 18.6333C116.16 18.8267 115.84 18.8267 115.647 18.6333C115.454 18.44 115.454 18.12 115.647 17.9267L119.994 13.58C120.314 13.26 120.314 12.74 119.994 12.42L115.647 8.07332C115.454 7.87999 115.454 7.55999 115.647 7.36665C115.747 7.27332 115.874 7.21999 116 7.21999Z" fill="#F44236"/>
<rect x="-0.5" y="-0.5" width="11" height="108" rx="0.5" transform="matrix(3.84011e-08 -1 -1 -4.9756e-08 128 63)" fill="#DAE6FF" stroke="#04A9F5" stroke-dasharray="2 2"/>
</svg>
