<svg width="159" height="161" viewBox="0 0 159 161" fill="none" xmlns="http://www.w3.org/2000/svg">
<path opacity="0.2" d="M197.813 -35.7662C287.275 14.5012 254.294 -17.4477 181.744 41.9976C118.748 93.607 150.441 177.039 78.8768 136.82C21.6195 104.648 26.9002 24.9444 60.6982 -29.5637C87.7386 -73.1625 146.789 -87.641 192.605 -61.9059C229.249 -41.3158 241.421 3.65603 219.788 38.5351" stroke="url(#paint0_linear_1309_125427)" stroke-miterlimit="10"/>
<path opacity="0.3" d="M199.892 -38.8679C285.708 9.35062 253.15 -11.2915 184.554 47.0089C125.182 97.3373 143.744 167.405 75.099 128.835C20.1832 97.9782 33.7976 25.2153 66.2159 -27.0545C92.1536 -68.8753 146.611 -89.6214 190.549 -64.9334C225.696 -45.1845 237.37 -2.05255 216.621 31.4016" stroke="url(#paint1_linear_1309_125427)" stroke-miterlimit="10"/>
<path opacity="0.4" d="M201.974 -41.9599C284.13 4.20248 252.019 -5.12812 187.367 52.0298C131.606 101.07 137.046 157.771 71.3288 120.837C18.7545 91.2962 40.7026 25.474 71.7489 -24.5697C96.5763 -64.6002 146.438 -91.6236 188.505 -67.9949C222.156 -49.0871 233.331 -7.79517 213.466 24.2341" stroke="url(#paint2_linear_1309_125427)" stroke-miterlimit="10"/>
<path opacity="0.5" d="M204.053 -45.0616C282.55 -0.955346 250.885 1.0256 190.187 57.0385C138.04 104.8 130.349 148.136 67.5512 112.851C17.3184 84.6264 47.6103 25.7423 77.2642 -22.0702C100.989 -60.3227 146.257 -93.6137 186.446 -71.0321C218.6 -52.9655 229.277 -13.5134 210.296 17.091" stroke="url(#paint3_linear_1309_125427)" stroke-miterlimit="10"/>
<path opacity="0.6" d="M206.142 -48.1657C280.979 -6.11564 249.895 7.30932 193.007 62.0472C144.59 108.636 123.648 138.492 63.7809 104.854C15.8767 77.9372 54.5152 26.001 82.7868 -19.5829C105.409 -56.0573 146.074 -95.6133 184.395 -74.0814C215.052 -56.8559 225.231 -19.2438 207.133 9.93568" stroke="url(#paint4_linear_1309_125427)" stroke-miterlimit="10"/>
<path opacity="0.7" d="M208.224 -51.2578C279.402 -11.2638 248.78 13.4896 195.83 67.0656C151.039 112.383 116.953 128.868 60.0032 96.8683C14.4405 71.2673 61.4153 26.2815 88.3021 -17.0834C109.821 -51.7798 145.894 -97.6034 182.336 -77.1187C211.496 -60.7343 221.177 -24.9621 203.963 2.79253" stroke="url(#paint5_linear_1309_125427)" stroke-miterlimit="10"/>
<path opacity="0.7" d="M210.303 -54.3595C277.834 -16.4144 247.656 19.6408 198.643 72.0865C157.476 116.123 110.256 119.234 56.2254 88.8829C13.0042 64.5975 68.3127 26.5524 93.8275 -14.5864C114.236 -47.4925 145.713 -99.5935 180.295 -80.1705C207.958 -64.6273 217.144 -30.6854 200.811 -4.36528" stroke="url(#paint6_linear_1309_125427)" stroke-miterlimit="10"/>
<path opacity="0.6" d="M212.382 -57.4612C276.254 -21.5723 246.523 25.7945 201.453 77.0977C163.897 119.846 103.548 109.602 52.4452 80.8877C11.5654 57.918 75.2077 26.8135 99.3401 -12.0966C118.646 -43.2247 145.53 -101.593 178.234 -83.2174C204.399 -68.5153 213.087 -36.4133 197.641 -11.5084" stroke="url(#paint7_linear_1309_125427)" stroke-miterlimit="10"/>
<path opacity="0.6" d="M214.471 -60.5653C274.684 -26.7326 245.384 31.9289 204.283 82.1039C170.326 123.557 96.8503 99.9674 48.6775 72.8997C10.1392 51.2456 82.1151 27.0819 104.865 -9.59958C123.069 -38.9496 145.349 -103.583 176.185 -86.2571C200.854 -72.3961 209.044 -42.1341 194.481 -18.6541" stroke="url(#paint8_linear_1309_125427)" stroke-miterlimit="10"/>
<path opacity="0.5" d="M216.552 -63.6573C273.106 -31.8807 244.212 38.061 207.096 87.1248C176.732 127.263 90.1528 90.3331 44.91 64.9118C8.71315 44.5733 89.0329 27.3477 110.401 -7.10507C127.494 -34.6649 145.189 -105.578 174.147 -89.2992C197.318 -76.2794 205.01 -47.8573 191.331 -25.8022" stroke="url(#paint9_linear_1309_125427)" stroke-miterlimit="10"/>
<path opacity="0.4" d="M218.632 -66.759C271.538 -37.0314 242.932 44.1163 209.906 92.1361C183.049 130.919 83.4554 80.6987 41.1298 56.9166C7.27442 37.8938 95.9279 27.6089 115.914 -4.61526C131.904 -30.397 144.996 -107.575 172.083 -92.3558C193.757 -80.1771 200.952 -53.595 188.156 -32.9647" stroke="url(#paint10_linear_1309_125427)" stroke-miterlimit="10"/>
<path opacity="0.2" d="M220.71 -69.8607C269.958 -42.1892 241.798 50.27 212.726 97.1448C189.472 134.652 76.7549 71.0547 37.3594 48.9189C5.8455 31.2117 102.835 27.8772 121.436 -2.12795C136.324 -26.1316 144.823 -109.578 170.041 -95.4076C190.219 -84.0702 196.918 -59.3182 185.004 -40.1225" stroke="url(#paint11_linear_1309_125427)" stroke-miterlimit="10"/>
<defs>
<linearGradient id="paint0_linear_1309_125427" x1="22.6045" y1="23.6493" x2="303.963" y2="99.1665" gradientUnits="userSpaceOnUse">
<stop offset="0.00302487" stop-color="#F6CE55"/>
<stop offset="0.00312487" stop-color="#F21C0D"/>
<stop offset="0.164583" stop-color="#F5C73D"/>
<stop offset="0.315625" stop-color="#2AB6F7"/>
<stop offset="0.419792" stop-color="#1DE9B6"/>
<stop offset="0.586458" stop-color="#F55247"/>
<stop offset="0.711458" stop-color="#F7D56E"/>
<stop offset="0.961458" stop-color="#9FDFF5"/>
</linearGradient>
<linearGradient id="paint1_linear_1309_125427" x1="23.6363" y1="21.5047" x2="299.386" y2="99.968" gradientUnits="userSpaceOnUse">
<stop offset="0.00302487" stop-color="#F6CE55"/>
<stop offset="0.00312487" stop-color="#F21C0D"/>
<stop offset="0.164583" stop-color="#F5C73D"/>
<stop offset="0.315625" stop-color="#2AB6F7"/>
<stop offset="0.419792" stop-color="#1DE9B6"/>
<stop offset="0.586458" stop-color="#F55247"/>
<stop offset="0.711458" stop-color="#F7D56E"/>
<stop offset="0.961458" stop-color="#9FDFF5"/>
</linearGradient>
<linearGradient id="paint2_linear_1309_125427" x1="24.3042" y1="19.1799" x2="294.976" y2="100.413" gradientUnits="userSpaceOnUse">
<stop offset="0.00302487" stop-color="#F6CE55"/>
<stop offset="0.00312487" stop-color="#F21C0D"/>
<stop offset="0.164583" stop-color="#F5C73D"/>
<stop offset="0.315625" stop-color="#2AB6F7"/>
<stop offset="0.419792" stop-color="#1DE9B6"/>
<stop offset="0.586458" stop-color="#F55247"/>
<stop offset="0.711458" stop-color="#F7D56E"/>
<stop offset="0.961458" stop-color="#9FDFF5"/>
</linearGradient>
<linearGradient id="paint3_linear_1309_125427" x1="24.6295" y1="16.7684" x2="290.946" y2="100.472" gradientUnits="userSpaceOnUse">
<stop offset="0.00302487" stop-color="#F6CE55"/>
<stop offset="0.00312487" stop-color="#F21C0D"/>
<stop offset="0.164583" stop-color="#F5C73D"/>
<stop offset="0.315625" stop-color="#2AB6F7"/>
<stop offset="0.419792" stop-color="#1DE9B6"/>
<stop offset="0.586458" stop-color="#F55247"/>
<stop offset="0.711458" stop-color="#F7D56E"/>
<stop offset="0.961458" stop-color="#9FDFF5"/>
</linearGradient>
<linearGradient id="paint4_linear_1309_125427" x1="24.6831" y1="14.4044" x2="287.691" y2="100.064" gradientUnits="userSpaceOnUse">
<stop offset="0.00302487" stop-color="#F6CE55"/>
<stop offset="0.00312487" stop-color="#F21C0D"/>
<stop offset="0.164583" stop-color="#F5C73D"/>
<stop offset="0.315625" stop-color="#2AB6F7"/>
<stop offset="0.419792" stop-color="#1DE9B6"/>
<stop offset="0.586458" stop-color="#F55247"/>
<stop offset="0.711458" stop-color="#F7D56E"/>
<stop offset="0.961458" stop-color="#9FDFF5"/>
</linearGradient>
<linearGradient id="paint5_linear_1309_125427" x1="24.5376" y1="12.3034" x2="285.616" y2="99.1031" gradientUnits="userSpaceOnUse">
<stop offset="0.00302487" stop-color="#F6CE55"/>
<stop offset="0.00312487" stop-color="#F21C0D"/>
<stop offset="0.164583" stop-color="#F5C73D"/>
<stop offset="0.315625" stop-color="#2AB6F7"/>
<stop offset="0.419792" stop-color="#1DE9B6"/>
<stop offset="0.586458" stop-color="#F55247"/>
<stop offset="0.711458" stop-color="#F7D56E"/>
<stop offset="0.961458" stop-color="#9FDFF5"/>
</linearGradient>
<linearGradient id="paint6_linear_1309_125427" x1="24.2803" y1="10.6726" x2="285.23" y2="97.5352" gradientUnits="userSpaceOnUse">
<stop offset="0.00302487" stop-color="#F6CE55"/>
<stop offset="0.00312487" stop-color="#F21C0D"/>
<stop offset="0.164583" stop-color="#F5C73D"/>
<stop offset="0.315625" stop-color="#2AB6F7"/>
<stop offset="0.419792" stop-color="#1DE9B6"/>
<stop offset="0.586458" stop-color="#F55247"/>
<stop offset="0.711458" stop-color="#F7D56E"/>
<stop offset="0.961458" stop-color="#9FDFF5"/>
</linearGradient>
<linearGradient id="paint7_linear_1309_125427" x1="23.9505" y1="9.56874" x2="286.56" y2="95.3967" gradientUnits="userSpaceOnUse">
<stop offset="0.00302487" stop-color="#F6CE55"/>
<stop offset="0.00312487" stop-color="#F21C0D"/>
<stop offset="0.164583" stop-color="#F5C73D"/>
<stop offset="0.315625" stop-color="#2AB6F7"/>
<stop offset="0.419792" stop-color="#1DE9B6"/>
<stop offset="0.586458" stop-color="#F55247"/>
<stop offset="0.711458" stop-color="#F7D56E"/>
<stop offset="0.961458" stop-color="#9FDFF5"/>
</linearGradient>
<linearGradient id="paint8_linear_1309_125427" x1="23.5505" y1="8.87698" x2="289.149" y2="92.8798" gradientUnits="userSpaceOnUse">
<stop offset="0.00302487" stop-color="#F6CE55"/>
<stop offset="0.00312487" stop-color="#F21C0D"/>
<stop offset="0.164583" stop-color="#F5C73D"/>
<stop offset="0.315625" stop-color="#2AB6F7"/>
<stop offset="0.419792" stop-color="#1DE9B6"/>
<stop offset="0.586458" stop-color="#F55247"/>
<stop offset="0.711458" stop-color="#F7D56E"/>
<stop offset="0.961458" stop-color="#9FDFF5"/>
</linearGradient>
<linearGradient id="paint9_linear_1309_125427" x1="23.0475" y1="8.43502" x2="292.458" y2="90.1481" gradientUnits="userSpaceOnUse">
<stop offset="0.00302487" stop-color="#F6CE55"/>
<stop offset="0.00312487" stop-color="#F21C0D"/>
<stop offset="0.164583" stop-color="#F5C73D"/>
<stop offset="0.315625" stop-color="#2AB6F7"/>
<stop offset="0.419792" stop-color="#1DE9B6"/>
<stop offset="0.586458" stop-color="#F55247"/>
<stop offset="0.711458" stop-color="#F7D56E"/>
<stop offset="0.961458" stop-color="#9FDFF5"/>
</linearGradient>
<linearGradient id="paint10_linear_1309_125427" x1="22.4134" y1="8.11507" x2="296.121" y2="87.3404" gradientUnits="userSpaceOnUse">
<stop offset="0.00302487" stop-color="#F6CE55"/>
<stop offset="0.00312487" stop-color="#F21C0D"/>
<stop offset="0.164583" stop-color="#F5C73D"/>
<stop offset="0.315625" stop-color="#2AB6F7"/>
<stop offset="0.419792" stop-color="#1DE9B6"/>
<stop offset="0.586458" stop-color="#F55247"/>
<stop offset="0.711458" stop-color="#F7D56E"/>
<stop offset="0.961458" stop-color="#9FDFF5"/>
</linearGradient>
<linearGradient id="paint11_linear_1309_125427" x1="21.6783" y1="7.88553" x2="299.994" y2="84.5594" gradientUnits="userSpaceOnUse">
<stop offset="0.00302487" stop-color="#F6CE55"/>
<stop offset="0.00312487" stop-color="#F21C0D"/>
<stop offset="0.164583" stop-color="#F5C73D"/>
<stop offset="0.315625" stop-color="#2AB6F7"/>
<stop offset="0.419792" stop-color="#1DE9B6"/>
<stop offset="0.586458" stop-color="#F55247"/>
<stop offset="0.711458" stop-color="#F7D56E"/>
<stop offset="0.961458" stop-color="#9FDFF5"/>
</linearGradient>
</defs>
</svg>
