<svg width="338" height="196" viewBox="0 0 338 196" fill="none" xmlns="http://www.w3.org/2000/svg">
<rect width="338" height="196" fill="url(#paint0_radial_7843_38000)"/>
<mask id="mask0_7843_38000" style="mask-type:alpha" maskUnits="userSpaceOnUse" x="0" y="0" width="338" height="196">
<rect width="338" height="196" rx="20" fill="#1E1E1E"/>
<path d="M27.2955 29.0923H26.1876C26.145 28.8556 26.0657 28.6473 25.9497 28.4673C25.8337 28.2874 25.6916 28.1347 25.5235 28.0092C25.3554 27.8838 25.1672 27.7891 24.9589 27.7251C24.7529 27.6612 24.5339 27.6293 24.3019 27.6293C23.8829 27.6293 23.5077 27.7346 23.1762 27.9453C22.8472 28.156 22.5867 28.465 22.395 28.8722C22.2056 29.2794 22.1109 29.7765 22.1109 30.3636C22.1109 30.9555 22.2056 31.455 22.395 31.8622C22.5867 32.2694 22.8483 32.5772 23.1798 32.7855C23.5112 32.9938 23.8841 33.098 24.2984 33.098C24.528 33.098 24.7458 33.0672 24.9518 33.0057C25.1601 32.9418 25.3483 32.8482 25.5164 32.7251C25.6845 32.602 25.8266 32.4517 25.9426 32.2741C26.0609 32.0942 26.1426 31.8883 26.1876 31.6562L27.2955 31.6598C27.2364 32.0173 27.1215 32.3464 26.9511 32.647C26.783 32.9453 26.5664 33.2034 26.3012 33.4212C26.0384 33.6366 25.7378 33.8035 25.3992 33.9219C25.0607 34.0402 24.6914 34.0994 24.2913 34.0994C23.6615 34.0994 23.1005 33.9503 22.608 33.652C22.1156 33.3513 21.7274 32.9216 21.4433 32.3629C21.1615 31.8042 21.0207 31.1378 21.0207 30.3636C21.0207 29.5871 21.1627 28.9207 21.4468 28.3643C21.7309 27.8056 22.1192 27.3771 22.6116 27.0788C23.104 26.7782 23.6639 26.6278 24.2913 26.6278C24.6772 26.6278 25.037 26.6835 25.3708 26.7947C25.707 26.9036 26.0088 27.0646 26.2764 27.2777C26.5439 27.4884 26.7652 27.7464 26.9404 28.0518C27.1156 28.3549 27.234 28.7017 27.2955 29.0923ZM29.1741 34H28.0093L30.6265 26.7273H31.8943L34.5115 34H33.3467L31.2906 28.0483H31.2338L29.1741 34ZM29.3694 31.152H33.1478V32.0753H29.3694V31.152ZM35.5617 34V26.7273H38.154C38.7175 26.7273 39.185 26.8243 39.5567 27.0185C39.9308 27.2126 40.2101 27.4813 40.3948 27.8246C40.5795 28.1655 40.6718 28.5597 40.6718 29.0071C40.6718 29.4522 40.5783 29.844 40.3912 30.1825C40.2066 30.5187 39.9272 30.7803 39.5532 30.9673C39.1815 31.1544 38.7139 31.2479 38.1505 31.2479H36.1867V30.3033H38.051C38.4062 30.3033 38.695 30.2524 38.9175 30.1506C39.1424 30.0488 39.307 29.9008 39.4111 29.7067C39.5153 29.5125 39.5674 29.2794 39.5674 29.0071C39.5674 28.7325 39.5141 28.4946 39.4076 28.2933C39.3034 28.0921 39.1389 27.9382 38.914 27.8317C38.6914 27.7228 38.3991 27.6683 38.0368 27.6683H36.659V34H35.5617ZM39.1519 30.7188L40.9488 34H39.6988L37.9374 30.7188H39.1519ZM44.3614 34H42.007V26.7273H44.436C45.1486 26.7273 45.7606 26.8729 46.2719 27.1641C46.7833 27.4529 47.1751 27.8684 47.4474 28.4105C47.722 28.9503 47.8593 29.5978 47.8593 30.353C47.8593 31.1106 47.7208 31.7616 47.4438 32.3061C47.1692 32.8506 46.7715 33.2696 46.2506 33.5632C45.7298 33.8544 45.1001 34 44.3614 34ZM43.1043 33.0412H44.301C44.855 33.0412 45.3155 32.937 45.6824 32.7287C46.0494 32.518 46.324 32.2138 46.5063 31.8161C46.6886 31.416 46.7797 30.9283 46.7797 30.353C46.7797 29.7824 46.6886 29.2983 46.5063 28.9006C46.3264 28.5028 46.0577 28.201 45.7002 27.995C45.3427 27.7891 44.8988 27.6861 44.3685 27.6861H43.1043V33.0412ZM57.7403 26.7273V34H56.7318L53.0351 28.6662H52.9676V34H51.8703V26.7273H52.8859L56.5862 32.0682H56.6537V26.7273H57.7403ZM59.9553 34H58.7906L61.4078 26.7273H62.6755L65.2927 34H64.1279L62.0718 28.0483H62.015L59.9553 34ZM60.1507 31.152H63.9291V32.0753H60.1507V31.152ZM66.343 26.7273H67.6746L69.99 32.3807H70.0752L72.3905 26.7273H73.7222V34H72.6782V28.7372H72.6107L70.4658 33.9893H69.5993L67.4545 28.7337H67.387V34H66.343V26.7273ZM75.3176 34V26.7273H79.8772V27.6719H76.4149V29.8878H79.6393V30.8288H76.4149V33.0554H79.9198V34H75.3176Z" fill="#5B6B79"/>
<path d="M25.7386 44.3636H27.8295V52.5455C27.8258 53.2955 27.6667 53.9413 27.3523 54.483C27.0379 55.0208 26.5985 55.4356 26.0341 55.7273C25.4735 56.0152 24.8201 56.1591 24.0739 56.1591C23.392 56.1591 22.7784 56.0379 22.233 55.7955C21.6913 55.5492 21.2614 55.1856 20.9432 54.7045C20.625 54.2235 20.4659 53.625 20.4659 52.9091H22.5625C22.5663 53.2235 22.6345 53.4943 22.767 53.7216C22.9034 53.9489 23.0909 54.1231 23.3295 54.2443C23.5682 54.3655 23.8428 54.4261 24.1534 54.4261C24.4905 54.4261 24.7765 54.3561 25.0114 54.2159C25.2462 54.072 25.4242 53.8598 25.5455 53.5795C25.6705 53.2992 25.7348 52.9545 25.7386 52.5455V44.3636ZM33.8324 56.1705C32.9801 56.1705 32.2415 55.983 31.6165 55.608C30.9915 55.233 30.5066 54.7083 30.1619 54.0341C29.821 53.3598 29.6506 52.572 29.6506 51.6705C29.6506 50.7689 29.821 49.9792 30.1619 49.3011C30.5066 48.6231 30.9915 48.0966 31.6165 47.7216C32.2415 47.3466 32.9801 47.1591 33.8324 47.1591C34.6847 47.1591 35.4233 47.3466 36.0483 47.7216C36.6733 48.0966 37.1563 48.6231 37.4972 49.3011C37.8419 49.9792 38.0142 50.7689 38.0142 51.6705C38.0142 52.572 37.8419 53.3598 37.4972 54.0341C37.1563 54.7083 36.6733 55.233 36.0483 55.608C35.4233 55.983 34.6847 56.1705 33.8324 56.1705ZM33.8438 54.5227C34.3059 54.5227 34.6922 54.3958 35.0028 54.142C35.3134 53.8845 35.5445 53.5398 35.696 53.108C35.8513 52.6761 35.929 52.1951 35.929 51.6648C35.929 51.1307 35.8513 50.6477 35.696 50.2159C35.5445 49.7803 35.3134 49.4337 35.0028 49.1761C34.6922 48.9186 34.3059 48.7898 33.8438 48.7898C33.3703 48.7898 32.9763 48.9186 32.6619 49.1761C32.3513 49.4337 32.1184 49.7803 31.9631 50.2159C31.8116 50.6477 31.7358 51.1307 31.7358 51.6648C31.7358 52.1951 31.8116 52.6761 31.9631 53.108C32.1184 53.5398 32.3513 53.8845 32.6619 54.142C32.9763 54.3958 33.3703 54.5227 33.8438 54.5227ZM41.8168 50.8864V56H39.7599V47.2727H41.7259V48.7557H41.8281C42.0289 48.267 42.349 47.8788 42.7884 47.5909C43.2315 47.303 43.7789 47.1591 44.4304 47.1591C45.0327 47.1591 45.5573 47.2879 46.0043 47.5455C46.455 47.803 46.8035 48.1761 47.0497 48.6648C47.2997 49.1534 47.4228 49.7462 47.419 50.4432V56H45.3622V50.7614C45.3622 50.178 45.2107 49.7216 44.9077 49.392C44.6084 49.0625 44.1937 48.8977 43.6634 48.8977C43.3035 48.8977 42.9834 48.9773 42.7031 49.1364C42.4266 49.2917 42.2088 49.517 42.0497 49.8125C41.8944 50.108 41.8168 50.4659 41.8168 50.8864ZM51.5668 50.8864V56H49.5099V44.3636H51.5213V48.7557H51.6236C51.8281 48.2633 52.1444 47.875 52.5724 47.5909C53.0043 47.303 53.5535 47.1591 54.2202 47.1591C54.8262 47.1591 55.3546 47.286 55.8054 47.5398C56.2562 47.7936 56.6046 48.1648 56.8509 48.6534C57.1009 49.142 57.2259 49.7386 57.2259 50.4432V56H55.169V50.7614C55.169 50.1742 55.0175 49.7178 54.7145 49.392C54.4152 49.0625 53.9948 48.8977 53.4531 48.8977C53.0895 48.8977 52.7637 48.9773 52.4759 49.1364C52.1918 49.2917 51.9683 49.517 51.8054 49.8125C51.6463 50.108 51.5668 50.4659 51.5668 50.8864ZM69.706 47.5625C69.6529 47.0663 69.4295 46.6799 69.0355 46.4034C68.6454 46.1269 68.1378 45.9886 67.5128 45.9886C67.0734 45.9886 66.6965 46.0549 66.3821 46.1875C66.0677 46.3201 65.8272 46.5 65.6605 46.7273C65.4938 46.9545 65.4086 47.214 65.4048 47.5057C65.4048 47.7481 65.4598 47.9583 65.5696 48.1364C65.6832 48.3144 65.8366 48.4659 66.0298 48.5909C66.223 48.7121 66.437 48.8144 66.6719 48.8977C66.9067 48.9811 67.1435 49.0511 67.3821 49.108L68.473 49.3807C68.9124 49.483 69.3348 49.6212 69.7401 49.7955C70.1491 49.9697 70.5147 50.1894 70.8366 50.4545C71.1624 50.7197 71.42 51.0398 71.6094 51.4148C71.7988 51.7898 71.8935 52.2292 71.8935 52.733C71.8935 53.4148 71.7192 54.0152 71.3707 54.5341C71.0223 55.0492 70.5185 55.4527 69.8594 55.7443C69.2041 56.0322 68.4105 56.1761 67.4787 56.1761C66.5734 56.1761 65.7874 56.036 65.1207 55.7557C64.4579 55.4754 63.9389 55.0663 63.5639 54.5284C63.1927 53.9905 62.992 53.3352 62.9616 52.5625H65.0355C65.0658 52.9678 65.1908 53.3049 65.4105 53.5739C65.6302 53.8428 65.9162 54.0436 66.2685 54.1761C66.6245 54.3087 67.0223 54.375 67.4616 54.375C67.92 54.375 68.3215 54.3068 68.6662 54.1705C69.0147 54.0303 69.2874 53.8371 69.4844 53.5909C69.6813 53.3409 69.7817 53.0492 69.7855 52.7159C69.7817 52.4129 69.6927 52.1629 69.5185 51.9659C69.3442 51.7652 69.0999 51.5985 68.7855 51.4659C68.4749 51.3295 68.1113 51.2083 67.6946 51.1023L66.3707 50.7614C65.4124 50.5152 64.6548 50.142 64.098 49.642C63.545 49.1383 63.2685 48.4697 63.2685 47.6364C63.2685 46.9508 63.4541 46.3504 63.8253 45.8352C64.2003 45.3201 64.7098 44.9205 65.3537 44.6364C65.9976 44.3485 66.7268 44.2045 67.5412 44.2045C68.367 44.2045 69.0904 44.3485 69.7116 44.6364C70.3366 44.9205 70.8272 45.3163 71.1832 45.8239C71.5393 46.3277 71.723 46.9072 71.7344 47.5625H69.706ZM73.6818 56V47.2727H75.6477V48.7557H75.75C75.9318 48.2557 76.233 47.8655 76.6534 47.5852C77.0739 47.3011 77.5758 47.1591 78.1591 47.1591C78.75 47.1591 79.2481 47.303 79.6534 47.5909C80.0625 47.875 80.3504 48.2633 80.517 48.7557H80.608C80.8011 48.2708 81.1269 47.8845 81.5852 47.5966C82.0473 47.3049 82.5947 47.1591 83.2273 47.1591C84.0303 47.1591 84.6856 47.4129 85.1932 47.9205C85.7008 48.428 85.9545 49.1686 85.9545 50.142V56H83.892V50.4602C83.892 49.9186 83.7481 49.5227 83.4602 49.2727C83.1723 49.0189 82.8201 48.892 82.4034 48.892C81.9072 48.892 81.5189 49.0473 81.2386 49.358C80.9621 49.6648 80.8239 50.0644 80.8239 50.5568V56H78.8068V50.375C78.8068 49.9242 78.6705 49.5644 78.3977 49.2955C78.1288 49.0265 77.7765 48.892 77.3409 48.892C77.0455 48.892 76.7765 48.9678 76.5341 49.1193C76.2917 49.267 76.0985 49.4773 75.9545 49.75C75.8106 50.0189 75.7386 50.3333 75.7386 50.6932V56H73.6818ZM88.0412 56V47.2727H90.098V56H88.0412ZM89.0753 46.0341C88.7495 46.0341 88.4692 45.9261 88.2344 45.7102C87.9995 45.4905 87.8821 45.2273 87.8821 44.9205C87.8821 44.6098 87.9995 44.3466 88.2344 44.1307C88.4692 43.911 88.7495 43.8011 89.0753 43.8011C89.4048 43.8011 89.6851 43.911 89.9162 44.1307C90.151 44.3466 90.2685 44.6098 90.2685 44.9205C90.2685 45.2273 90.151 45.4905 89.9162 45.7102C89.6851 45.9261 89.4048 46.0341 89.0753 46.0341ZM96.571 47.2727V48.8636H91.554V47.2727H96.571ZM92.7926 45.1818H94.8494V53.375C94.8494 53.6515 94.8911 53.8636 94.9744 54.0114C95.0616 54.1553 95.1752 54.2538 95.3153 54.3068C95.4555 54.3598 95.6108 54.3864 95.7812 54.3864C95.91 54.3864 96.0275 54.3769 96.1335 54.358C96.2434 54.339 96.3267 54.322 96.3835 54.3068L96.7301 55.9148C96.6203 55.9527 96.4631 55.9943 96.2585 56.0398C96.0578 56.0852 95.8116 56.1117 95.5199 56.1193C95.0047 56.1345 94.5407 56.0568 94.1278 55.8864C93.715 55.7121 93.3873 55.4432 93.1449 55.0795C92.9063 54.7159 92.7888 54.2614 92.7926 53.7159V45.1818ZM100.536 50.8864V56H98.4787V44.3636H100.49V48.7557H100.592C100.797 48.2633 101.113 47.875 101.541 47.5909C101.973 47.303 102.522 47.1591 103.189 47.1591C103.795 47.1591 104.323 47.286 104.774 47.5398C105.225 47.7936 105.573 48.1648 105.82 48.6534C106.07 49.142 106.195 49.7386 106.195 50.4432V56H104.138V50.7614C104.138 50.1742 103.986 49.7178 103.683 49.392C103.384 49.0625 102.964 48.8977 102.422 48.8977C102.058 48.8977 101.732 48.9773 101.445 49.1364C101.161 49.2917 100.937 49.517 100.774 49.8125C100.615 50.108 100.536 50.4659 100.536 50.8864Z" fill="white"/>
<circle cx="297" cy="41" r="9" fill="#9FA2AA"/>
<circle cx="309" cy="41" r="9" fill="#E14747"/>
<path d="M26.4553 104.909L26.5632 102.511L24.5405 103.812L23.9212 102.733L26.0689 101.636L23.9212 100.54L24.5405 99.4602L26.5632 100.761L26.4553 98.3636H27.6882L27.5803 100.761L29.603 99.4602L30.2223 100.54L28.0746 101.636L30.2223 102.733L29.603 103.812L27.5803 102.511L27.6882 104.909H26.4553ZM34.799 104.909L34.907 102.511L32.8842 103.812L32.2649 102.733L34.4126 101.636L32.2649 100.54L32.8842 99.4602L34.907 100.761L34.799 98.3636H36.032L35.924 100.761L37.9467 99.4602L38.5661 100.54L36.4183 101.636L38.5661 102.733L37.9467 103.812L35.924 102.511L36.032 104.909H34.799ZM43.1428 104.909L43.2507 102.511L41.228 103.812L40.6087 102.733L42.7564 101.636L40.6087 100.54L41.228 99.4602L43.2507 100.761L43.1428 98.3636H44.3757L44.2678 100.761L46.2905 99.4602L46.9098 100.54L44.7621 101.636L46.9098 102.733L46.2905 103.812L44.2678 102.511L44.3757 104.909H43.1428ZM51.4865 104.909L51.5945 102.511L49.5717 103.812L48.9524 102.733L51.1001 101.636L48.9524 100.54L49.5717 99.4602L51.5945 100.761L51.4865 98.3636H52.7195L52.6115 100.761L54.6342 99.4602L55.2536 100.54L53.1058 101.636L55.2536 102.733L54.6342 103.812L52.6115 102.511L52.7195 104.909H51.4865ZM64.0646 104.909L64.1726 102.511L62.1499 103.812L61.5305 102.733L63.6783 101.636L61.5305 100.54L62.1499 99.4602L64.1726 100.761L64.0646 98.3636H65.2976L65.1896 100.761L67.2124 99.4602L67.8317 100.54L65.6839 101.636L67.8317 102.733L67.2124 103.812L65.1896 102.511L65.2976 104.909H64.0646ZM72.4084 104.909L72.5163 102.511L70.4936 103.812L69.8743 102.733L72.022 101.636L69.8743 100.54L70.4936 99.4602L72.5163 100.761L72.4084 98.3636H73.6413L73.5334 100.761L75.5561 99.4602L76.1754 100.54L74.0277 101.636L76.1754 102.733L75.5561 103.812L73.5334 102.511L73.6413 104.909H72.4084ZM80.7521 104.909L80.8601 102.511L78.8374 103.812L78.218 102.733L80.3658 101.636L78.218 100.54L78.8374 99.4602L80.8601 100.761L80.7521 98.3636H81.9851L81.8771 100.761L83.8999 99.4602L84.5192 100.54L82.3714 101.636L84.5192 102.733L83.8999 103.812L81.8771 102.511L81.9851 104.909H80.7521ZM89.0959 104.909L89.2038 102.511L87.1811 103.812L86.5618 102.733L88.7095 101.636L86.5618 100.54L87.1811 99.4602L89.2038 100.761L89.0959 98.3636H90.3288L90.2209 100.761L92.2436 99.4602L92.8629 100.54L90.7152 101.636L92.8629 102.733L92.2436 103.812L90.2209 102.511L90.3288 104.909H89.0959ZM101.674 104.909L101.782 102.511L99.7592 103.812L99.1399 102.733L101.288 101.636L99.1399 100.54L99.7592 99.4602L101.782 100.761L101.674 98.3636H102.907L102.799 100.761L104.822 99.4602L105.441 100.54L103.293 101.636L105.441 102.733L104.822 103.812L102.799 102.511L102.907 104.909H101.674ZM110.018 104.909L110.126 102.511L108.103 103.812L107.484 102.733L109.631 101.636L107.484 100.54L108.103 99.4602L110.126 100.761L110.018 98.3636H111.251L111.143 100.761L113.165 99.4602L113.785 100.54L111.637 101.636L113.785 102.733L113.165 103.812L111.143 102.511L111.251 104.909H110.018ZM118.362 104.909L118.469 102.511L116.447 103.812L115.827 102.733L117.975 101.636L115.827 100.54L116.447 99.4602L118.469 100.761L118.362 98.3636H119.594L119.487 100.761L121.509 99.4602L122.129 100.54L119.981 101.636L122.129 102.733L121.509 103.812L119.487 102.511L119.594 104.909H118.362ZM126.705 104.909L126.813 102.511L124.79 103.812L124.171 102.733L126.319 101.636L124.171 100.54L124.79 99.4602L126.813 100.761L126.705 98.3636H127.938L127.83 100.761L129.853 99.4602L130.472 100.54L128.325 101.636L130.472 102.733L129.853 103.812L127.83 102.511L127.938 104.909H126.705ZM139.283 104.909L139.391 102.511L137.369 103.812L136.749 102.733L138.897 101.636L136.749 100.54L137.369 99.4602L139.391 100.761L139.283 98.3636H140.516L140.408 100.761L142.431 99.4602L143.05 100.54L140.903 101.636L143.05 102.733L142.431 103.812L140.408 102.511L140.516 104.909H139.283ZM147.627 104.909L147.735 102.511L145.712 103.812L145.093 102.733L147.241 101.636L145.093 100.54L145.712 99.4602L147.735 100.761L147.627 98.3636H148.86L148.752 100.761L150.775 99.4602L151.394 100.54L149.246 101.636L151.394 102.733L150.775 103.812L148.752 102.511L148.86 104.909H147.627ZM155.971 104.909L156.079 102.511L154.056 103.812L153.437 102.733L155.585 101.636L153.437 100.54L154.056 99.4602L156.079 100.761L155.971 98.3636H157.204L157.096 100.761L159.119 99.4602L159.738 100.54L157.59 101.636L159.738 102.733L159.119 103.812L157.096 102.511L157.204 104.909H155.971ZM164.315 104.909L164.423 102.511L162.4 103.812L161.781 102.733L163.928 101.636L161.781 100.54L162.4 99.4602L164.423 100.761L164.315 98.3636H165.548L165.44 100.761L167.462 99.4602L168.082 100.54L165.934 101.636L168.082 102.733L167.462 103.812L165.44 102.511L165.548 104.909H164.315Z" fill="white"/>
<path d="M182.725 105.139C182.013 105.139 181.383 105.017 180.836 104.771C180.293 104.526 179.867 104.188 179.559 103.757C179.25 103.326 179.098 102.836 179.101 102.286C179.098 101.855 179.186 101.459 179.365 101.097C179.547 100.733 179.794 100.429 180.105 100.188C180.417 99.9422 180.765 99.7865 181.149 99.7202V99.6605C180.642 99.5379 180.236 99.2661 179.931 98.8452C179.626 98.4242 179.476 97.9403 179.479 97.3935C179.476 96.8731 179.613 96.4091 179.892 96.0014C180.173 95.5904 180.559 95.2673 181.05 95.032C181.541 94.7966 182.099 94.679 182.725 94.679C183.345 94.679 183.899 94.7983 184.386 95.0369C184.876 95.2723 185.263 95.5954 185.544 96.0064C185.826 96.4141 185.969 96.8764 185.972 97.3935C185.969 97.9403 185.813 98.4242 185.505 98.8452C185.196 99.2661 184.795 99.5379 184.301 99.6605V99.7202C184.683 99.7865 185.026 99.9422 185.331 100.188C185.639 100.429 185.884 100.733 186.066 101.097C186.252 101.459 186.346 101.855 186.35 102.286C186.346 102.836 186.191 103.326 185.882 103.757C185.574 104.188 185.147 104.526 184.6 104.771C184.056 105.017 183.431 105.139 182.725 105.139ZM182.725 103.881C183.146 103.881 183.511 103.812 183.819 103.673C184.127 103.53 184.366 103.333 184.535 103.081C184.704 102.826 184.79 102.527 184.794 102.186C184.79 101.831 184.697 101.518 184.515 101.246C184.336 100.975 184.093 100.761 183.784 100.605C183.476 100.449 183.123 100.371 182.725 100.371C182.324 100.371 181.968 100.449 181.657 100.605C181.345 100.761 181.1 100.975 180.921 101.246C180.742 101.518 180.654 101.831 180.657 102.186C180.654 102.527 180.735 102.826 180.901 103.081C181.07 103.333 181.31 103.53 181.622 103.673C181.933 103.812 182.301 103.881 182.725 103.881ZM182.725 99.1435C183.063 99.1435 183.363 99.0755 183.625 98.9396C183.887 98.8037 184.093 98.6148 184.242 98.3729C184.394 98.1309 184.472 97.8475 184.475 97.5227C184.472 97.2045 184.396 96.9261 184.247 96.6875C184.101 96.4489 183.897 96.2649 183.635 96.1357C183.373 96.0031 183.07 95.9368 182.725 95.9368C182.374 95.9368 182.066 96.0031 181.801 96.1357C181.539 96.2649 181.335 96.4489 181.189 96.6875C181.043 96.9261 180.972 97.2045 180.975 97.5227C180.972 97.8475 181.045 98.1309 181.194 98.3729C181.343 98.6148 181.549 98.8037 181.811 98.9396C182.076 99.0755 182.381 99.1435 182.725 99.1435ZM187.972 102.345H189.528C189.561 102.66 189.669 102.929 189.851 103.151C190.037 103.369 190.278 103.535 190.577 103.648C190.875 103.76 191.207 103.817 191.571 103.817C191.962 103.817 192.312 103.75 192.62 103.618C192.932 103.485 193.177 103.29 193.356 103.031C193.535 102.773 193.624 102.455 193.624 102.077C193.624 101.739 193.543 101.427 193.381 101.142C193.218 100.857 192.963 100.628 192.615 100.456C192.267 100.284 191.813 100.197 191.253 100.197H190.343V99.0341L192.789 96.2102V96.1357H188.474V94.8182H194.798V95.9318L192.073 99.054V99.1335C192.544 99.1634 192.97 99.2611 193.351 99.4268C193.735 99.5926 194.064 99.8113 194.335 100.083C194.607 100.352 194.816 100.66 194.962 101.008C195.108 101.356 195.18 101.729 195.18 102.126C195.18 102.713 195.025 103.233 194.713 103.688C194.402 104.142 193.972 104.498 193.426 104.756C192.882 105.012 192.259 105.139 191.556 105.139C190.903 105.139 190.312 105.027 189.781 104.801C189.254 104.576 188.828 104.254 188.504 103.837C188.182 103.419 188.005 102.922 187.972 102.345ZM196.876 101.749C196.882 101.417 196.93 101.079 197.02 100.734C197.113 100.39 197.262 100.015 197.467 99.6108C197.673 99.2064 197.948 98.7474 198.293 98.2337L200.604 94.8182H202.225L199.615 98.6364C199.734 98.5999 199.859 98.5701 199.988 98.5469C200.121 98.5204 200.253 98.5071 200.386 98.5071C201.006 98.5071 201.557 98.6496 202.041 98.9347C202.525 99.2197 202.906 99.6091 203.185 100.103C203.466 100.597 203.607 101.164 203.607 101.803C203.607 102.456 203.461 103.033 203.17 103.533C202.881 104.034 202.484 104.427 201.977 104.712C201.473 104.997 200.898 105.139 200.252 105.139C199.612 105.139 199.035 104.998 198.521 104.717C198.011 104.432 197.608 104.036 197.313 103.528C197.018 103.018 196.872 102.425 196.876 101.749ZM198.362 101.808C198.362 102.209 198.442 102.564 198.601 102.872C198.76 103.18 198.982 103.422 199.267 103.598C199.552 103.774 199.88 103.862 200.252 103.862C200.619 103.862 200.944 103.775 201.226 103.603C201.511 103.427 201.733 103.187 201.892 102.882C202.055 102.574 202.136 102.223 202.136 101.828C202.136 101.427 202.055 101.074 201.892 100.769C201.733 100.461 201.511 100.221 201.226 100.048C200.944 99.8759 200.619 99.7898 200.252 99.7898C199.88 99.7898 199.552 99.8759 199.267 100.048C198.982 100.221 198.76 100.459 198.601 100.764C198.442 101.066 198.362 101.414 198.362 101.808ZM208.923 94.8182V105H207.382V96.8913H207.297C207.244 96.9908 207.122 97.0985 206.93 97.2145C206.741 97.3305 206.497 97.4316 206.199 97.5178C205.904 97.6039 205.562 97.647 205.175 97.647V96.3842C205.549 96.3842 205.876 96.3179 206.154 96.1854C206.436 96.0528 206.674 95.8937 206.87 95.7081C207.065 95.5192 207.215 95.3419 207.317 95.1761C207.42 95.0071 207.478 94.8878 207.491 94.8182H208.923Z" fill="white"/>
<path d="M21.258 152V144.727H25.8176V145.672H22.3553V147.888H25.5797V148.829H22.3553V151.055H25.8603V152H21.258ZM28.0469 144.727L29.7869 147.572H29.8438L31.5838 144.727H32.8551L30.5895 148.364L32.8693 152H31.5909L29.8438 149.195H29.7869L28.0398 152H26.7614L29.0803 148.364L26.7756 144.727H28.0469ZM33.9435 152V144.727H36.5359C37.1017 144.727 37.5704 144.83 37.9421 145.036C38.3138 145.242 38.592 145.524 38.7766 145.881C38.9613 146.237 39.0536 146.637 39.0536 147.082C39.0536 147.529 38.9601 147.932 38.7731 148.289C38.5884 148.644 38.3091 148.926 37.935 149.134C37.5633 149.34 37.0958 149.443 36.5323 149.443H34.7496V148.513H36.4329C36.7904 148.513 37.0804 148.451 37.3029 148.328C37.5254 148.203 37.6888 148.032 37.793 147.817C37.8971 147.601 37.9492 147.356 37.9492 147.082C37.9492 146.807 37.8971 146.563 37.793 146.35C37.6888 146.137 37.5243 145.97 37.2994 145.849C37.0768 145.729 36.7833 145.668 36.4187 145.668H35.0408V152H33.9435Z" fill="#5B6B79"/>
<path d="M21.6193 170L25.429 162.466V162.402H21.0227V161.273H26.7926V162.44L22.9957 170H21.6193ZM32.0906 160.864L29.2781 171.312H28.1403L30.9528 160.864H32.0906ZM33.1602 167.724H34.494C34.5224 167.994 34.6147 168.224 34.771 168.415C34.93 168.602 35.1374 168.744 35.3931 168.841C35.6488 168.937 35.9329 168.986 36.2454 168.986C36.5806 168.986 36.8803 168.929 37.1445 168.815C37.4116 168.702 37.6218 168.534 37.7752 168.312C37.9286 168.091 38.0053 167.818 38.0053 167.494C38.0053 167.205 37.9357 166.937 37.7965 166.693C37.6573 166.449 37.4386 166.253 37.1403 166.105C36.842 165.957 36.4528 165.884 35.9727 165.884H35.1928V164.886L37.2894 162.466V162.402H33.5906V161.273H39.011V162.227L36.6758 164.903V164.972C37.0792 164.997 37.4442 165.081 37.771 165.223C38.1005 165.365 38.3817 165.553 38.6147 165.786C38.8477 166.016 39.0266 166.28 39.1516 166.578C39.2766 166.876 39.3391 167.196 39.3391 167.537C39.3391 168.04 39.2056 168.486 38.9386 168.875C38.6715 169.264 38.3036 169.57 37.8349 169.791C37.369 170.01 36.8349 170.119 36.2326 170.119C35.6729 170.119 35.1658 170.023 34.7113 169.83C34.2596 169.636 33.8945 169.361 33.6161 169.003C33.3406 168.645 33.1886 168.219 33.1602 167.724ZM44.1811 170.145C43.5078 170.142 42.9325 169.964 42.4553 169.612C41.978 169.26 41.6129 168.747 41.3601 168.074C41.1072 167.401 40.9808 166.589 40.9808 165.641C40.9808 164.695 41.1072 163.886 41.3601 163.216C41.6158 162.545 41.9822 162.034 42.4595 161.682C42.9396 161.33 43.5135 161.153 44.1811 161.153C44.8487 161.153 45.4212 161.331 45.8984 161.686C46.3757 162.038 46.7408 162.55 46.9936 163.22C47.2493 163.888 47.3771 164.695 47.3771 165.641C47.3771 166.592 47.2507 167.405 46.9979 168.078C46.745 168.749 46.38 169.261 45.9027 169.616C45.4254 169.969 44.8516 170.145 44.1811 170.145ZM44.1811 169.007C44.772 169.007 45.2337 168.719 45.5661 168.142C45.9013 167.565 46.0689 166.732 46.0689 165.641C46.0689 164.916 45.9922 164.304 45.8388 163.804C45.6882 163.301 45.4709 162.92 45.1868 162.662C44.9055 162.401 44.5703 162.27 44.1811 162.27C43.593 162.27 43.1314 162.56 42.7962 163.139C42.4609 163.719 42.2919 164.553 42.2891 165.641C42.2891 166.368 42.3643 166.983 42.5149 167.486C42.6683 167.986 42.8857 168.365 43.1669 168.624C43.4482 168.879 43.7862 169.007 44.1811 169.007Z" fill="white"/>
<path d="M66.1608 147.092H65.0528C65.0102 146.856 64.9309 146.647 64.8149 146.467C64.6989 146.287 64.5568 146.135 64.3888 146.009C64.2207 145.884 64.0325 145.789 63.8241 145.725C63.6182 145.661 63.3992 145.629 63.1672 145.629C62.7481 145.629 62.3729 145.735 62.0415 145.945C61.7124 146.156 61.452 146.465 61.2602 146.872C61.0708 147.279 60.9761 147.777 60.9761 148.364C60.9761 148.955 61.0708 149.455 61.2602 149.862C61.452 150.269 61.7136 150.577 62.045 150.786C62.3765 150.994 62.7493 151.098 63.1636 151.098C63.3933 151.098 63.6111 151.067 63.817 151.006C64.0254 150.942 64.2136 150.848 64.3817 150.725C64.5497 150.602 64.6918 150.452 64.8078 150.274C64.9262 150.094 65.0078 149.888 65.0528 149.656L66.1608 149.66C66.1016 150.017 65.9868 150.346 65.8163 150.647C65.6482 150.945 65.4316 151.203 65.1665 151.421C64.9037 151.637 64.603 151.804 64.2645 151.922C63.9259 152.04 63.5566 152.099 63.1565 152.099C62.5268 152.099 61.9657 151.95 61.4733 151.652C60.9809 151.351 60.5926 150.922 60.3085 150.363C60.0268 149.804 59.8859 149.138 59.8859 148.364C59.8859 147.587 60.028 146.921 60.3121 146.364C60.5961 145.806 60.9844 145.377 61.4768 145.079C61.9693 144.778 62.5291 144.628 63.1565 144.628C63.5424 144.628 63.9023 144.683 64.2361 144.795C64.5722 144.904 64.8741 145.065 65.1416 145.278C65.4091 145.488 65.6305 145.746 65.8057 146.052C65.9809 146.355 66.0992 146.702 66.1608 147.092ZM68.1095 144.727L70.1336 150.651H70.2153L72.2394 144.727H73.4255L70.8083 152H69.5406L66.9234 144.727H68.1095ZM75.1114 144.727L77.1356 150.651H77.2172L79.2414 144.727H80.4275L77.8103 152H76.5425L73.9253 144.727H75.1114Z" fill="#5B6B79"/>
<path d="M59.6903 168.295V167.23L63.108 161.273H64.3949L61.0582 167.111V167.179H66.2401V168.295H59.6903ZM63.8281 170V167.98L63.8452 167.486V164.545H65.0767V170H63.8281ZM70.8434 170.119C70.3093 170.119 69.8292 170.017 69.4031 169.812C68.9798 169.605 68.6417 169.321 68.3888 168.96C68.136 168.599 68.0011 168.188 67.984 167.724H69.2624C69.2937 168.099 69.4599 168.408 69.761 168.649C70.0621 168.891 70.4229 169.011 70.8434 169.011C71.1786 169.011 71.4755 168.935 71.734 168.781C71.9954 168.625 72.1999 168.411 72.3477 168.138C72.4982 167.865 72.5735 167.554 72.5735 167.205C72.5735 166.849 72.4968 166.533 72.3434 166.254C72.19 165.976 71.9783 165.757 71.7085 165.598C71.4414 165.439 71.1346 165.358 70.788 165.355C70.5238 165.355 70.2582 165.401 69.9911 165.491C69.7241 165.582 69.5082 165.702 69.3434 165.849L68.1374 165.67L68.6275 161.273H73.4258V162.402H69.7227L69.4457 164.844H69.4968C69.6673 164.679 69.8931 164.541 70.1744 164.43C70.4585 164.32 70.7624 164.264 71.0863 164.264C71.6175 164.264 72.0906 164.391 72.5053 164.643C72.9229 164.896 73.2511 165.241 73.4897 165.679C73.7312 166.114 73.8505 166.614 73.8477 167.179C73.8505 167.744 73.7227 168.249 73.4641 168.692C73.2085 169.135 72.8533 169.484 72.3988 169.74C71.9471 169.993 71.4286 170.119 70.8434 170.119ZM78.7536 170.119C78.2195 170.119 77.7393 170.017 77.3132 169.812C76.8899 169.605 76.5518 169.321 76.299 168.96C76.0462 168.599 75.9112 168.188 75.8942 167.724H77.1726C77.2038 168.099 77.37 168.408 77.6712 168.649C77.9723 168.891 78.3331 169.011 78.7536 169.011C79.0888 169.011 79.3857 168.935 79.6442 168.781C79.9055 168.625 80.1101 168.411 80.2578 168.138C80.4084 167.865 80.4837 167.554 80.4837 167.205C80.4837 166.849 80.407 166.533 80.2536 166.254C80.1001 165.976 79.8885 165.757 79.6186 165.598C79.3516 165.439 79.0447 165.358 78.6982 165.355C78.4339 165.355 78.1683 165.401 77.9013 165.491C77.6342 165.582 77.4183 165.702 77.2536 165.849L76.0476 165.67L76.5376 161.273H81.3359V162.402H77.6328L77.3558 164.844H77.407C77.5774 164.679 77.8033 164.541 78.0845 164.43C78.3686 164.32 78.6726 164.264 78.9964 164.264C79.5277 164.264 80.0007 164.391 80.4155 164.643C80.8331 164.896 81.1612 165.241 81.3999 165.679C81.6413 166.114 81.7607 166.614 81.7578 167.179C81.7607 167.744 81.6328 168.249 81.3743 168.692C81.1186 169.135 80.7635 169.484 80.3089 169.74C79.8572 169.993 79.3388 170.119 78.7536 170.119Z" fill="white"/>
</mask>
<g mask="url(#mask0_7843_38000)">
<g opacity="0.6">
<mask id="mask1_7843_38000" style="mask-type:alpha" maskUnits="userSpaceOnUse" x="1" y="-1" width="337" height="197">
<path d="M338 16.5686V179.128C338 188.447 329.785 196 319.65 196H19.5646C10.4288 196 2.85227 189.861 1.45044 181.824C1.29547 180.947 1.21442 180.047 1.21442 179.128V16.5686C1.21442 7.24958 9.42992 -0.302979 19.5646 -0.302979H319.65C320.649 -0.302979 321.626 -0.230654 322.58 -0.088194C331.32 1.20271 338 8.16789 338 16.5686Z" fill="url(#paint1_linear_7843_38000)"/>
</mask>
<g mask="url(#mask1_7843_38000)">
<g style="mix-blend-mode:screen" opacity="0.04">
<path d="M157.092 -11.5562C78.449 -11.5562 14.696 47.053 14.696 119.351C14.696 191.649 78.449 250.258 157.092 250.258C235.736 250.258 299.489 191.649 299.489 119.351C299.489 47.053 235.736 -11.5562 157.092 -11.5562ZM157.092 194.455C111.974 194.455 75.397 160.83 75.397 119.351C75.397 77.8727 111.974 44.2472 157.092 44.2472C202.211 44.2472 238.788 77.8727 238.788 119.351C238.788 160.83 202.211 194.455 157.092 194.455Z" fill="white" style="mix-blend-mode:multiply"/>
</g>
<path style="mix-blend-mode:screen" opacity="0.04" d="M287.481 -93.8489C246.826 -93.8489 213.868 -63.55 213.868 -26.1749C213.868 11.2002 246.826 41.4991 287.481 41.4991C328.137 41.4991 361.095 11.2002 361.095 -26.1749C361.095 -63.55 328.137 -93.8489 287.481 -93.8489ZM287.481 12.6507C264.157 12.6507 245.248 -4.73207 245.248 -26.1749C245.248 -47.6177 264.157 -65.0005 287.481 -65.0005C310.806 -65.0005 329.714 -47.6177 329.714 -26.1749C329.714 -4.73207 310.806 12.6507 287.481 12.6507Z" fill="white"/>
<path style="mix-blend-mode:screen" opacity="0.04" d="M16.8514 -38.3411C-23.8038 -38.3411 -56.7619 -8.04217 -56.7619 29.3329C-56.7619 66.708 -23.8038 97.0069 16.8514 97.0069C57.5067 97.0069 90.4648 66.708 90.4648 29.3329C90.4648 -8.04217 57.5067 -38.3411 16.8514 -38.3411ZM16.8514 68.1585C-6.47332 68.1585 -25.3817 50.7757 -25.3817 29.3329C-25.3817 7.89006 -6.47332 -9.49271 16.8514 -9.49271C40.1762 -9.49271 59.0846 7.89006 59.0846 29.3329C59.0846 50.7757 40.1762 68.1585 16.8514 68.1585Z" fill="white"/>
<path style="mix-blend-mode:screen" opacity="0.04" d="M275.372 110.05C222.274 110.05 179.229 149.622 179.229 198.436C179.229 247.25 222.274 286.821 275.372 286.821C328.47 286.821 371.515 247.25 371.515 198.436C371.515 149.622 328.47 110.05 275.372 110.05ZM275.372 249.144C244.909 249.144 220.214 226.441 220.214 198.436C220.214 170.43 244.909 147.728 275.372 147.728C305.835 147.728 330.531 170.43 330.531 198.436C330.531 226.441 305.835 249.144 275.372 249.144Z" fill="white"/>
<path d="M15.1349 156.721C15.4828 156.721 15.7649 156.462 15.7649 156.142C15.7649 155.822 15.4828 155.563 15.1349 155.563C14.787 155.563 14.505 155.822 14.505 156.142C14.505 156.462 14.787 156.721 15.1349 156.721Z" fill="white"/>
<path d="M15.1349 161.46C15.4828 161.46 15.7649 161.2 15.7649 160.881C15.7649 160.561 15.4828 160.302 15.1349 160.302C14.787 160.302 14.505 160.561 14.505 160.881C14.505 161.2 14.787 161.46 15.1349 161.46Z" fill="white"/>
<path d="M15.1349 166.198C15.4828 166.198 15.7649 165.938 15.7649 165.618C15.7649 165.299 15.4828 165.039 15.1349 165.039C14.787 165.039 14.505 165.299 14.505 165.618C14.505 165.938 14.787 166.198 15.1349 166.198Z" fill="white"/>
<path d="M10.1518 156.721C10.4997 156.721 10.7818 156.462 10.7818 156.142C10.7818 155.822 10.4997 155.563 10.1518 155.563C9.80394 155.563 9.52191 155.822 9.52191 156.142C9.52191 156.462 9.80394 156.721 10.1518 156.721Z" fill="white"/>
<path d="M10.1518 161.46C10.4997 161.46 10.7818 161.2 10.7818 160.881C10.7818 160.561 10.4997 160.302 10.1518 160.302C9.80394 160.302 9.52191 160.561 9.52191 160.881C9.52191 161.2 9.80394 161.46 10.1518 161.46Z" fill="white"/>
<path d="M10.1518 166.198C10.4997 166.198 10.7818 165.938 10.7818 165.618C10.7818 165.299 10.4997 165.039 10.1518 165.039C9.80394 165.039 9.52191 165.299 9.52191 165.618C9.52191 165.938 9.80394 166.198 10.1518 166.198Z" fill="white"/>
<path d="M5.17004 156.721C5.51795 156.721 5.79998 156.462 5.79998 156.142C5.79998 155.822 5.51795 155.563 5.17004 155.563C4.82214 155.563 4.5401 155.822 4.5401 156.142C4.5401 156.462 4.82214 156.721 5.17004 156.721Z" fill="white"/>
<path d="M5.17004 161.46C5.51795 161.46 5.79998 161.2 5.79998 160.881C5.79998 160.561 5.51795 160.302 5.17004 160.302C4.82214 160.302 4.5401 160.561 4.5401 160.881C4.5401 161.2 4.82214 161.46 5.17004 161.46Z" fill="white"/>
<path d="M5.17004 166.198C5.51795 166.198 5.79998 165.938 5.79998 165.618C5.79998 165.299 5.51795 165.039 5.17004 165.039C4.82214 165.039 4.5401 165.299 4.5401 165.618C4.5401 165.938 4.82214 166.198 5.17004 166.198Z" fill="white"/>
<path d="M189.478 26.4468C189.826 26.4468 190.108 26.1875 190.108 25.8677C190.108 25.5478 189.826 25.2886 189.478 25.2886C189.131 25.2886 188.849 25.5478 188.849 25.8677C188.849 26.1875 189.131 26.4468 189.478 26.4468Z" fill="white"/>
<path d="M189.478 31.1856C189.826 31.1856 190.108 30.9263 190.108 30.6065C190.108 30.2866 189.826 30.0273 189.478 30.0273C189.131 30.0273 188.849 30.2866 188.849 30.6065C188.849 30.9263 189.131 31.1856 189.478 31.1856Z" fill="white"/>
<path d="M189.478 35.9236C189.826 35.9236 190.108 35.6643 190.108 35.3445C190.108 35.0247 189.826 34.7654 189.478 34.7654C189.131 34.7654 188.849 35.0247 188.849 35.3445C188.849 35.6643 189.131 35.9236 189.478 35.9236Z" fill="white"/>
<path d="M184.496 26.4468C184.844 26.4468 185.126 26.1875 185.126 25.8677C185.126 25.5478 184.844 25.2886 184.496 25.2886C184.148 25.2886 183.866 25.5478 183.866 25.8677C183.866 26.1875 184.148 26.4468 184.496 26.4468Z" fill="white"/>
<path d="M184.496 31.1856C184.844 31.1856 185.126 30.9263 185.126 30.6065C185.126 30.2866 184.844 30.0273 184.496 30.0273C184.148 30.0273 183.866 30.2866 183.866 30.6065C183.866 30.9263 184.148 31.1856 184.496 31.1856Z" fill="white"/>
<path d="M184.496 35.9236C184.844 35.9236 185.126 35.6643 185.126 35.3445C185.126 35.0247 184.844 34.7654 184.496 34.7654C184.148 34.7654 183.866 35.0247 183.866 35.3445C183.866 35.6643 184.148 35.9236 184.496 35.9236Z" fill="white"/>
<path d="M179.515 26.4468C179.863 26.4468 180.145 26.1875 180.145 25.8677C180.145 25.5478 179.863 25.2886 179.515 25.2886C179.168 25.2886 178.886 25.5478 178.886 25.8677C178.886 26.1875 179.168 26.4468 179.515 26.4468Z" fill="white"/>
<path d="M179.515 31.1856C179.863 31.1856 180.145 30.9263 180.145 30.6065C180.145 30.2866 179.863 30.0273 179.515 30.0273C179.168 30.0273 178.886 30.2866 178.886 30.6065C178.886 30.9263 179.168 31.1856 179.515 31.1856Z" fill="white"/>
<path d="M179.515 35.9236C179.863 35.9236 180.145 35.6643 180.145 35.3445C180.145 35.0247 179.863 34.7654 179.515 34.7654C179.168 34.7654 178.886 35.0247 178.886 35.3445C178.886 35.6643 179.168 35.9236 179.515 35.9236Z" fill="white"/>
<path d="M174.532 26.4468C174.88 26.4468 175.162 26.1875 175.162 25.8677C175.162 25.5478 174.88 25.2886 174.532 25.2886C174.184 25.2886 173.902 25.5478 173.902 25.8677C173.902 26.1875 174.184 26.4468 174.532 26.4468Z" fill="white"/>
<path d="M174.532 31.1856C174.88 31.1856 175.162 30.9263 175.162 30.6065C175.162 30.2866 174.88 30.0273 174.532 30.0273C174.184 30.0273 173.902 30.2866 173.902 30.6065C173.902 30.9263 174.184 31.1856 174.532 31.1856Z" fill="white"/>
<path d="M174.532 35.9236C174.88 35.9236 175.162 35.6643 175.162 35.3445C175.162 35.0247 174.88 34.7654 174.532 34.7654C174.184 34.7654 173.902 35.0247 173.902 35.3445C173.902 35.6643 174.184 35.9236 174.532 35.9236Z" fill="white"/>
<path d="M169.551 26.4468C169.899 26.4468 170.181 26.1875 170.181 25.8677C170.181 25.5478 169.899 25.2886 169.551 25.2886C169.203 25.2886 168.921 25.5478 168.921 25.8677C168.921 26.1875 169.203 26.4468 169.551 26.4468Z" fill="white"/>
<path d="M169.551 31.1856C169.899 31.1856 170.181 30.9263 170.181 30.6065C170.181 30.2866 169.899 30.0273 169.551 30.0273C169.203 30.0273 168.921 30.2866 168.921 30.6065C168.921 30.9263 169.203 31.1856 169.551 31.1856Z" fill="white"/>
<path d="M169.551 35.9236C169.899 35.9236 170.181 35.6643 170.181 35.3445C170.181 35.0247 169.899 34.7654 169.551 34.7654C169.203 34.7654 168.921 35.0247 168.921 35.3445C168.921 35.6643 169.203 35.9236 169.551 35.9236Z" fill="white"/>
<path d="M164.567 26.4468C164.915 26.4468 165.197 26.1875 165.197 25.8677C165.197 25.5478 164.915 25.2886 164.567 25.2886C164.219 25.2886 163.937 25.5478 163.937 25.8677C163.937 26.1875 164.219 26.4468 164.567 26.4468Z" fill="white"/>
<path d="M164.567 31.1856C164.915 31.1856 165.197 30.9263 165.197 30.6065C165.197 30.2866 164.915 30.0273 164.567 30.0273C164.219 30.0273 163.937 30.2866 163.937 30.6065C163.937 30.9263 164.219 31.1856 164.567 31.1856Z" fill="white"/>
<path d="M164.567 35.9236C164.915 35.9236 165.197 35.6643 165.197 35.3445C165.197 35.0247 164.915 34.7654 164.567 34.7654C164.219 34.7654 163.937 35.0247 163.937 35.3445C163.937 35.6643 164.219 35.9236 164.567 35.9236Z" fill="white"/>
<path d="M159.585 26.4468C159.933 26.4468 160.215 26.1875 160.215 25.8677C160.215 25.5478 159.933 25.2886 159.585 25.2886C159.237 25.2886 158.955 25.5478 158.955 25.8677C158.955 26.1875 159.237 26.4468 159.585 26.4468Z" fill="white"/>
<path d="M159.585 31.1856C159.933 31.1856 160.215 30.9263 160.215 30.6065C160.215 30.2866 159.933 30.0273 159.585 30.0273C159.237 30.0273 158.955 30.2866 158.955 30.6065C158.955 30.9263 159.237 31.1856 159.585 31.1856Z" fill="white"/>
<path d="M159.585 35.9236C159.933 35.9236 160.215 35.6643 160.215 35.3445C160.215 35.0247 159.933 34.7654 159.585 34.7654C159.237 34.7654 158.955 35.0247 158.955 35.3445C158.955 35.6643 159.237 35.9236 159.585 35.9236Z" fill="white"/>
<path d="M154.603 26.4468C154.951 26.4468 155.233 26.1875 155.233 25.8677C155.233 25.5478 154.951 25.2886 154.603 25.2886C154.255 25.2886 153.973 25.5478 153.973 25.8677C153.973 26.1875 154.255 26.4468 154.603 26.4468Z" fill="white"/>
<path d="M154.603 31.1856C154.951 31.1856 155.233 30.9263 155.233 30.6065C155.233 30.2866 154.951 30.0273 154.603 30.0273C154.255 30.0273 153.973 30.2866 153.973 30.6065C153.973 30.9263 154.255 31.1856 154.603 31.1856Z" fill="white"/>
<path d="M154.603 35.9236C154.951 35.9236 155.233 35.6643 155.233 35.3445C155.233 35.0247 154.951 34.7654 154.603 34.7654C154.255 34.7654 153.973 35.0247 153.973 35.3445C153.973 35.6643 154.255 35.9236 154.603 35.9236Z" fill="white"/>
<path d="M149.623 26.4468C149.971 26.4468 150.253 26.1875 150.253 25.8677C150.253 25.5478 149.971 25.2886 149.623 25.2886C149.275 25.2886 148.993 25.5478 148.993 25.8677C148.993 26.1875 149.275 26.4468 149.623 26.4468Z" fill="white"/>
<path d="M149.623 31.1856C149.971 31.1856 150.253 30.9263 150.253 30.6065C150.253 30.2866 149.971 30.0273 149.623 30.0273C149.275 30.0273 148.993 30.2866 148.993 30.6065C148.993 30.9263 149.275 31.1856 149.623 31.1856Z" fill="white"/>
<path d="M149.623 35.9236C149.971 35.9236 150.253 35.6643 150.253 35.3445C150.253 35.0247 149.971 34.7654 149.623 34.7654C149.275 34.7654 148.993 35.0247 148.993 35.3445C148.993 35.6643 149.275 35.9236 149.623 35.9236Z" fill="white"/>
<path d="M144.639 26.4468C144.987 26.4468 145.269 26.1875 145.269 25.8677C145.269 25.5478 144.987 25.2886 144.639 25.2886C144.291 25.2886 144.009 25.5478 144.009 25.8677C144.009 26.1875 144.291 26.4468 144.639 26.4468Z" fill="white"/>
<path d="M144.639 31.1856C144.987 31.1856 145.269 30.9263 145.269 30.6065C145.269 30.2866 144.987 30.0273 144.639 30.0273C144.291 30.0273 144.009 30.2866 144.009 30.6065C144.009 30.9263 144.291 31.1856 144.639 31.1856Z" fill="white"/>
<path d="M144.639 35.9236C144.987 35.9236 145.269 35.6643 145.269 35.3445C145.269 35.0247 144.987 34.7654 144.639 34.7654C144.291 34.7654 144.009 35.0247 144.009 35.3445C144.009 35.6643 144.291 35.9236 144.639 35.9236Z" fill="white"/>
<path d="M139.658 26.4468C140.006 26.4468 140.288 26.1875 140.288 25.8677C140.288 25.5478 140.006 25.2886 139.658 25.2886C139.311 25.2886 139.029 25.5478 139.029 25.8677C139.029 26.1875 139.311 26.4468 139.658 26.4468Z" fill="white"/>
<path d="M139.658 31.1856C140.006 31.1856 140.288 30.9263 140.288 30.6065C140.288 30.2866 140.006 30.0273 139.658 30.0273C139.311 30.0273 139.029 30.2866 139.029 30.6065C139.029 30.9263 139.311 31.1856 139.658 31.1856Z" fill="white"/>
<path d="M139.658 35.9236C140.006 35.9236 140.288 35.6643 140.288 35.3445C140.288 35.0247 140.006 34.7654 139.658 34.7654C139.311 34.7654 139.029 35.0247 139.029 35.3445C139.029 35.6643 139.311 35.9236 139.658 35.9236Z" fill="white"/>
<path d="M134.674 26.4468C135.022 26.4468 135.304 26.1875 135.304 25.8677C135.304 25.5478 135.022 25.2886 134.674 25.2886C134.326 25.2886 134.044 25.5478 134.044 25.8677C134.044 26.1875 134.326 26.4468 134.674 26.4468Z" fill="white"/>
<path d="M134.674 31.1856C135.022 31.1856 135.304 30.9263 135.304 30.6065C135.304 30.2866 135.022 30.0273 134.674 30.0273C134.326 30.0273 134.044 30.2866 134.044 30.6065C134.044 30.9263 134.326 31.1856 134.674 31.1856Z" fill="white"/>
<path d="M134.674 35.9236C135.022 35.9236 135.304 35.6643 135.304 35.3445C135.304 35.0247 135.022 34.7654 134.674 34.7654C134.326 34.7654 134.044 35.0247 134.044 35.3445C134.044 35.6643 134.326 35.9236 134.674 35.9236Z" fill="white"/>
<path d="M129.693 26.4468C130.041 26.4468 130.323 26.1875 130.323 25.8677C130.323 25.5478 130.041 25.2886 129.693 25.2886C129.345 25.2886 129.063 25.5478 129.063 25.8677C129.063 26.1875 129.345 26.4468 129.693 26.4468Z" fill="white"/>
<path d="M129.693 31.1856C130.041 31.1856 130.323 30.9263 130.323 30.6065C130.323 30.2866 130.041 30.0273 129.693 30.0273C129.345 30.0273 129.063 30.2866 129.063 30.6065C129.063 30.9263 129.345 31.1856 129.693 31.1856Z" fill="white"/>
<path d="M129.693 35.9236C130.041 35.9236 130.323 35.6643 130.323 35.3445C130.323 35.0247 130.041 34.7654 129.693 34.7654C129.345 34.7654 129.063 35.0247 129.063 35.3445C129.063 35.6643 129.345 35.9236 129.693 35.9236Z" fill="white"/>
<path d="M124.71 26.4468C125.058 26.4468 125.34 26.1875 125.34 25.8677C125.34 25.5478 125.058 25.2886 124.71 25.2886C124.362 25.2886 124.08 25.5478 124.08 25.8677C124.08 26.1875 124.362 26.4468 124.71 26.4468Z" fill="white"/>
<path d="M124.71 31.1856C125.058 31.1856 125.34 30.9263 125.34 30.6065C125.34 30.2866 125.058 30.0273 124.71 30.0273C124.362 30.0273 124.08 30.2866 124.08 30.6065C124.08 30.9263 124.362 31.1856 124.71 31.1856Z" fill="white"/>
<path d="M124.71 35.9236C125.058 35.9236 125.34 35.6643 125.34 35.3445C125.34 35.0247 125.058 34.7654 124.71 34.7654C124.362 34.7654 124.08 35.0247 124.08 35.3445C124.08 35.6643 124.362 35.9236 124.71 35.9236Z" fill="white"/>
<path d="M315.186 126.375C315.242 126.06 315.009 125.762 314.665 125.711C314.322 125.66 313.998 125.874 313.942 126.19C313.887 126.506 314.12 126.803 314.463 126.854C314.807 126.906 315.13 126.691 315.186 126.375Z" fill="white"/>
<path d="M310.032 126.375C310.088 126.06 309.855 125.762 309.511 125.711C309.168 125.66 308.844 125.874 308.788 126.19C308.733 126.506 308.966 126.803 309.309 126.854C309.653 126.906 309.976 126.691 310.032 126.375Z" fill="white"/>
<path d="M304.878 126.375C304.934 126.059 304.701 125.762 304.357 125.71C304.014 125.659 303.69 125.874 303.634 126.189C303.579 126.505 303.812 126.803 304.155 126.854C304.499 126.905 304.822 126.691 304.878 126.375Z" fill="white"/>
<path d="M314.551 122.272C314.899 122.272 315.181 122.013 315.181 121.693C315.181 121.373 314.899 121.114 314.551 121.114C314.203 121.114 313.921 121.373 313.921 121.693C313.921 122.013 314.203 122.272 314.551 122.272Z" fill="white"/>
<path d="M309.394 122.272C309.742 122.272 310.024 122.013 310.024 121.693C310.024 121.373 309.742 121.114 309.394 121.114C309.046 121.114 308.764 121.373 308.764 121.693C308.764 122.013 309.046 122.272 309.394 122.272Z" fill="white"/>
<path d="M304.241 122.272C304.589 122.272 304.871 122.013 304.871 121.693C304.871 121.373 304.589 121.114 304.241 121.114C303.893 121.114 303.611 121.373 303.611 121.693C303.611 122.013 303.893 122.272 304.241 122.272Z" fill="white"/>
<path d="M314.551 117.691C314.899 117.691 315.181 117.432 315.181 117.112C315.181 116.792 314.899 116.533 314.551 116.533C314.203 116.533 313.921 116.792 313.921 117.112C313.921 117.432 314.203 117.691 314.551 117.691Z" fill="white"/>
<path d="M309.394 117.691C309.742 117.691 310.024 117.432 310.024 117.112C310.024 116.792 309.742 116.533 309.394 116.533C309.046 116.533 308.764 116.792 308.764 117.112C308.764 117.432 309.046 117.691 309.394 117.691Z" fill="white"/>
<path d="M304.241 117.691C304.589 117.691 304.871 117.432 304.871 117.112C304.871 116.792 304.589 116.533 304.241 116.533C303.893 116.533 303.611 116.792 303.611 117.112C303.611 117.432 303.893 117.691 304.241 117.691Z" fill="white"/>
<path d="M314.551 113.111C314.899 113.111 315.181 112.852 315.181 112.532C315.181 112.212 314.899 111.953 314.551 111.953C314.203 111.953 313.921 112.212 313.921 112.532C313.921 112.852 314.203 113.111 314.551 113.111Z" fill="white"/>
<path d="M309.394 113.111C309.742 113.111 310.024 112.852 310.024 112.532C310.024 112.212 309.742 111.953 309.394 111.953C309.046 111.953 308.764 112.212 308.764 112.532C308.764 112.852 309.046 113.111 309.394 113.111Z" fill="white"/>
<path d="M304.241 113.111C304.589 113.111 304.871 112.852 304.871 112.532C304.871 112.212 304.589 111.953 304.241 111.953C303.893 111.953 303.611 112.212 303.611 112.532C303.611 112.852 303.893 113.111 304.241 113.111Z" fill="white"/>
<path d="M314.551 108.532C314.899 108.532 315.181 108.272 315.181 107.952C315.181 107.633 314.899 107.373 314.551 107.373C314.203 107.373 313.921 107.633 313.921 107.952C313.921 108.272 314.203 108.532 314.551 108.532Z" fill="white"/>
<path d="M309.394 108.532C309.742 108.532 310.024 108.272 310.024 107.952C310.024 107.633 309.742 107.373 309.394 107.373C309.046 107.373 308.764 107.633 308.764 107.952C308.764 108.272 309.046 108.532 309.394 108.532Z" fill="white"/>
<path d="M304.241 108.532C304.589 108.532 304.871 108.272 304.871 107.952C304.871 107.633 304.589 107.373 304.241 107.373C303.893 107.373 303.611 107.633 303.611 107.952C303.611 108.272 303.893 108.532 304.241 108.532Z" fill="white"/>
<path d="M314.551 103.951C314.899 103.951 315.181 103.692 315.181 103.372C315.181 103.052 314.899 102.793 314.551 102.793C314.203 102.793 313.921 103.052 313.921 103.372C313.921 103.692 314.203 103.951 314.551 103.951Z" fill="white"/>
<path d="M309.394 103.951C309.742 103.951 310.024 103.692 310.024 103.372C310.024 103.052 309.742 102.793 309.394 102.793C309.046 102.793 308.764 103.052 308.764 103.372C308.764 103.692 309.046 103.951 309.394 103.951Z" fill="white"/>
<path d="M304.241 103.951C304.589 103.951 304.871 103.692 304.871 103.372C304.871 103.052 304.589 102.793 304.241 102.793C303.893 102.793 303.611 103.052 303.611 103.372C303.611 103.692 303.893 103.951 304.241 103.951Z" fill="white"/>
<path d="M314.551 99.3706C314.899 99.3706 315.181 99.1113 315.181 98.7915C315.181 98.4717 314.899 98.2124 314.551 98.2124C314.203 98.2124 313.921 98.4717 313.921 98.7915C313.921 99.1113 314.203 99.3706 314.551 99.3706Z" fill="white"/>
<path d="M309.394 99.3706C309.742 99.3706 310.024 99.1113 310.024 98.7915C310.024 98.4717 309.742 98.2124 309.394 98.2124C309.046 98.2124 308.764 98.4717 308.764 98.7915C308.764 99.1113 309.046 99.3706 309.394 99.3706Z" fill="white"/>
<path d="M304.241 99.3706C304.589 99.3706 304.871 99.1113 304.871 98.7915C304.871 98.4717 304.589 98.2124 304.241 98.2124C303.893 98.2124 303.611 98.4717 303.611 98.7915C303.611 99.1113 303.893 99.3706 304.241 99.3706Z" fill="white"/>
<path d="M314.551 94.7901C314.899 94.7901 315.181 94.5308 315.181 94.2109C315.181 93.8911 314.899 93.6318 314.551 93.6318C314.203 93.6318 313.921 93.8911 313.921 94.2109C313.921 94.5308 314.203 94.7901 314.551 94.7901Z" fill="white"/>
<path d="M309.394 94.7901C309.742 94.7901 310.024 94.5308 310.024 94.2109C310.024 93.8911 309.742 93.6318 309.394 93.6318C309.046 93.6318 308.764 93.8911 308.764 94.2109C308.764 94.5308 309.046 94.7901 309.394 94.7901Z" fill="white"/>
<path d="M304.241 94.7901C304.589 94.7901 304.871 94.5308 304.871 94.2109C304.871 93.8911 304.589 93.6318 304.241 93.6318C303.893 93.6318 303.611 93.8911 303.611 94.2109C303.611 94.5308 303.893 94.7901 304.241 94.7901Z" fill="white"/>
<path d="M314.551 90.2105C314.899 90.2105 315.181 89.9512 315.181 89.6314C315.181 89.3115 314.899 89.0522 314.551 89.0522C314.203 89.0522 313.921 89.3115 313.921 89.6314C313.921 89.9512 314.203 90.2105 314.551 90.2105Z" fill="white"/>
<path d="M309.394 90.2105C309.742 90.2105 310.024 89.9512 310.024 89.6314C310.024 89.3115 309.742 89.0522 309.394 89.0522C309.046 89.0522 308.764 89.3115 308.764 89.6314C308.764 89.9512 309.046 90.2105 309.394 90.2105Z" fill="white"/>
<path d="M304.241 90.2105C304.589 90.2105 304.871 89.9512 304.871 89.6314C304.871 89.3115 304.589 89.0522 304.241 89.0522C303.893 89.0522 303.611 89.3115 303.611 89.6314C303.611 89.9512 303.893 90.2105 304.241 90.2105Z" fill="white"/>
<path d="M314.551 85.6297C314.899 85.6297 315.181 85.3704 315.181 85.0505C315.181 84.7307 314.899 84.4714 314.551 84.4714C314.203 84.4714 313.921 84.7307 313.921 85.0505C313.921 85.3704 314.203 85.6297 314.551 85.6297Z" fill="white"/>
<path d="M309.394 85.6297C309.742 85.6297 310.024 85.3704 310.024 85.0505C310.024 84.7307 309.742 84.4714 309.394 84.4714C309.046 84.4714 308.764 84.7307 308.764 85.0505C308.764 85.3704 309.046 85.6297 309.394 85.6297Z" fill="white"/>
<path d="M304.241 85.6297C304.589 85.6297 304.871 85.3704 304.871 85.0505C304.871 84.7307 304.589 84.4714 304.241 84.4714C303.893 84.4714 303.611 84.7307 303.611 85.0505C303.611 85.3704 303.893 85.6297 304.241 85.6297Z" fill="white"/>
<path d="M314.551 81.0496C314.899 81.0496 315.181 80.7903 315.181 80.4705C315.181 80.1506 314.899 79.8914 314.551 79.8914C314.203 79.8914 313.921 80.1506 313.921 80.4705C313.921 80.7903 314.203 81.0496 314.551 81.0496Z" fill="white"/>
<path d="M309.394 81.0496C309.742 81.0496 310.024 80.7903 310.024 80.4705C310.024 80.1506 309.742 79.8914 309.394 79.8914C309.046 79.8914 308.764 80.1506 308.764 80.4705C308.764 80.7903 309.046 81.0496 309.394 81.0496Z" fill="white"/>
<path d="M304.241 81.0496C304.589 81.0496 304.871 80.7903 304.871 80.4705C304.871 80.1506 304.589 79.8914 304.241 79.8914C303.893 79.8914 303.611 80.1506 303.611 80.4705C303.611 80.7903 303.893 81.0496 304.241 81.0496Z" fill="white"/>
<path d="M314.551 76.4695C314.899 76.4695 315.181 76.2102 315.181 75.8904C315.181 75.5706 314.899 75.3113 314.551 75.3113C314.203 75.3113 313.921 75.5706 313.921 75.8904C313.921 76.2102 314.203 76.4695 314.551 76.4695Z" fill="white"/>
<path d="M309.394 76.4695C309.742 76.4695 310.024 76.2102 310.024 75.8904C310.024 75.5706 309.742 75.3113 309.394 75.3113C309.046 75.3113 308.764 75.5706 308.764 75.8904C308.764 76.2102 309.046 76.4695 309.394 76.4695Z" fill="white"/>
<path d="M304.241 76.4695C304.589 76.4695 304.871 76.2102 304.871 75.8904C304.871 75.5706 304.589 75.3113 304.241 75.3113C303.893 75.3113 303.611 75.5706 303.611 75.8904C303.611 76.2102 303.893 76.4695 304.241 76.4695Z" fill="white"/>
<path d="M314.551 71.8892C314.899 71.8892 315.181 71.6299 315.181 71.3101C315.181 70.9902 314.899 70.731 314.551 70.731C314.203 70.731 313.921 70.9902 313.921 71.3101C313.921 71.6299 314.203 71.8892 314.551 71.8892Z" fill="white"/>
<path d="M309.394 71.8892C309.742 71.8892 310.024 71.6299 310.024 71.3101C310.024 70.9902 309.742 70.731 309.394 70.731C309.046 70.731 308.764 70.9902 308.764 71.3101C308.764 71.6299 309.046 71.8892 309.394 71.8892Z" fill="white"/>
<path d="M304.241 71.8892C304.589 71.8892 304.871 71.6299 304.871 71.3101C304.871 70.9902 304.589 70.731 304.241 70.731C303.893 70.731 303.611 70.9902 303.611 71.3101C303.611 71.6299 303.893 71.8892 304.241 71.8892Z" fill="white"/>
<path d="M314.79 67.2654C315.112 67.143 315.265 66.8043 315.131 66.5088C314.998 66.2133 314.63 66.073 314.308 66.1954C313.987 66.3178 313.834 66.6565 313.967 66.952C314.101 67.2475 314.469 67.3878 314.79 67.2654Z" fill="white"/>
<path d="M309.636 67.2649C309.957 67.1426 310.11 66.8038 309.977 66.5083C309.844 66.2128 309.475 66.0725 309.154 66.1949C308.832 66.3173 308.68 66.656 308.813 66.9515C308.946 67.247 309.314 67.3873 309.636 67.2649Z" fill="white"/>
<path d="M304.482 67.2649C304.804 67.1426 304.956 66.8038 304.823 66.5083C304.69 66.2128 304.322 66.0725 304 66.1949C303.679 66.3173 303.526 66.656 303.659 66.9515C303.793 67.247 304.161 67.3873 304.482 67.2649Z" fill="white"/>
</g>
</g>
</g>
<defs>
<radialGradient id="paint0_radial_7843_38000" cx="0" cy="0" r="1" gradientUnits="userSpaceOnUse" gradientTransform="translate(169) rotate(90) scale(196 196)">
<stop stop-color="#444242"/>
<stop offset="1" stop-color="#1E1E1E"/>
</radialGradient>
<linearGradient id="paint1_linear_7843_38000" x1="43.3126" y1="-19.6535" x2="322.803" y2="222.564" gradientUnits="userSpaceOnUse">
<stop stop-color="#2D80C4"/>
<stop offset="1" stop-color="#C42DBE"/>
</linearGradient>
</defs>
</svg>
