<svg width="156" height="148" viewBox="0 0 156 148" fill="none" xmlns="http://www.w3.org/2000/svg">
<path opacity="0.2" d="M189.902 -61H63.9674L1 42.8098L63.9674 146.61H189.902L252.86 42.8098L189.902 -61Z" stroke="url(#paint0_linear_1309_125508)" stroke-miterlimit="10"/>
<path opacity="0.3" d="M72.8708 -56.879L13.907 40.2888L72.8708 137.554H190.809L249.783 40.3373L190.809 -56.879H72.8708Z" stroke="url(#paint1_linear_1309_125508)" stroke-miterlimit="10"/>
<path opacity="0.4" d="M81.785 -52.758L26.8146 37.7774L81.785 128.497H191.726L246.707 37.8647L191.726 -52.758H81.785Z" stroke="url(#paint2_linear_1309_125508)" stroke-miterlimit="10"/>
<path opacity="0.4" d="M90.6987 -48.6371L39.7217 35.266L90.6987 119.441H192.643L243.62 35.4018L192.643 -48.6371H90.6987Z" stroke="url(#paint3_linear_1309_125508)" stroke-miterlimit="10"/>
<path opacity="0.5" d="M99.6022 -44.5258L52.6288 32.7547L99.6022 110.375H193.559L240.543 32.9292L193.559 -44.5258H99.6022Z" stroke="url(#paint4_linear_1309_125508)" stroke-miterlimit="10"/>
<path opacity="0.6" d="M108.517 -40.4048L65.5366 30.2433L108.517 101.318H194.477L237.457 30.4566L194.477 -40.4048H108.517Z" stroke="url(#paint5_linear_1309_125508)" stroke-miterlimit="10"/>
<path opacity="0.7" d="M117.42 -36.2838L78.4435 27.7222L117.42 92.2616H195.393L234.38 27.984L195.393 -36.2838H117.42Z" stroke="url(#paint6_linear_1309_125508)" stroke-miterlimit="10"/>
<path opacity="0.8" d="M126.334 -32.1629L91.3506 25.2109L126.334 83.1954H196.31L231.293 25.5211L196.31 -32.1629H126.334Z" stroke="url(#paint7_linear_1309_125508)" stroke-miterlimit="10"/>
<path d="M135.248 -28.0419L104.258 22.6995L135.248 74.139H197.227L228.217 23.0486L197.227 -28.0419H135.248Z" stroke="url(#paint8_linear_1309_125508)" stroke-miterlimit="10"/>
<path d="M144.151 -23.9209L117.165 20.1881L144.151 65.0825H198.144L225.14 20.576L198.144 -23.9209H144.151Z" stroke="url(#paint9_linear_1309_125508)" stroke-miterlimit="10"/>
<path d="M153.065 -19.7999L130.062 17.667L153.065 56.0164H199.061L222.053 18.1131L199.061 -19.7999H153.065Z" stroke="url(#paint10_linear_1309_125508)" stroke-miterlimit="10"/>
<path d="M161.979 -15.6886L142.97 15.1557L161.979 46.9599H199.978L218.977 15.6405L199.978 -15.6886H161.979Z" stroke="url(#paint11_linear_1309_125508)" stroke-miterlimit="10"/>
<path d="M170.883 -11.5677L155.877 12.6443L170.883 37.9035H200.895L215.89 13.1679L200.895 -11.5677H170.883Z" stroke="url(#paint12_linear_1309_125508)" stroke-miterlimit="10"/>
<defs>
<linearGradient id="paint0_linear_1309_125508" x1="126.93" y1="-61" x2="126.93" y2="146.61" gradientUnits="userSpaceOnUse">
<stop stop-color="#017EEE"/>
<stop offset="0.273958" stop-color="#B4E5FC"/>
<stop offset="0.544792" stop-color="#11DF9E"/>
<stop offset="0.789583" stop-color="#B4E5FC"/>
<stop offset="1" stop-color="#7267EF"/>
</linearGradient>
<linearGradient id="paint1_linear_1309_125508" x1="131.845" y1="-56.879" x2="131.845" y2="137.554" gradientUnits="userSpaceOnUse">
<stop stop-color="#017EEE"/>
<stop offset="0.273958" stop-color="#B4E5FC"/>
<stop offset="0.544792" stop-color="#11DF9E"/>
<stop offset="0.789583" stop-color="#B4E5FC"/>
<stop offset="1" stop-color="#7267EF"/>
</linearGradient>
<linearGradient id="paint2_linear_1309_125508" x1="136.761" y1="-52.758" x2="136.761" y2="128.497" gradientUnits="userSpaceOnUse">
<stop stop-color="#017EEE"/>
<stop offset="0.273958" stop-color="#B4E5FC"/>
<stop offset="0.544792" stop-color="#11DF9E"/>
<stop offset="0.789583" stop-color="#B4E5FC"/>
<stop offset="1" stop-color="#7267EF"/>
</linearGradient>
<linearGradient id="paint3_linear_1309_125508" x1="141.671" y1="-48.6371" x2="141.671" y2="119.441" gradientUnits="userSpaceOnUse">
<stop stop-color="#017EEE"/>
<stop offset="0.273958" stop-color="#B4E5FC"/>
<stop offset="0.544792" stop-color="#11DF9E"/>
<stop offset="0.789583" stop-color="#B4E5FC"/>
<stop offset="1" stop-color="#7267EF"/>
</linearGradient>
<linearGradient id="paint4_linear_1309_125508" x1="146.586" y1="-44.5258" x2="146.586" y2="110.374" gradientUnits="userSpaceOnUse">
<stop stop-color="#017EEE"/>
<stop offset="0.273958" stop-color="#B4E5FC"/>
<stop offset="0.544792" stop-color="#11DF9E"/>
<stop offset="0.789583" stop-color="#B4E5FC"/>
<stop offset="1" stop-color="#7267EF"/>
</linearGradient>
<linearGradient id="paint5_linear_1309_125508" x1="151.497" y1="-40.4048" x2="151.497" y2="101.318" gradientUnits="userSpaceOnUse">
<stop stop-color="#017EEE"/>
<stop offset="0.273958" stop-color="#B4E5FC"/>
<stop offset="0.544792" stop-color="#11DF9E"/>
<stop offset="0.789583" stop-color="#B4E5FC"/>
<stop offset="1" stop-color="#7267EF"/>
</linearGradient>
<linearGradient id="paint6_linear_1309_125508" x1="156.412" y1="-36.2838" x2="156.412" y2="92.2616" gradientUnits="userSpaceOnUse">
<stop stop-color="#017EEE"/>
<stop offset="0.273958" stop-color="#B4E5FC"/>
<stop offset="0.544792" stop-color="#11DF9E"/>
<stop offset="0.789583" stop-color="#B4E5FC"/>
<stop offset="1" stop-color="#7267EF"/>
</linearGradient>
<linearGradient id="paint7_linear_1309_125508" x1="161.322" y1="-32.1629" x2="161.322" y2="83.1954" gradientUnits="userSpaceOnUse">
<stop stop-color="#017EEE"/>
<stop offset="0.273958" stop-color="#B4E5FC"/>
<stop offset="0.544792" stop-color="#11DF9E"/>
<stop offset="0.789583" stop-color="#B4E5FC"/>
<stop offset="1" stop-color="#7267EF"/>
</linearGradient>
<linearGradient id="paint8_linear_1309_125508" x1="166.237" y1="-28.0419" x2="166.237" y2="74.139" gradientUnits="userSpaceOnUse">
<stop stop-color="#017EEE"/>
<stop offset="0.273958" stop-color="#B4E5FC"/>
<stop offset="0.544792" stop-color="#11DF9E"/>
<stop offset="0.789583" stop-color="#B4E5FC"/>
<stop offset="1" stop-color="#7267EF"/>
</linearGradient>
<linearGradient id="paint9_linear_1309_125508" x1="171.152" y1="-23.9209" x2="171.152" y2="65.0825" gradientUnits="userSpaceOnUse">
<stop stop-color="#017EEE"/>
<stop offset="0.273958" stop-color="#B4E5FC"/>
<stop offset="0.544792" stop-color="#11DF9E"/>
<stop offset="0.789583" stop-color="#B4E5FC"/>
<stop offset="1" stop-color="#7267EF"/>
</linearGradient>
<linearGradient id="paint10_linear_1309_125508" x1="176.058" y1="-19.7999" x2="176.058" y2="56.0164" gradientUnits="userSpaceOnUse">
<stop stop-color="#017EEE"/>
<stop offset="0.273958" stop-color="#B4E5FC"/>
<stop offset="0.544792" stop-color="#11DF9E"/>
<stop offset="0.789583" stop-color="#B4E5FC"/>
<stop offset="1" stop-color="#7267EF"/>
</linearGradient>
<linearGradient id="paint11_linear_1309_125508" x1="180.973" y1="-15.6886" x2="180.973" y2="46.9599" gradientUnits="userSpaceOnUse">
<stop stop-color="#017EEE"/>
<stop offset="0.273958" stop-color="#B4E5FC"/>
<stop offset="0.544792" stop-color="#11DF9E"/>
<stop offset="0.789583" stop-color="#B4E5FC"/>
<stop offset="1" stop-color="#7267EF"/>
</linearGradient>
<linearGradient id="paint12_linear_1309_125508" x1="185.884" y1="-11.5677" x2="185.884" y2="37.9035" gradientUnits="userSpaceOnUse">
<stop stop-color="#017EEE"/>
<stop offset="0.273958" stop-color="#B4E5FC"/>
<stop offset="0.544792" stop-color="#11DF9E"/>
<stop offset="0.789583" stop-color="#B4E5FC"/>
<stop offset="1" stop-color="#7267EF"/>
</linearGradient>
</defs>
</svg>
