<svg width="63" height="134" viewBox="0 0 63 134" fill="none" xmlns="http://www.w3.org/2000/svg">
<mask id="mask0_1920_120297" style="mask-type:alpha" maskUnits="userSpaceOnUse" x="0" y="0" width="63" height="134">
<rect width="63" height="134" fill="#D9D9D9"/>
</mask>
<g mask="url(#mask0_1920_120297)">
<g opacity="0.2">
<path d="M302.518 129.915C318.958 113.968 304.856 84.4742 271.025 64.0487L267.621 61.9938C233.79 41.5683 193.028 37.937 176.588 53.8842L148.472 81.158C131.421 97.6988 89.1579 93.9338 54.0676 72.748C18.9774 51.5622 4.35626 20.9833 21.4078 4.44252L47.8698 -21.227C64.3094 -37.1741 50.2074 -66.6675 16.3764 -87.093C-17.4545 -107.518 -58.2171 -111.15 -74.6567 -95.2026L-100.016 -70.6027C-117.068 -54.0619 -159.331 -57.8269 -194.421 -79.0127C-229.511 -100.198 -244.132 -130.777 -227.081 -147.318L-203.926 -169.779C-187.487 -185.726 -201.589 -215.219 -235.42 -235.645C-269.251 -256.07 -310.013 -259.702 -326.453 -243.755" stroke="url(#paint0_linear_1920_120297)" stroke-miterlimit="10"/>
<path d="M301.075 136.395C317.514 120.447 303.412 90.9542 269.581 70.5287L266.178 68.4738C232.347 48.0483 191.584 44.417 175.144 60.3641L147.028 87.638C129.977 104.179 87.714 100.414 52.6238 79.228C17.5335 58.0422 2.91241 27.4633 19.9639 10.9225L46.426 -14.747C62.8656 -30.6942 48.7635 -60.1875 14.9326 -80.613C-18.8984 -101.038 -59.661 -104.67 -76.1006 -88.7226L-101.46 -64.1227C-118.512 -47.5819 -160.775 -51.3469 -195.865 -72.5327C-230.955 -93.7185 -245.576 -124.297 -228.525 -140.838L-205.37 -163.299C-188.931 -179.246 -203.033 -208.739 -236.864 -229.165C-270.695 -249.59 -311.457 -253.222 -327.897 -237.275" stroke="url(#paint1_linear_1920_120297)" stroke-miterlimit="10"/>
<path d="M299.632 142.887C316.071 126.94 301.969 97.4462 268.138 77.0207L264.735 74.9658C230.904 54.5404 190.141 50.909 173.702 66.8562L145.586 94.13C128.534 110.671 86.2711 106.906 51.1809 85.72C16.0907 64.5342 1.46954 33.9553 18.521 17.4146L44.9831 -8.25493C61.4227 -24.2021 47.3206 -53.6954 13.4897 -74.1209C-20.3412 -94.5464 -61.1039 -98.1777 -77.5434 -82.2306L-102.903 -57.6306C-119.954 -41.0899 -162.217 -44.8548 -197.308 -66.0406C-232.398 -87.2264 -247.019 -117.805 -229.967 -134.346L-206.813 -156.807C-190.374 -172.754 -204.476 -202.247 -238.307 -222.673C-272.138 -243.098 -312.9 -246.73 -329.34 -230.783" stroke="url(#paint2_linear_1920_120297)" stroke-miterlimit="10"/>
<path d="M298.188 149.365C314.627 133.418 300.525 103.924 266.694 83.4989L263.291 81.444C229.46 61.0185 188.697 57.3872 172.258 73.3344L144.142 100.608C127.09 117.149 84.8274 113.384 49.7372 92.1982C14.6469 71.0124 0.0258156 40.4335 17.0773 23.8927L43.5394 -1.77678C59.979 -17.724 45.8769 -47.2173 12.046 -67.6428C-21.785 -88.0683 -62.5476 -91.6996 -78.9871 -75.7524L-104.347 -51.1525C-121.398 -34.6117 -163.661 -38.3767 -198.751 -59.5625C-233.842 -80.7483 -248.463 -111.327 -231.411 -127.868L-208.257 -150.329C-191.817 -166.276 -205.919 -195.769 -239.75 -216.195C-273.581 -236.62 -314.344 -240.252 -330.783 -224.304" stroke="url(#paint3_linear_1920_120297)" stroke-miterlimit="10"/>
<path d="M296.745 155.858C313.185 139.91 299.083 110.417 265.252 89.9916L261.848 87.9367C228.017 67.5112 187.255 63.8799 170.815 79.827L142.699 107.101C125.648 123.642 83.3847 119.877 48.2944 98.6909C13.2042 77.5051 -1.41693 46.9262 15.6346 30.3854L42.0967 4.7159C58.5362 -11.2313 44.4342 -40.7246 10.6032 -61.1501C-23.2277 -81.5756 -63.9903 -85.2069 -80.4299 -69.2597L-105.789 -44.6598C-122.841 -28.119 -165.104 -31.884 -200.194 -53.0698C-235.284 -74.2556 -249.905 -104.835 -232.854 -121.375L-209.7 -143.836C-193.26 -159.783 -207.362 -189.277 -241.193 -209.702C-275.024 -230.128 -315.787 -233.759 -332.226 -217.812" stroke="url(#paint4_linear_1920_120297)" stroke-miterlimit="10"/>
<path d="M295.301 162.336C311.741 146.389 297.639 116.896 263.808 96.4704L260.404 94.4156C226.573 73.9901 185.811 70.3587 169.371 86.3059L141.255 113.58C124.204 130.121 81.9407 126.356 46.8505 105.17C11.7602 83.9839 -2.8609 53.405 14.1906 36.8643L40.6527 11.1948C57.0923 -4.75239 42.9902 -34.2457 9.15925 -54.6712C-24.6717 -75.0967 -65.4343 -78.728 -81.8739 -62.7809L-107.233 -38.1809C-124.285 -21.6402 -166.548 -25.4051 -201.638 -46.5909C-236.728 -67.7767 -251.349 -98.3556 -234.298 -114.896L-211.144 -137.357C-194.704 -153.304 -208.806 -182.798 -242.637 -203.223C-276.468 -223.649 -317.231 -227.28 -333.67 -211.333" stroke="url(#paint5_linear_1920_120297)" stroke-miterlimit="10"/>
<path d="M293.859 168.828C310.298 152.881 296.196 123.388 262.365 102.962L258.962 100.908C225.131 80.4821 184.368 76.8508 167.929 92.798L139.813 120.072C122.761 136.613 80.4981 132.848 45.4078 111.662C10.3176 90.476 -4.30353 59.8971 12.748 43.3563L39.2101 17.6868C55.6496 1.73967 41.5476 -27.7537 7.71663 -48.1792C-26.1143 -68.6046 -66.8769 -72.236 -83.3165 -56.2888L-108.676 -31.6889C-125.727 -15.1481 -167.99 -18.9131 -203.081 -40.0989C-238.171 -61.2847 -252.792 -91.8636 -235.741 -108.404L-212.586 -130.865C-196.147 -146.812 -210.249 -176.306 -244.08 -196.731C-277.911 -217.157 -318.673 -220.788 -335.113 -204.841" stroke="url(#paint6_linear_1920_120297)" stroke-miterlimit="10"/>
<path d="M292.415 175.308C308.854 159.361 294.752 129.868 260.921 109.442L257.518 107.387C223.687 86.9619 182.924 83.3305 166.485 99.2777L138.369 126.552C121.317 143.092 79.0541 139.327 43.9639 118.142C8.87362 96.9557 -5.7475 66.3768 11.304 49.8361L37.7661 24.1666C54.2057 8.21941 40.1036 -21.2739 6.27266 -41.6994C-27.5583 -62.1249 -68.3209 -65.7562 -84.7605 -49.8091L-110.12 -25.2091C-127.171 -8.66835 -169.434 -12.4333 -204.525 -33.6191C-239.615 -54.8049 -254.236 -85.3838 -237.185 -101.925L-214.03 -124.385C-197.591 -140.333 -211.693 -169.826 -245.524 -190.251C-279.355 -210.677 -320.117 -214.308 -336.557 -198.361" stroke="url(#paint7_linear_1920_120297)" stroke-miterlimit="10"/>
<path d="M290.972 181.799C307.411 165.852 293.309 136.359 259.478 115.933L256.075 113.878C222.244 93.4529 181.481 89.8216 165.042 105.769L136.926 133.043C119.874 149.583 77.6114 145.818 42.5211 124.633C7.43087 103.447 -7.19025 72.8679 9.86126 56.3272L36.3233 30.6577C52.7629 14.7105 38.6608 -14.7828 4.82991 -35.2083C-29.001 -55.6338 -69.7636 -59.2651 -86.2032 -43.318L-111.563 -18.718C-128.614 -2.17726 -170.877 -5.94224 -205.967 -27.128C-241.058 -48.3138 -255.679 -78.8927 -238.627 -95.4335L-215.473 -117.894C-199.033 -133.841 -213.135 -163.335 -246.966 -183.76C-280.797 -204.186 -321.56 -207.817 -338 -191.87" stroke="url(#paint8_linear_1920_120297)" stroke-miterlimit="10"/>
<path d="M289.528 188.279C305.967 172.332 291.865 142.838 258.034 122.413L254.631 120.358C220.8 99.9323 180.037 96.301 163.598 112.248L135.482 139.522C118.43 156.063 76.1673 152.298 41.077 131.112C5.98678 109.926 -8.63434 79.3473 8.41716 62.8065L34.8792 37.137C51.3188 21.1899 37.2168 -8.30346 3.38582 -28.729C-30.4451 -49.1545 -71.2077 -52.7858 -87.6473 -36.8386L-113.007 -12.2387C-130.058 4.30211 -172.321 0.53713 -207.412 -20.6487C-242.502 -41.8345 -257.123 -72.4134 -240.071 -88.9541L-216.917 -111.415C-200.477 -127.362 -214.58 -156.855 -248.41 -177.281C-282.241 -197.706 -323.004 -201.338 -339.444 -185.391" stroke="url(#paint9_linear_1920_120297)" stroke-miterlimit="10"/>
</g>
</g>
<defs>
<linearGradient id="paint0_linear_1920_120297" x1="273.277" y1="158.28" x2="347.668" y2="-133.8" gradientUnits="userSpaceOnUse">
<stop offset="0.0604165" stop-color="#6E45BA"/>
<stop offset="0.289583" stop-color="#AD95D9"/>
<stop offset="0.51875" stop-color="#6E45BA"/>
<stop offset="0.742708" stop-color="#C4B4E4"/>
<stop offset="1" stop-color="#6E45BA"/>
</linearGradient>
<linearGradient id="paint1_linear_1920_120297" x1="271.833" y1="164.76" x2="346.224" y2="-127.32" gradientUnits="userSpaceOnUse">
<stop offset="0.0604165" stop-color="#6E45BA"/>
<stop offset="0.289583" stop-color="#AD95D9"/>
<stop offset="0.51875" stop-color="#6E45BA"/>
<stop offset="0.742708" stop-color="#C4B4E4"/>
<stop offset="1" stop-color="#6E45BA"/>
</linearGradient>
<linearGradient id="paint2_linear_1920_120297" x1="270.391" y1="171.252" x2="344.782" y2="-120.828" gradientUnits="userSpaceOnUse">
<stop offset="0.0604165" stop-color="#6E45BA"/>
<stop offset="0.289583" stop-color="#AD95D9"/>
<stop offset="0.51875" stop-color="#6E45BA"/>
<stop offset="0.742708" stop-color="#C4B4E4"/>
<stop offset="1" stop-color="#6E45BA"/>
</linearGradient>
<linearGradient id="paint3_linear_1920_120297" x1="268.947" y1="177.73" x2="343.338" y2="-114.35" gradientUnits="userSpaceOnUse">
<stop offset="0.0604165" stop-color="#6E45BA"/>
<stop offset="0.289583" stop-color="#AD95D9"/>
<stop offset="0.51875" stop-color="#6E45BA"/>
<stop offset="0.742708" stop-color="#C4B4E4"/>
<stop offset="1" stop-color="#6E45BA"/>
</linearGradient>
<linearGradient id="paint4_linear_1920_120297" x1="267.504" y1="184.223" x2="341.895" y2="-107.857" gradientUnits="userSpaceOnUse">
<stop offset="0.0604165" stop-color="#6E45BA"/>
<stop offset="0.289583" stop-color="#AD95D9"/>
<stop offset="0.51875" stop-color="#6E45BA"/>
<stop offset="0.742708" stop-color="#C4B4E4"/>
<stop offset="1" stop-color="#6E45BA"/>
</linearGradient>
<linearGradient id="paint5_linear_1920_120297" x1="266.06" y1="190.702" x2="340.451" y2="-101.378" gradientUnits="userSpaceOnUse">
<stop offset="0.0604165" stop-color="#6E45BA"/>
<stop offset="0.289583" stop-color="#AD95D9"/>
<stop offset="0.51875" stop-color="#6E45BA"/>
<stop offset="0.742708" stop-color="#C4B4E4"/>
<stop offset="1" stop-color="#6E45BA"/>
</linearGradient>
<linearGradient id="paint6_linear_1920_120297" x1="264.617" y1="197.194" x2="339.009" y2="-94.886" gradientUnits="userSpaceOnUse">
<stop offset="0.0604165" stop-color="#6E45BA"/>
<stop offset="0.289583" stop-color="#AD95D9"/>
<stop offset="0.51875" stop-color="#6E45BA"/>
<stop offset="0.742708" stop-color="#C4B4E4"/>
<stop offset="1" stop-color="#6E45BA"/>
</linearGradient>
<linearGradient id="paint7_linear_1920_120297" x1="263.174" y1="203.673" x2="337.565" y2="-88.4063" gradientUnits="userSpaceOnUse">
<stop offset="0.0604165" stop-color="#6E45BA"/>
<stop offset="0.289583" stop-color="#AD95D9"/>
<stop offset="0.51875" stop-color="#6E45BA"/>
<stop offset="0.742708" stop-color="#C4B4E4"/>
<stop offset="1" stop-color="#6E45BA"/>
</linearGradient>
<linearGradient id="paint8_linear_1920_120297" x1="261.731" y1="210.165" x2="336.122" y2="-81.9152" gradientUnits="userSpaceOnUse">
<stop offset="0.0604165" stop-color="#6E45BA"/>
<stop offset="0.289583" stop-color="#AD95D9"/>
<stop offset="0.51875" stop-color="#6E45BA"/>
<stop offset="0.742708" stop-color="#C4B4E4"/>
<stop offset="1" stop-color="#6E45BA"/>
</linearGradient>
<linearGradient id="paint9_linear_1920_120297" x1="260.287" y1="216.644" x2="334.678" y2="-75.4358" gradientUnits="userSpaceOnUse">
<stop offset="0.0604165" stop-color="#6E45BA"/>
<stop offset="0.289583" stop-color="#AD95D9"/>
<stop offset="0.51875" stop-color="#6E45BA"/>
<stop offset="0.742708" stop-color="#C4B4E4"/>
<stop offset="1" stop-color="#6E45BA"/>
</linearGradient>
</defs>
</svg>
