<svg width="493" height="256" viewBox="0 0 493 256" fill="none" xmlns="http://www.w3.org/2000/svg">
<path d="M485.998 51.6579L372.131 10.7982C372.131 10.7982 394.643 196.331 215.722 205.507C215.727 205.507 434.034 232.333 485.998 51.6579Z" fill="url(#paint0_linear_1541_119222)"/>
<path d="M0 71.1826C0 71.1826 129.006 267.96 435.867 216.94L377.138 0L0 71.1826Z" fill="url(#paint1_linear_1541_119222)"/>
<path opacity="0.49" d="M200.101 239.636C200.101 239.636 359.103 201.051 361.802 28.6948L144.372 38.1548L200.101 239.636Z" fill="url(#paint2_linear_1541_119222)"/>
<path opacity="0.5" d="M167.195 255.066L167.084 254.778C271.792 223.265 319.922 164.595 341.857 120.926C365.625 73.6136 364.619 33.2397 364.605 32.8389L364.951 32.8308C364.965 33.2356 365.971 73.6743 342.176 121.051C328.2 148.877 308.53 173.613 283.706 194.582C252.681 220.784 213.479 241.137 167.195 255.066Z" fill="white"/>
<path opacity="0.5" d="M269.201 202.063C265.196 202.063 261.135 201.982 257.001 201.812C229.985 200.703 205.055 195.797 182.898 187.228C165.171 180.37 149.174 171.17 135.345 159.876C111.8 140.648 102.608 121.761 102.516 121.574L102.834 121.457C102.927 121.643 112.095 140.482 135.595 159.665C157.281 177.371 195.947 199.003 257.019 201.509C322.318 204.196 371.472 184.884 401.215 168.215C439.373 146.833 461.378 121.485 468.627 106.277L468.945 106.395C461.678 121.643 439.627 147.048 401.399 168.47C373.498 184.107 328.524 202.063 269.201 202.063Z" fill="white"/>
<path opacity="0.5" d="M118.862 246.314C104.485 246.314 89.6321 245.638 74.2902 244.278L74.3271 243.975C166.471 252.135 241.367 235.725 296.921 195.201C340.838 163.166 364.107 121.715 375.896 92.5824C388.672 61.0127 391.085 36.7049 391.108 36.462L391.455 36.4863C391.431 36.7292 389.014 61.0653 376.228 92.6714C368.716 111.235 359.156 128.637 347.8 144.392C333.607 164.089 316.568 181.26 297.147 195.428C250.766 229.264 190.926 246.314 118.862 246.314Z" fill="white"/>
<defs>
<linearGradient id="paint0_linear_1541_119222" x1="347.998" y1="125.44" x2="447.516" y2="269.747" gradientUnits="userSpaceOnUse">
<stop stop-color="#EFEFEF" stop-opacity="0"/>
<stop offset="0.9946" stop-color="#B6A2DD"/>
</linearGradient>
<linearGradient id="paint1_linear_1541_119222" x1="211.047" y1="171.28" x2="191.924" y2="269.468" gradientUnits="userSpaceOnUse">
<stop offset="0.0161" stop-color="white" stop-opacity="0"/>
<stop offset="0.0521" stop-color="white" stop-opacity="0.0368"/>
<stop offset="0.9946" stop-color="white"/>
</linearGradient>
<linearGradient id="paint2_linear_1541_119222" x1="261.078" y1="124.896" x2="340.123" y2="175.348" gradientUnits="userSpaceOnUse">
<stop offset="0.0161" stop-color="white" stop-opacity="0"/>
<stop offset="0.0162" stop-color="white" stop-opacity="0.0368"/>
<stop offset="0.9946" stop-color="white"/>
</linearGradient>
</defs>
</svg>
