<svg width="129" height="56" viewBox="0 0 129 56" fill="none" xmlns="http://www.w3.org/2000/svg">
<rect x="-0.5" y="-0.5" width="55" height="35" rx="0.5" transform="matrix(3.12544e-08 -1 -1 -6.11333e-08 35 55)" fill="#EDF3FF" stroke="#04A9F5" stroke-dasharray="1 1"/>
<rect width="5.18519" height="28" transform="matrix(3.12544e-08 -1 -1 -6.11333e-08 32 8.3335)" fill="#04A9F5"/>
<rect width="5.18519" height="28" transform="matrix(3.12544e-08 -1 -1 -6.11333e-08 32 27.0371)" fill="#04A9F5"/>
<rect width="4" height="28" transform="matrix(3.12544e-08 -1 -1 -6.11333e-08 32 42)" fill="#04A9F5"/>
<rect x="32" y="9.37061" width="1.03704" height="28" transform="rotate(90 32 9.37061)" fill="#90B3FF"/>
<rect x="32" y="28.0742" width="1.03704" height="28" transform="rotate(90 32 28.0742)" fill="#90B3FF"/>
<rect x="32" y="11.4443" width="1.03704" height="28" transform="rotate(90 32 11.4443)" fill="#90B3FF"/>
<rect x="32" y="30.1479" width="1.03704" height="28" transform="rotate(90 32 30.1479)" fill="#90B3FF"/>
<rect width="1.03704" height="28" transform="matrix(3.12544e-08 -1 -1 -6.11333e-08 32 14.5557)" fill="#90B3FF"/>
<rect width="1.03704" height="28" transform="matrix(3.12544e-08 -1 -1 -6.11333e-08 32 33.2593)" fill="#90B3FF"/>
<rect width="1.03704" height="28" transform="matrix(3.12544e-08 -1 -1 -6.11333e-08 32 18.7036)" fill="#90B3FF"/>
<rect x="32" y="15.5928" width="1.03704" height="28" transform="rotate(90 32 15.5928)" fill="#90B3FF"/>
<rect x="32" y="34.2964" width="1.03704" height="28" transform="rotate(90 32 34.2964)" fill="#90B3FF"/>
<rect x="32" y="19.7407" width="1.03704" height="28" transform="rotate(90 32 19.7407)" fill="#90B3FF"/>
<rect x="32" y="43.5186" width="1.03704" height="28" transform="rotate(90 32 43.5186)" fill="#90B3FF"/>
<rect x="32" y="45.5557" width="1.03704" height="28" transform="rotate(90 32 45.5557)" fill="#90B3FF"/>
<rect x="32" y="47.5928" width="1.03704" height="28" transform="rotate(90 32 47.5928)" fill="#90B3FF"/>
<rect x="32" y="49.6299" width="1.03704" height="28" transform="rotate(90 32 49.6299)" fill="#90B3FF"/>
<rect x="32" y="51.667" width="1.03704" height="28" transform="rotate(90 32 51.667)" fill="#90B3FF"/>
<rect x="-0.5" y="-0.5" width="42" height="87" rx="0.5" transform="matrix(3.12544e-08 -1 -1 -6.11333e-08 128 55)" fill="#EDF3FF" stroke="#90B3FF" stroke-dasharray="1 1"/>
<rect x="-0.5" y="-0.5" width="8.99999" height="87" rx="0.5" transform="matrix(3.12544e-08 -1 -1 -6.11333e-08 128 9)" fill="#EDF3FF" stroke="#90B3FF" stroke-dasharray="1 1"/>
</svg>
