<svg width="119" height="69" viewBox="0 0 119 69" fill="none" xmlns="http://www.w3.org/2000/svg">
<rect x="9.5" y="0.5" width="68" height="9" rx="0.5" transform="rotate(90 9.5 0.5)" fill="#DAE6FF" stroke="#04A9F5" stroke-dasharray="2 2"/>
<rect x="118.5" y="3.5" width="26" height="91" rx="3.5" transform="rotate(90 118.5 3.5)" fill="#DAE6FF" stroke="#04A9F5" stroke-dasharray="2 2"/>
<path d="M34.0005 22.78C34.1271 22.78 34.2538 22.7333 34.3538 22.6333L38.7005 18.2867C39.4071 17.58 39.4071 16.42 38.7005 15.7133L34.3538 11.3667C34.1605 11.1733 33.8405 11.1733 33.6471 11.3667C33.4538 11.56 33.4538 11.88 33.6471 12.0733L37.9938 16.42C38.3138 16.74 38.3138 17.26 37.9938 17.58L33.6471 21.9267C33.4538 22.12 33.4538 22.44 33.6471 22.6333C33.7471 22.7267 33.8738 22.78 34.0005 22.78Z" fill="#F44236"/>
<line x1="103" y1="17.5" x2="43" y2="17.5" stroke="#F44236" stroke-dasharray="2 2"/>
<path d="M112 11.22C111.873 11.22 111.746 11.2667 111.646 11.3667L107.3 15.7133C106.593 16.42 106.593 17.58 107.3 18.2867L111.646 22.6333C111.84 22.8267 112.16 22.8267 112.353 22.6333C112.546 22.44 112.546 22.12 112.353 21.9267L108.006 17.58C107.686 17.26 107.686 16.74 108.006 16.42L112.353 12.0733C112.546 11.88 112.546 11.56 112.353 11.3667C112.253 11.2733 112.126 11.22 112 11.22Z" fill="#F44236"/>
<rect x="-0.5" y="-0.5" width="11" height="91" rx="0.5" transform="matrix(3.2412e-08 -1 -1 -5.895e-08 118 62)" fill="#DAE6FF" stroke="#04A9F5" stroke-dasharray="2 2"/>
</svg>
