<svg width="96" height="96" viewBox="0 0 96 96" fill="none" xmlns="http://www.w3.org/2000/svg">
<path d="M96 48C96 74.5095 74.5095 96 48.0002 96C21.4901 96 0 74.5095 0 48C0 21.4905 21.4905 0 48.0002 0C74.5095 0 96 21.4905 96 48Z" fill="white"/>
<path fill-rule="evenodd" clip-rule="evenodd" d="M95.9108 50.6368L95.9108 50.6361L95.9107 50.6355L95.9107 50.6348L95.9107 50.6341L95.9107 50.6332L95.9106 50.6323C95.9051 50.4866 95.8994 50.3389 95.895 50.1887L95.8892 49.3756C92.685 50.6391 90.1116 49.3319 87.4907 48.0005C85.5553 47.0174 83.594 46.0211 81.3337 46.0372C80.7946 45.4164 80.5683 44.6857 80.3395 43.9473L80.3394 43.947C80.2768 43.7449 80.2141 43.5423 80.1446 43.3412C82.8621 42.4646 85.16 43.7575 87.4081 45.0224C90.1267 46.5521 92.7727 48.0408 96 45.6019C95.536 38.3024 93.9835 31.4455 90.6093 25.3345C87.0817 18.3601 80.5818 11.4896 73.7866 7.32105C66.7888 2.3669 57.3813 -0.0757651 48.072 0.00178999C40.3579 0.065773 32.7088 1.85923 26.552 5.3783C11.3493 13.1076 2.18805 28.8145 1 45.0613L1.42876 45.926C4.63776 47.6426 7.2123 46.2757 9.83978 44.8806C11.892 43.791 13.9765 42.6842 16.4208 43.0161C17.2164 43.3817 16.9021 43.904 16.5747 44.448C16.3855 44.7623 16.192 45.0839 16.2056 45.3867C15.9162 46.1043 15.1492 46.121 14.3826 46.1377C13.9979 46.1461 13.6133 46.1545 13.2893 46.2514C12.4393 46.6198 11.5842 47.0651 10.7191 47.5157L10.719 47.5157C7.70375 49.0861 4.56735 50.7196 1.10436 49.3759C1.1296 49.6465 1.15168 49.9173 1.1706 50.1883H1.16381C1.25719 51.4134 1.42941 53.5856 1.42941 53.5856C4.12406 54.4401 6.30508 53.3168 8.48099 52.1962C10.341 51.2382 12.1973 50.2822 14.3675 50.5651C14.3583 50.6513 14.3495 50.738 14.3406 50.8249C14.2421 51.7885 14.1404 52.7832 13.6146 53.4747C11.5903 53.5772 9.92165 54.5256 8.25256 55.4741C6.36458 56.5471 4.47607 57.6204 2.07174 57.4701L2.93539 60.9194C4.89347 61.1178 6.50258 60.21 8.1119 59.3021C9.7211 58.3942 11.3305 57.4863 13.2893 57.684L13.1862 60.2686C11.4895 60.4271 10.0887 61.2893 8.68903 62.151C7.24073 63.0425 5.79361 63.9333 4.02102 64.0429C4.29805 68.7971 6.37296 67.4515 8.74279 65.9146C10.3504 64.8721 12.0936 63.7416 13.5035 64.3674C13.5471 64.6298 13.6244 64.8891 13.7018 65.1483C13.8784 65.7403 14.0549 66.3318 13.8288 66.96C12.1322 66.9367 10.8172 67.8239 9.50213 68.7111C8.64361 69.2902 7.78508 69.8694 6.82039 70.1953C6.90536 70.3938 6.98483 70.6091 7.06621 70.8296L7.06623 70.8296L7.06627 70.8297C7.39706 71.726 7.7595 72.7081 8.65175 72.9944C9.34727 72.7069 9.99872 72.3121 10.65 71.9175C11.9524 71.1284 13.254 70.3396 14.9061 70.4092C14.6195 69.4734 14.3678 68.2144 14.4776 67.3884C16.8552 68.0166 18.4661 66.7506 20.0666 65.4928L20.0668 65.4927L20.0669 65.4926L20.067 65.4925L20.0671 65.4925L20.0671 65.4924L20.0672 65.4924L20.0677 65.4919C20.5706 65.0968 21.0724 64.7024 21.5966 64.368C21.9412 61.3269 23.5068 58.7821 25.071 56.2396C25.7832 55.082 26.4951 53.9248 27.0913 52.7215C27.2952 51.8723 27.3633 51.0295 27.3501 50.188C27.3161 48.5533 26.95 46.9375 26.5831 45.3188C25.9006 42.3069 25.2158 39.2847 26.6635 36.1108C27.3475 34.2055 28.5346 31.6957 30.5479 31.1547C26.8451 35.5779 27.5297 42.3323 29.4697 47.3298C29.8622 48.3464 30.0021 49.291 29.9643 50.1883C29.863 52.5959 28.4564 54.6536 27.0557 56.7029C26.1616 58.0109 25.2698 59.3155 24.7213 60.7055C22.964 64.2662 24.5743 68.3307 26.5527 71.2746C26.0468 71.6656 25.5477 72.0759 25.0481 72.4865C22.7447 74.38 20.4306 76.2823 17.3878 76.3412C16.6944 76.0028 16.4466 75.2545 16.1985 74.5052C16.0745 74.1306 15.9503 73.7557 15.7704 73.4316C13.94 73.0687 12.4126 74.0657 10.9324 75.0319C10.641 75.2221 10.3514 75.4111 10.0618 75.5883L12.1077 78.1728C12.4245 78.0219 12.7511 77.8349 13.0853 77.6434C14.343 76.9231 15.7086 76.1408 17.0702 76.992C18.5707 78.7673 17.4484 78.9745 16.1372 79.2165C15.2175 79.3863 14.2049 79.5733 13.939 80.3305C14.5784 81.1969 15.338 81.8629 16.1328 82.5596C16.2285 82.6435 16.3246 82.7277 16.4211 82.8129C16.7674 82.7049 17.0902 82.5411 17.4133 82.3772C18.061 82.0486 18.7098 81.7195 19.5513 81.8376C19.6207 81.922 19.6915 82.0063 19.7624 82.091L19.7625 82.091L19.7625 82.091L19.7625 82.0911L19.7626 82.0911L19.7626 82.0912C20.2056 82.6195 20.6577 83.1587 20.8438 83.7797L18.9009 84.9686C20.3035 86.4066 22.0667 87.7741 23.753 88.4249C24.2975 86.5979 25.3336 84.9937 26.37 83.3891C27.253 82.022 28.1361 80.6547 28.7155 79.149C28.8199 78.6272 28.8929 78.0613 28.9656 77.4983L28.9656 77.4982C29.068 76.7041 29.1697 75.9156 29.3579 75.2642C31.4904 78.5806 29.7397 81.1031 27.9332 83.7062C26.6654 85.533 25.3701 87.3994 25.3701 89.6077C26.1328 90.2972 27.0574 90.6882 27.9572 91.0687L28.0661 91.1148C27.9734 88.4236 29.3838 86.3512 30.797 84.2746C31.5917 83.1067 32.3874 81.9375 32.9172 80.6562C34.746 76.8296 32.4764 73.9782 30.2081 71.1283C29.1305 69.7745 28.0532 68.421 27.4157 66.9635C25.5462 62.8618 28.1721 59.0109 30.7614 55.9594C32.564 54.0118 33.0319 52.1069 32.8729 50.1906C32.7369 48.5442 32.1375 46.8952 31.5279 45.2181C30.531 42.4758 29.5067 39.6582 30.4364 36.653C31.2997 33.6329 32.5908 30.0347 35.7162 28.7793C33.4509 31.4013 32.2648 34.4579 32.0529 37.9447C31.7001 40.5974 32.735 42.7976 33.7521 44.96C34.5516 46.6597 35.3401 48.3361 35.4351 50.1906C35.4755 51.0311 35.3747 51.9072 35.0729 52.8346C34.4431 54.1976 33.5284 55.4401 32.6148 56.6813C30.9737 58.9107 29.336 61.1357 29.3575 64.0461C29.1287 66.9607 30.8751 68.993 32.6197 71.0233C34.4449 73.1473 36.2682 75.2691 35.8261 78.3967C35.7945 80.7919 34.5388 82.7049 33.2888 84.6092C31.7625 86.9345 30.2447 89.2467 30.975 92.4077L34.3204 93.4932C33.2458 89.8432 34.9163 87.106 36.5832 84.3747C37.8713 82.2642 39.1572 80.1573 39.1728 77.6354C39.3624 74.7662 37.6345 72.7028 35.9052 70.6376C34.6869 69.1827 33.4679 67.727 32.9178 65.9879C31.6633 62.2492 33.9857 59.178 36.1617 56.3004C36.4135 55.9673 36.6634 55.6369 36.9056 55.3083C38.0539 53.5209 38.3234 51.8357 38.1392 50.1903C37.9328 48.3927 37.1776 46.6457 36.4111 44.8722C35.439 42.6234 34.4486 40.332 34.5353 37.8409C34.4616 33.7438 36.2568 29.7164 39.8154 27.8121C39.6008 28.1201 39.3803 28.4255 39.1598 28.7306L39.1598 28.7307L39.1597 28.7308L39.1596 28.7309L39.1595 28.731L39.1594 28.7311L39.1594 28.7312L39.1593 28.7313L39.1592 28.7314L39.1592 28.7315C38.2762 29.9537 37.3954 31.1729 36.9056 32.5533C35.1905 37.1997 37.0075 41.3354 38.7724 45.3525C39.3023 46.5586 39.8275 47.7541 40.251 48.9494C40.3867 49.3533 40.4857 49.7686 40.547 50.1903C40.9478 52.9805 39.4532 55.1836 37.9494 57.4003C36.8677 58.9946 35.7813 60.5961 35.3918 62.4282C34.6297 65.6486 36.4244 67.8149 38.2383 70.0043C39.421 71.4318 40.6118 72.8692 41.1072 74.615C42.49 78.3171 40.8687 81.2276 39.236 84.1587C37.6839 86.945 36.1215 89.7499 37.1195 93.2708C37.0943 94.759 38.3058 94.799 39.4903 94.8381C39.9955 94.8548 40.4959 94.8713 40.8933 95C38.6134 90.7947 40.5315 87.1066 42.4151 83.4845C43.2039 81.9677 43.9867 80.4625 44.4526 78.9358C45.6715 75.1071 43.5254 72.4298 41.3595 69.7279C40.3923 68.5214 39.4212 67.31 38.744 65.9889C37.2561 62.8796 38.9151 60.5337 40.5875 58.1689C41.5054 56.8709 42.4273 55.5672 42.8352 54.1285C43.4639 52.3271 44.7358 52.778 45.9938 53.2239C46.67 53.4636 47.3422 53.7019 47.9082 53.5882C48.8271 53.7564 49.6947 53.4745 50.5277 53.2039C51.6833 52.8285 52.7723 52.4747 53.8388 53.3746C54.2366 55.0034 55.2945 56.3555 56.3505 57.7052C57.6713 59.3932 58.989 61.0774 59.0078 63.2939C58.9456 65.9699 57.2325 68.094 55.541 70.1913C53.3269 72.9367 51.1497 75.6363 52.7603 79.468C53.1374 80.2285 53.5576 81.0068 53.9859 81.8001C56.2101 85.9201 58.6532 90.4455 56.4236 95L59.762 94.2461C61.4498 90.0255 59.4919 86.5452 57.5832 83.1524C56.9714 82.0649 56.3647 80.9865 55.8847 79.8955C54.458 75.8124 57.0038 72.5461 59.4603 69.3943L59.4604 69.3943L59.4604 69.3942L59.4604 69.3942L59.4605 69.3941L59.4605 69.3941L59.4605 69.394L59.4606 69.394L59.4606 69.394C60.095 68.58 60.7235 67.7737 61.276 66.9629C63.3706 63.0438 60.9986 59.7011 58.7883 56.5862L58.7882 56.5861L58.7881 56.586L58.7877 56.5855C58.3006 55.8989 57.8213 55.2235 57.3994 54.5553C56.5936 53.032 56.4285 51.5859 56.6246 50.1903C56.8746 48.3921 57.7205 46.6708 58.5527 44.9773L58.5528 44.9772C59.0901 43.8839 59.6217 42.8021 59.9836 41.7187C61.9613 37.0117 60.8456 31.156 57.1778 27.5972L57.2883 27.4867C59.1222 28.566 60.7742 30.4703 61.6011 32.3387C63.7824 36.7236 62.2897 40.7617 60.7975 44.7985C60.1369 46.5857 59.4764 48.3726 59.1348 50.1893L59.0169 50.8905C58.9472 53.6008 60.3629 55.3848 61.8171 57.2172C62.6024 58.2068 63.399 59.2106 63.9788 60.382C66.1665 64.6463 63.5669 67.9223 61.033 71.1155C60.3635 71.9593 59.6985 72.7973 59.1277 73.6462C56.756 77.7121 58.6918 80.8787 60.6669 84.1096C62.3767 86.9067 64.116 89.7519 63.1154 93.2705L66.3497 92.1928C67.0115 88.9336 65.1773 86.1663 63.4054 83.4932C62.9671 82.8319 62.5326 82.1764 62.1406 81.5206C59.933 77.0428 62.7065 73.3896 65.3311 69.9325L65.3313 69.9323C65.9525 69.114 66.5654 68.3068 67.1019 67.5022C69.148 63.1713 66.5709 59.4021 64.2129 55.9535L64.2128 55.9535C63.713 55.2225 63.2231 54.5059 62.7891 53.8014C61.9952 52.6423 61.7445 51.4192 61.814 50.1896H61.8221C61.9352 48.1386 62.9345 46.0638 63.8135 44.2388L63.8136 44.2386C63.9435 43.9687 64.0709 43.7043 64.1924 43.4462C66.0622 38.411 64.7665 32.3054 61.4977 28.5637C63.6899 29.464 65.3019 31.9118 66.0237 34.0659C67.939 38.0282 66.7049 41.9912 65.5114 45.8236L65.5113 45.8238C65.0917 47.1713 64.6771 48.5027 64.4062 49.8122L64.3988 50.189C64.3754 52.9901 65.9057 55.0643 67.4471 57.1534L67.4471 57.1534C68.562 58.6645 69.6826 60.1834 70.2253 61.9909C71.2216 65.5188 69.2057 68.1904 67.2696 70.7563C66.758 71.4344 66.2519 72.105 65.8085 72.7821C61.9216 76.8243 64.113 80.2487 66.3812 83.7929C67.8253 86.0494 69.3005 88.3545 69.258 90.8986C69.4806 90.8047 69.7192 90.7226 69.9609 90.6394C70.7355 90.3729 71.5417 90.0955 71.954 89.3837C71.6765 87.235 70.4796 85.4626 69.2808 83.6872C68.4556 82.4652 67.6295 81.2418 67.1016 79.8932C67.0904 79.6402 67.0717 79.3778 67.0527 79.1105C66.9531 77.7094 66.8439 76.1737 67.7523 75.1517L67.9662 75.3656C67.7257 78.577 69.3334 81.0194 70.9448 83.4673C71.9835 85.0454 73.0238 86.6258 73.5714 88.4159C73.7468 88.3104 73.9229 88.2055 74.0993 88.1005L74.1006 88.0997L74.1018 88.099C75.5555 87.2332 77.0235 86.3589 78.2086 85.0775C77.7084 84.573 76.9546 84.1795 76.2745 83.8886C76.0036 83.3047 76.5031 82.7394 76.9854 82.1937C77.156 82.0007 77.3244 81.8102 77.4558 81.6221L80.4684 82.6994C80.6584 82.5245 80.8519 82.3562 81.0437 82.1895L81.0438 82.1894L81.0444 82.1888C81.7595 81.5673 82.4506 80.9665 82.8461 80.1149C81.7663 79.3584 80.5799 78.813 79.2868 78.6C79.2458 77.775 79.712 77.1297 80.2535 76.5545C81.8616 76.4931 83.1634 77.1443 84.4511 77.7885L84.452 77.7889L84.4577 77.7918C84.6392 77.8826 84.8204 77.9732 85.0022 78.0616C85.7906 77.3456 86.6613 76.4136 86.944 75.374L83.06 73.431C81.3703 72.3576 81.0437 73.444 80.6989 74.5912C80.5008 75.25 80.2968 75.9287 79.8251 76.23C76.601 76.1026 74.2001 74.0733 71.7867 72.0334C71.4835 71.7771 71.1801 71.5207 70.8748 71.2678C71.0458 70.3959 71.4874 69.6347 71.9303 68.8715C72.326 68.1896 72.7226 67.506 72.9278 66.7405C74.1412 62.6886 71.948 59.3989 69.8056 56.1852L69.8055 56.185C69.1554 55.2099 68.51 54.2418 67.9659 53.2615C67.3788 52.2306 67.1607 51.2098 67.1675 50.189C67.1775 48.7362 67.6337 47.2861 68.0942 45.822L68.0942 45.8219C68.5413 44.4007 68.9925 42.9662 69.0438 41.5035C69.9244 37.7329 68.2123 34.1055 66.754 31.016L66.6667 30.8309C67.6757 31.443 68.7578 32.2641 69.3694 33.3049C71.3801 37.2589 71.9562 42.765 70.1223 47.0057C69.6709 48.1419 69.52 49.1985 69.5769 50.189C69.719 52.5847 71.0913 54.6341 72.4807 56.709C73.9712 58.9349 75.4813 61.1901 75.5133 63.9337C75.9923 64.294 76.4611 64.7078 76.9326 65.1239C78.5812 66.5788 80.262 68.0622 82.5217 67.3897C82.6467 67.9864 82.5107 68.6039 82.3782 69.2058C82.2791 69.6559 82.182 70.0973 82.1973 70.5146C83.8053 70.4252 85.0808 71.1427 86.3594 71.862C87.1385 72.3003 87.9187 72.7392 88.776 72.9967C88.92 72.7474 89.0921 72.4981 89.2658 72.2466L89.2663 72.2458L89.2664 72.2457L89.2665 72.2456L89.2666 72.2455L89.2666 72.2454L89.2667 72.2452L89.2668 72.2451C89.7438 71.5543 90.2323 70.8468 90.1809 70.0799C89.1139 69.7644 88.1723 69.1414 87.2301 68.518C85.9199 67.6512 84.6086 66.7837 82.9579 66.7412L83.4894 64.2591C85.2278 64.2172 86.6968 65.0533 88.1743 65.8942C89.2352 66.498 90.3005 67.1043 91.473 67.3897C92.3974 66.7025 92.7331 65.4681 93.0429 64.3292L93.0429 64.3291L93.0904 64.1547C91.3658 63.8855 89.8831 63.0214 88.4002 62.1572C86.9182 61.2935 85.4359 60.4297 83.7117 60.1593C83.7347 59.8754 83.7227 59.5754 83.7106 59.2749C83.6862 58.6682 83.6618 58.0591 83.9256 57.5748C85.8152 57.5748 87.3334 58.4528 88.8544 59.3323C89.9652 59.9747 91.0775 60.6179 92.337 60.9207C94.3624 61.8825 94.4947 60.4709 94.6232 59.0997C94.677 58.5251 94.7302 57.9575 94.9218 57.5748C92.549 57.6695 90.6635 56.5703 88.7794 55.4719C87.0374 54.4564 85.2965 53.4415 83.1728 53.3717L82.6325 50.6685C84.9062 50.2944 86.8305 51.2791 88.7536 52.2632C90.8721 53.3472 92.9892 54.4305 95.5706 53.6961C95.986 52.6058 95.9502 51.6692 95.9108 50.6368ZM53.0824 20.2592C51.7167 18.9288 49.9218 17.6737 48.23 16.6984L44.1308 19.8278C43.6593 20.1465 44.0507 20.5206 44.3449 20.8018C44.3842 20.8393 44.4217 20.8752 44.4552 20.909C45.2798 20.8963 46.1338 20.8504 47.003 20.8037H47.0031C48.828 20.7057 50.7199 20.604 52.5461 20.7982L53.0824 20.2592ZM28.1685 30.1798C24.7969 27.975 20.6113 29.6307 17.2664 30.9538C16.902 31.0979 16.5476 31.2381 16.2053 31.3689C15.8818 28.0961 14.5529 25.1145 11.782 22.9578C11.7102 22.922 11.6311 22.8757 11.5473 22.8267L11.5473 22.8267C11.3174 22.6921 11.0522 22.5369 10.8069 22.5215C10.6065 22.5089 10.4159 22.59 10.2679 22.846C11.2917 29.1453 8.14344 33.8926 5.01667 38.6075C4.30767 39.6766 3.59976 40.7441 2.94185 41.8276C4.127 42.796 6.03105 42.6516 7.46854 42.3666C8.34885 42.0146 9.21941 41.6017 10.0939 41.187C12.9677 39.8241 15.8841 38.441 19.3287 39.1312C20.6576 36.8666 22.8896 34.6731 24.72 32.8761C25.1552 32.4995 25.6535 32.1764 26.1468 31.8566C26.9214 31.3544 27.6835 30.8603 28.1685 30.1798ZM40.3534 36.0071C39.6361 36.328 39.5282 35.4981 39.6003 35.0328C39.4558 34.4944 39.7822 34.0659 40.2503 33.9619C40.5663 33.8882 40.8946 33.8413 41.2177 33.8297C42.6181 33.7774 43.9964 34.3057 44.6665 35.3582V35.7931C44.3454 35.7646 43.972 35.659 43.5758 35.5469C42.4655 35.2327 41.1759 34.8679 40.3534 36.0071ZM57.1761 30.4021C56.1723 28.1727 53.8718 27.2705 51.7848 26.7312C50.7612 26.6051 49.6992 26.5201 48.6459 26.5098L48.5964 26.5093H48.5963H48.5962H48.5961H48.5961H48.596C48.4153 26.5075 48.2348 26.5057 48.0546 26.5098C45.1085 26.5693 42.2933 27.3257 40.5735 29.7513C40.5087 29.9309 40.3863 30.1295 40.2591 30.3359C39.9013 30.9165 39.5056 31.5586 40.2491 32.0114L40.4299 31.9996L40.605 31.988C42.7797 31.8434 45.1764 31.684 46.6074 33.5263C46.6074 33.9952 46.6896 34.5062 46.772 35.0183C46.9931 36.3928 47.2155 37.7759 45.8543 38.3783C45.0505 37.634 44.1698 37.8272 43.2729 38.024C42.4426 38.2062 41.5984 38.3914 40.7886 37.8383C39.9967 37.3701 39.4956 37.9162 39.1712 38.5993C38.703 43.0555 41.0365 47.9741 45.2048 50.4536C46.8943 51.0631 49.1654 51.6425 50.9286 50.7781C55.1693 48.803 56.9261 44.2764 57.7164 40.1059C57.7013 39.9929 57.6891 39.8648 57.6761 39.7279L57.6761 39.7277C57.5977 38.9025 57.4891 37.7602 56.5345 37.7278C55.3015 38.5081 53.5142 38.0709 52.1891 37.7468L52.1115 37.7278C51.7361 37.849 51.5314 38.174 51.3229 38.5047C51.0938 38.8685 50.8602 39.2392 50.3906 39.3536L49.8443 38.9176C49.3761 36.9432 49.0876 34.1386 50.9228 32.7724C52.9732 31.9454 55.3813 31.5845 57.5015 32.2334C57.7659 31.7771 57.5813 31.3859 57.3966 30.9944L57.3966 30.9944C57.3047 30.7997 57.2128 30.6049 57.1761 30.4021ZM54.7763 33.9549C54.8545 33.9517 54.9327 33.9485 55.0123 33.9464C56.0149 33.9267 57.0624 34.0029 57.5012 34.8189C57.4951 34.9003 57.4939 34.9842 57.4928 35.0684C57.4878 35.4331 57.4828 35.8036 57.0728 36.0071L57.053 35.9993C55.6887 35.4624 53.7954 34.7174 52.4356 35.7931C51.8833 34.6155 52.7816 34.4339 53.6317 34.262C54.0016 34.1872 54.3624 34.1142 54.5907 33.9619C54.6525 33.9599 54.7138 33.9574 54.7752 33.9549L54.7763 33.9549ZM70.6612 18.7472C68.8888 18.6531 67.3083 19.2922 65.7279 19.9314C64.9361 20.2516 64.1443 20.5718 63.3284 20.7998C63.2013 19.5567 63.7143 18.2719 64.2248 16.9936C64.5686 16.1325 64.9112 15.2744 65.0563 14.4338C61.8026 14.6432 59.1055 16.2931 56.4291 17.9303C55.8546 18.2817 55.281 18.6326 54.7031 18.9685C53.9442 17.1357 53.1885 15.3015 52.4362 13.466L56.7497 9.36721L56.8602 8.82691L51.0336 8.50248C50.6007 7.74367 50.2809 6.9179 49.962 6.09428L49.962 6.09423L49.9619 6.0942C49.5417 5.00906 49.1229 3.92765 48.4488 3.00802C47.9635 3.92479 47.5578 4.86821 47.1523 5.81135C46.7468 6.7545 46.3413 7.69736 45.8565 8.61299L40.0374 8.9384V9.36721L44.4539 13.3555C44.4125 13.5127 44.3713 13.671 44.33 13.83L44.3292 13.8328L44.3287 13.8348L44.3287 13.8348C43.8313 15.7466 43.3093 17.753 42.0833 19.1821C41.6479 18.9213 41.2135 18.6565 40.7786 18.3915L40.7784 18.3914L40.7782 18.3913L40.778 18.3911L40.778 18.3911L40.7779 18.3911C38.6287 17.0813 36.467 15.7639 34.1078 14.8685L33.9862 14.829C33.3134 14.6096 32.4165 14.3172 31.8409 14.7579C31.9868 15.0796 32.1422 15.4052 32.2993 15.7342L32.2993 15.7343L32.2994 15.7344L32.2994 15.7344C33.1081 17.4288 33.9604 19.2143 33.7834 21.0218C33.122 20.9001 32.5395 20.6099 31.9605 20.3215L31.9605 20.3215C31.5003 20.0923 31.0423 19.8641 30.5485 19.7224C30.2776 19.6484 29.9963 19.5601 29.7094 19.47C28.5841 19.1167 27.3703 18.7355 26.3394 19.08C28.4965 22.0976 30.2571 25.2563 30.8661 28.8882C38.0219 25.4337 46.367 23.5339 55.0294 25.0104C58.3517 25.5389 61.4549 26.7425 64.4622 27.9088C65.1306 28.1681 65.7944 28.4255 66.4547 28.6733C66.5658 25.69 68.0676 23.1658 69.5096 20.7419L69.5097 20.7418L69.5097 20.7417L69.5098 20.7417C69.9083 20.0717 70.3024 19.4094 70.6612 18.7472ZM86.375 40.9477C85.2283 40.3507 84.0885 39.7573 82.9498 39.456C81.3327 39.2062 79.4332 38.9907 77.8836 39.2431C75.6587 35.7948 72.6735 32.5572 69.0438 30.617C69.2379 29.5385 70.6252 29.3792 71.7432 29.2508C71.8532 29.2381 71.9607 29.2258 72.0641 29.2129C75.2629 28.8933 78.0642 30.2169 80.69 31.5838C81.0243 30.7963 81.2295 29.942 81.4344 29.0886L81.4344 29.0884C81.5375 28.6593 81.6405 28.2303 81.7598 27.8101C82.6271 25.6877 84.3246 23.5281 86.5163 22.6324C86.9812 22.7035 87.305 23.2102 87.1586 23.7107C86.0361 29.5945 89.0527 34.0912 92.0343 38.5357L92.0344 38.5359C92.7682 39.6297 93.4998 40.7203 94.167 41.8276C91.4936 43.6125 88.9174 42.2713 86.375 40.9477ZM44.5631 44.5236L44.6665 45.1734C45.1379 45.4874 45.4997 45.8745 45.8459 46.245C46.5313 46.9786 47.1557 47.6467 48.4478 47.5511C50.1719 47.6533 51.4656 46.0375 52.3244 44.7443C51.2138 44.5908 49.9882 44.6233 48.7295 44.6568H48.7295H48.7294C47.3443 44.6936 45.9192 44.7315 44.5631 44.5236ZM46.5043 41.9319C46.5162 41.8204 46.5279 41.7091 46.5047 41.6137C47.0811 41.2172 47.8779 40.9935 48.6459 40.9935C49.4145 40.9935 50.1464 41.2217 50.5952 41.7242C50.1643 42.6406 49.085 42.5546 48.0737 42.474C47.5773 42.4344 47.0974 42.3962 46.7186 42.4784C46.4567 42.381 46.4806 42.1562 46.5043 41.9319Z" fill="#106E33"/>
</svg>
