<svg width="240" height="130" viewBox="0 0 240 130" fill="none" xmlns="http://www.w3.org/2000/svg">
<g opacity="0.2">
<path d="M235.645 29.9315C231.46 36.3331 222.833 38.1299 216.428 33.9343L101.052 -41.6401C94.64 -45.8402 92.8389 -54.4671 97.0245 -60.8687L151.147 -143.646C167.064 -167.989 199.83 -174.814 224.188 -158.859L274.46 -125.93C298.818 -109.975 305.685 -77.1892 289.768 -52.8455L235.645 29.9315ZM236.328 30.3788L290.451 -52.3982C306.64 -77.1582 299.68 -110.385 274.906 -126.612L224.634 -159.542C199.86 -175.77 166.653 -168.853 150.464 -144.093L96.3416 -61.316C91.9017 -54.5254 93.8113 -45.4082 100.606 -40.9576L215.982 34.6168C222.776 39.0673 231.888 37.1694 236.328 30.3788Z" fill="white"/>
<path d="M225.57 31.6175C217.226 44.3798 200.041 47.9592 187.271 39.5949L94.9691 -20.8655C82.1996 -29.2299 78.598 -46.4249 86.9424 -59.1871L137.776 -136.934C151.346 -157.688 179.284 -163.513 200.057 -149.907L263.351 -108.447C284.117 -94.8452 289.978 -66.8904 276.404 -46.1296L225.57 31.6175ZM226.253 32.0648L277.087 -45.6823C290.929 -66.8526 284.98 -95.2549 263.797 -109.13L200.503 -150.589C179.327 -164.46 150.935 -158.552 137.094 -137.382L86.2551 -59.6276C77.6519 -46.4695 81.3461 -28.8045 94.5185 -20.1762L186.821 40.2842C199.998 48.9056 217.645 45.2297 226.253 32.0648Z" fill="white"/>
<path d="M215.49 33.3105C202.987 52.4334 177.255 57.7931 158.122 45.26L88.9 -0.0819647C69.7662 -12.6151 64.3733 -38.3624 76.8765 -57.4853L124.431 -130.216C135.658 -147.387 158.766 -152.195 175.94 -140.945L252.249 -90.9604C269.43 -79.7065 274.267 -56.5847 263.045 -39.4205L215.49 33.3105ZM216.173 33.7578L263.728 -38.9733C275.218 -56.5469 270.279 -80.1251 252.696 -91.6428L176.386 -141.628C158.802 -153.145 135.238 -148.237 123.748 -130.664L76.1981 -57.9394C63.4272 -38.407 68.9216 -12.2033 88.4583 0.59367L157.68 45.9356C177.212 58.7395 203.407 53.2833 216.173 33.7578Z" fill="white"/>
<path d="M205.415 34.9963C188.758 60.4729 154.463 67.6222 128.965 50.9203L82.8172 20.6923C57.326 3.99493 50.1326 -30.3205 66.7946 -55.804L111.06 -123.505C119.94 -137.086 138.22 -140.894 151.809 -131.993L241.141 -73.4781C254.73 -64.577 258.561 -46.2862 249.681 -32.705L205.415 34.9963ZM206.098 35.4435L250.364 -32.2577C259.503 -46.2347 255.572 -65.0001 241.587 -74.1606L152.255 -132.675C138.27 -141.836 119.516 -137.93 110.377 -123.952L66.1118 -56.2513C49.1775 -30.3515 56.4565 4.40008 82.371 21.3748L128.519 51.6028C154.433 68.5775 189.164 61.3433 206.098 35.4435Z" fill="white"/>
<path d="M195.336 36.6888C174.519 68.5261 131.671 77.4512 99.8152 56.5851L76.7413 41.4711C44.8858 20.6049 35.9055 -22.2696 56.7219 -54.1069L97.7032 -116.785C104.236 -126.776 117.688 -129.584 127.692 -123.031L230.032 -55.9959C240.029 -49.4475 242.854 -35.9876 236.317 -25.9894L195.336 36.6888ZM196.019 37.1361L237 -25.5421C243.792 -35.9293 240.871 -49.8706 230.478 -56.6784L128.124 -123.723C117.731 -130.531 103.798 -127.629 97.0067 -117.241L56.0254 -54.5631C34.9279 -22.2959 44.0026 21.0011 76.2814 42.1446L99.3689 57.2675C131.648 78.411 174.926 69.3966 196.019 37.1361Z" fill="white"/>
<path opacity="0.1" d="M185.26 38.3751C160.285 76.573 108.878 87.2808 70.6581 62.2459C32.4383 37.2109 21.6643 -14.2272 46.6395 -52.4251L84.3366 -110.08C88.5266 -116.489 97.1484 -118.279 103.554 -114.083L218.93 -38.5087C225.342 -34.3086 227.143 -25.6817 222.957 -19.2801L185.26 38.3751ZM185.943 38.8224L223.64 -18.8328C228.08 -25.6234 226.171 -34.7406 219.376 -39.1912L104 -114.766C97.2054 -119.216 88.0937 -117.318 83.6537 -110.528L45.9566 -52.8724C20.6958 -14.2377 31.5551 37.6072 70.2118 62.9283C108.869 88.2495 160.682 77.4571 185.943 38.8224Z" fill="white"/>
</g>
</svg>
