<svg width="121" height="90" viewBox="0 0 121 90" fill="none" xmlns="http://www.w3.org/2000/svg">
<g opacity="0.5">
<path d="M128.622 22.94C93.1536 51.0587 58.1493 66.1243 50.429 56.5972C42.7086 47.0701 65.1953 16.5575 100.663 -11.5613C136.132 -39.68 158.618 -70.1926 150.898 -79.7197C143.178 -89.2468 108.173 -74.1812 72.705 -46.0625L71.9123 -45.434C36.4442 -17.3153 1.43982 -2.24982 -6.28049 -11.7769C-14.0008 -21.3039 8.48583 -51.8166 43.9539 -79.9353L40.7829 -77.4214C76.251 -105.54 98.7376 -136.053 91.0173 -145.58C83.297 -155.107 48.2927 -140.041 12.8245 -111.923" stroke="url(#paint0_linear_1920_120328)" stroke-miterlimit="10"/>
<path d="M131.02 25.6109C95.5518 53.7296 60.5475 68.7952 52.8272 59.2681C45.1068 49.741 67.5935 19.2284 103.062 -8.89035C138.53 -37.0091 161.016 -67.5217 153.296 -77.0488C145.576 -86.5759 110.571 -71.5103 75.1032 -43.3916L74.3105 -42.7631C38.8424 -14.6444 3.83801 0.421076 -3.8823 -9.10598C-11.6026 -18.633 10.884 -49.1457 46.3521 -77.2644L43.1811 -74.7505C78.6492 -102.869 101.136 -133.382 93.4155 -142.909C85.6952 -152.436 50.6908 -137.37 15.2227 -109.252" stroke="url(#paint1_linear_1920_120328)" stroke-miterlimit="10"/>
<path d="M133.412 28.2735C97.9439 56.3922 62.9396 71.4578 55.2192 61.9307C47.4989 52.4036 69.9856 21.891 105.454 -6.22776C140.922 -34.3465 163.408 -64.8591 155.688 -74.3862C147.968 -83.9133 112.963 -68.8478 77.4953 -40.729L76.7026 -40.1006C41.2345 -11.9818 6.2301 3.08367 -1.49021 -6.44338C-9.21053 -15.9704 13.2761 -46.4831 48.7442 -74.6018L45.5732 -72.0879C81.0413 -100.207 103.528 -130.719 95.8076 -140.246C88.0873 -149.773 53.0829 -134.708 17.6148 -106.589" stroke="url(#paint2_linear_1920_120328)" stroke-miterlimit="10"/>
<path d="M135.818 30.9376C100.35 59.0563 65.3458 74.1218 57.6255 64.5948C49.9052 55.0677 72.3918 24.555 107.86 -3.56369C143.328 -31.6824 165.815 -62.1951 158.094 -71.7221C150.374 -81.2492 115.37 -66.1837 79.9016 -38.065L79.1088 -37.4365C43.6407 -9.31778 8.63635 5.74774 0.916038 -3.77932C-6.80428 -13.3064 15.6824 -43.8191 51.1505 -71.9378L47.9794 -69.4238C83.4475 -97.5425 105.934 -128.055 98.2139 -137.582C90.4935 -147.109 55.4892 -132.044 20.0211 -103.925" stroke="url(#paint3_linear_1920_120328)" stroke-miterlimit="10"/>
<path d="M138.211 33.6002C102.743 61.7189 67.7381 76.7844 60.0178 67.2574C52.2975 57.7303 74.7842 27.2176 110.252 -0.901096C145.72 -29.0198 168.207 -59.5325 160.487 -69.0595C152.766 -78.5866 117.762 -63.5211 82.2939 -35.4024L81.5012 -34.7739C46.033 -6.65518 11.0287 8.41033 3.30837 -1.11672C-4.41194 -10.6438 18.0747 -41.1565 53.5428 -69.2752L50.3718 -66.7612C85.8399 -94.8799 108.327 -125.393 100.606 -134.92C92.8859 -144.447 57.8815 -129.381 22.4134 -101.262" stroke="url(#paint4_linear_1920_120328)" stroke-miterlimit="10"/>
<path d="M140.609 36.2712C105.141 64.3899 70.1363 79.4554 62.416 69.9284C54.6957 60.4013 77.1823 29.8886 112.65 1.76992C148.119 -26.3488 170.605 -56.8615 162.885 -66.3885C155.165 -75.9156 120.16 -60.8501 84.6921 -32.7314L83.8993 -32.1029C48.4312 -3.98416 13.4269 11.0814 5.70657 1.5543C-2.01375 -7.97276 20.4729 -38.4854 55.941 -66.6042L52.77 -64.0902C88.2381 -92.2089 110.725 -122.722 103.004 -132.249C95.2841 -141.776 60.2797 -126.71 24.8116 -98.5915" stroke="url(#paint5_linear_1920_120328)" stroke-miterlimit="10"/>
<path d="M143.001 38.9336C107.533 67.0523 72.5284 82.1178 64.8081 72.5907C57.0878 63.0637 79.5744 32.551 115.043 4.43228C150.511 -23.6864 172.997 -54.1991 165.277 -63.7262C157.557 -73.2532 122.552 -58.1877 87.0842 -30.069L86.2914 -29.4405C50.8233 -1.32181 15.819 13.7437 8.09866 4.21665C0.378339 -5.31041 22.865 -35.8231 58.3331 -63.9418L55.162 -61.4278C90.6302 -89.5465 113.117 -120.059 105.396 -129.586C97.6762 -139.113 62.6718 -124.048 27.2037 -95.9291" stroke="url(#paint6_linear_1920_120328)" stroke-miterlimit="10"/>
<path d="M145.399 41.604C109.931 69.7227 74.9269 84.7882 67.2066 75.2611C59.4862 65.7341 81.9729 35.2214 117.441 7.10269C152.909 -21.016 175.396 -51.5287 167.675 -61.0558C159.955 -70.5828 124.951 -55.5173 89.4826 -27.3986L88.6899 -26.7701C53.2218 1.3486 18.2174 16.4141 10.4971 6.88706C2.77678 -2.64 25.2634 -33.1527 60.7315 -61.2714L57.5605 -58.7574C93.0286 -86.8761 115.515 -117.389 107.795 -126.916C100.075 -136.443 65.0702 -121.377 29.6021 -93.2587" stroke="url(#paint7_linear_1920_120328)" stroke-miterlimit="10"/>
<path d="M147.792 44.2663C112.324 72.385 77.3192 87.4506 69.5989 77.9235C61.8786 68.3964 84.3652 37.8837 119.833 9.76504C155.301 -18.3537 177.788 -48.8663 170.068 -58.3934C162.347 -67.9205 127.343 -52.855 91.875 -24.7362L91.0822 -24.1078C55.6141 4.01096 20.6097 19.0765 12.8894 9.54941C5.16911 0.0223538 27.6557 -30.4903 63.1239 -58.609L59.9528 -56.0951C95.4209 -84.2138 117.908 -114.726 110.187 -124.254C102.467 -133.781 67.4626 -118.715 31.9945 -90.5964" stroke="url(#paint8_linear_1920_120328)" stroke-miterlimit="10"/>
<path d="M150.198 46.9305C114.73 75.0492 79.7252 90.1147 72.0049 80.5877C64.2846 71.0606 86.7712 40.5479 122.239 12.4292C157.707 -15.6895 180.194 -46.2022 172.474 -55.7292C164.753 -65.2563 129.749 -50.1908 94.281 -22.0721L93.4882 -21.4436C58.0201 6.67514 23.0157 21.7407 15.2954 12.2136C7.57512 2.68654 30.0618 -27.8261 65.5299 -55.9448L62.3588 -53.4309C97.8269 -81.5496 120.314 -112.062 112.593 -121.589C104.873 -131.116 69.8686 -116.051 34.4005 -87.9322" stroke="url(#paint9_linear_1920_120328)" stroke-miterlimit="10"/>
<path d="M152.59 49.5931C117.122 77.7118 82.1178 92.7773 74.3975 83.2503C66.6772 73.7232 89.1638 43.2105 124.632 15.0918C160.1 -13.0269 182.587 -43.5396 174.866 -53.0666C167.146 -62.5937 132.142 -47.5282 96.6736 -19.4095L95.8808 -18.781C60.4127 9.33774 25.4083 24.4033 17.688 14.8762C9.96769 5.34914 32.4543 -25.1635 67.9224 -53.2823L64.7514 -50.7683C100.22 -78.887 122.706 -109.4 114.986 -118.927C107.266 -128.454 72.2612 -113.388 36.7931 -85.2696" stroke="url(#paint10_linear_1920_120328)" stroke-miterlimit="10"/>
<path d="M154.988 52.2641C119.52 80.3828 84.516 95.4484 76.7957 85.9213C69.0753 76.3942 91.562 45.8816 127.03 17.7628C162.498 -10.3559 184.985 -40.8685 177.265 -50.3956C169.544 -59.9227 134.54 -44.8571 99.0717 -16.7384L98.279 -16.1099C62.8109 12.0088 27.8065 27.0743 20.0862 17.5472C12.3659 8.02016 34.8525 -22.4925 70.3206 -50.6112L67.1496 -48.0973C102.618 -76.216 125.104 -106.729 117.384 -116.256C109.664 -125.783 74.6594 -110.717 39.1912 -82.5986" stroke="url(#paint11_linear_1920_120328)" stroke-miterlimit="10"/>
</g>
<defs>
<linearGradient id="paint0_linear_1920_120328" x1="16.392" y1="-114.751" x2="126.737" y2="24.4346" gradientUnits="userSpaceOnUse">
<stop stop-color="#BBF8E9"/>
<stop offset="1" stop-color="#3FECC1"/>
</linearGradient>
<linearGradient id="paint1_linear_1920_120328" x1="18.7902" y1="-112.08" x2="129.135" y2="27.1055" gradientUnits="userSpaceOnUse">
<stop stop-color="#BBF8E9"/>
<stop offset="1" stop-color="#3FECC1"/>
</linearGradient>
<linearGradient id="paint2_linear_1920_120328" x1="21.1822" y1="-109.417" x2="131.527" y2="29.7681" gradientUnits="userSpaceOnUse">
<stop stop-color="#BBF8E9"/>
<stop offset="1" stop-color="#3FECC1"/>
</linearGradient>
<linearGradient id="paint3_linear_1920_120328" x1="23.5885" y1="-106.753" x2="133.933" y2="32.4321" gradientUnits="userSpaceOnUse">
<stop stop-color="#BBF8E9"/>
<stop offset="1" stop-color="#3FECC1"/>
</linearGradient>
<linearGradient id="paint4_linear_1920_120328" x1="25.9808" y1="-104.091" x2="136.325" y2="35.0947" gradientUnits="userSpaceOnUse">
<stop stop-color="#BBF8E9"/>
<stop offset="1" stop-color="#3FECC1"/>
</linearGradient>
<linearGradient id="paint5_linear_1920_120328" x1="28.379" y1="-101.42" x2="138.724" y2="37.7657" gradientUnits="userSpaceOnUse">
<stop stop-color="#BBF8E9"/>
<stop offset="1" stop-color="#3FECC1"/>
</linearGradient>
<linearGradient id="paint6_linear_1920_120328" x1="30.7711" y1="-98.7573" x2="141.116" y2="40.4281" gradientUnits="userSpaceOnUse">
<stop stop-color="#BBF8E9"/>
<stop offset="1" stop-color="#3FECC1"/>
</linearGradient>
<linearGradient id="paint7_linear_1920_120328" x1="33.1696" y1="-96.0869" x2="143.514" y2="43.0985" gradientUnits="userSpaceOnUse">
<stop stop-color="#BBF8E9"/>
<stop offset="1" stop-color="#3FECC1"/>
</linearGradient>
<linearGradient id="paint8_linear_1920_120328" x1="35.5619" y1="-93.4246" x2="145.906" y2="45.7609" gradientUnits="userSpaceOnUse">
<stop stop-color="#BBF8E9"/>
<stop offset="1" stop-color="#3FECC1"/>
</linearGradient>
<linearGradient id="paint9_linear_1920_120328" x1="37.9679" y1="-90.7604" x2="148.313" y2="48.425" gradientUnits="userSpaceOnUse">
<stop stop-color="#BBF8E9"/>
<stop offset="1" stop-color="#3FECC1"/>
</linearGradient>
<linearGradient id="paint10_linear_1920_120328" x1="40.3605" y1="-88.0978" x2="150.705" y2="51.0876" gradientUnits="userSpaceOnUse">
<stop stop-color="#BBF8E9"/>
<stop offset="1" stop-color="#3FECC1"/>
</linearGradient>
<linearGradient id="paint11_linear_1920_120328" x1="42.7587" y1="-85.4268" x2="153.103" y2="53.7587" gradientUnits="userSpaceOnUse">
<stop stop-color="#BBF8E9"/>
<stop offset="1" stop-color="#3FECC1"/>
</linearGradient>
</defs>
</svg>
