<svg width="46" height="45" viewBox="0 0 46 45" fill="none" xmlns="http://www.w3.org/2000/svg">
<g clip-path="url(#clip0_1309_125401)">
<path d="M45.2656 22.5C45.2656 10.0736 35.192 0 22.7656 0C10.3392 0 0.265625 10.0736 0.265625 22.5C0.265625 33.7304 8.49355 43.0387 19.25 44.7266V29.0039H13.5371V22.5H19.25V17.543C19.25 11.9039 22.6091 8.78906 27.7486 8.78906C30.2103 8.78906 32.7852 9.22852 32.7852 9.22852V14.7656H29.9479C27.1529 14.7656 26.2812 16.5 26.2812 18.2794V22.5H32.5215L31.5239 29.0039H26.2812V44.7266C37.0377 43.0387 45.2656 33.7304 45.2656 22.5Z" fill="#1877F2"/>
<path d="M31.5239 29.0039L32.5215 22.5H26.2812V18.2794C26.2812 16.5 27.1529 14.7656 29.9479 14.7656H32.7852V9.22852C32.7852 9.22852 30.2103 8.78906 27.7485 8.78906C22.6091 8.78906 19.25 11.9039 19.25 17.543V22.5H13.5371V29.0039H19.25V44.7266C21.5796 45.0911 23.9517 45.0911 26.2812 44.7266V29.0039H31.5239Z" fill="white"/>
</g>
<defs>
<clipPath id="clip0_1309_125401">
<rect width="45" height="45" fill="white" transform="translate(0.265625)"/>
</clipPath>
</defs>
</svg>
