<svg width="41" height="41" viewBox="0 0 41 41" fill="none" xmlns="http://www.w3.org/2000/svg">
<g clip-path="url(#clip0_1309_125473)">
<path d="M39.9996 20.8742C39.9996 19.2354 39.8667 18.0395 39.5789 16.7994H20.8656V24.196H31.8499C31.6285 26.0342 30.4326 28.8024 27.7751 30.6626L27.7378 30.9102L33.6546 35.4939L34.0645 35.5348C37.8293 32.0579 39.9996 26.9421 39.9996 20.8742Z" fill="#4285F4"/>
<path d="M20.8655 40.3626C26.2469 40.3626 30.7646 38.5908 34.0645 35.5348L27.775 30.6626C26.0919 31.8363 23.833 32.6557 20.8655 32.6557C15.5948 32.6557 11.1214 29.1789 9.52675 24.3733L9.293 24.3931L3.14064 29.1545L3.06018 29.3782C6.33774 35.889 13.0701 40.3626 20.8655 40.3626Z" fill="#34A853"/>
<path d="M9.52684 24.3733C9.10608 23.1331 8.86257 21.8043 8.86257 20.4313C8.86257 19.0582 9.10608 17.7295 9.50471 16.4893L9.49356 16.2252L3.2641 11.3873L3.06028 11.4843C1.70944 14.1861 0.934326 17.2202 0.934326 20.4313C0.934326 23.6424 1.70944 26.6763 3.06028 29.3782L9.52684 24.3733Z" fill="#FBBC05"/>
<path d="M20.8655 8.20672C24.6081 8.20672 27.1327 9.82336 28.5722 11.1744L34.1973 5.68214C30.7426 2.47099 26.2469 0.5 20.8655 0.5C13.0701 0.5 6.33774 4.97343 3.06018 11.4843L9.50461 16.4893C11.1214 11.6837 15.5948 8.20672 20.8655 8.20672Z" fill="#EB4335"/>
</g>
<defs>
<clipPath id="clip0_1309_125473">
<rect width="39.088" height="40" fill="white" transform="translate(0.932251 0.5)"/>
</clipPath>
</defs>
</svg>
