<svg width="46" height="45" viewBox="0 0 46 45" fill="none" xmlns="http://www.w3.org/2000/svg">
<g clip-path="url(#clip0_1309_125552)">
<path d="M23.0989 45C35.5253 45 45.5989 34.9265 45.5989 22.5C45.5989 10.0736 35.5253 4.57764e-05 23.0989 4.57764e-05C10.6725 4.57764e-05 0.598877 10.0736 0.598877 22.5C0.598877 34.9265 10.6725 45 23.0989 45Z" fill="#2DAAE1"/>
<path d="M37.5256 13.5499C36.4643 14.0208 35.3244 14.3392 34.1259 14.4823C35.3491 13.7498 36.2861 12.5892 36.7286 11.2078C35.5666 11.8979 34.295 12.3837 32.969 12.6442C31.8898 11.4939 30.3509 10.7757 28.6484 10.7757C25.3805 10.7757 22.7303 13.4249 22.7303 16.6947C22.7303 17.158 22.7825 17.61 22.8828 18.0439C17.9634 17.7967 13.6021 15.4403 10.6828 11.8597C10.1731 12.7342 9.88128 13.7509 9.88128 14.8357C9.88128 16.889 10.9264 18.7006 12.5144 19.7618C11.5743 19.7327 10.6549 19.4789 9.83292 19.0218V19.0966C9.83292 21.9647 11.8729 24.3562 14.5808 24.9001C14.0834 25.0364 13.5613 25.1076 13.0213 25.1076C12.6394 25.1076 12.269 25.0714 11.907 25.0034C12.6603 27.3541 14.8463 29.0653 17.4356 29.1136C15.4099 30.7016 12.8573 31.6482 10.085 31.6482C9.60746 31.6482 9.13553 31.6197 8.67224 31.5639C11.2921 33.2438 14.4027 34.2245 17.7455 34.2245C28.6323 34.2245 34.5864 25.2052 34.5864 17.3836C34.5864 17.1268 34.5807 16.872 34.5683 16.618C35.7284 15.7789 36.7297 14.74 37.5256 13.5499Z" fill="white"/>
</g>
<defs>
<clipPath id="clip0_1309_125552">
<rect width="45" height="45" fill="white" transform="translate(0.598877)"/>
</clipPath>
</defs>
</svg>
