<svg width="32" height="32" viewBox="0 0 32 32" fill="none" xmlns="http://www.w3.org/2000/svg">
<path d="M27.8163 11.4107C28.5386 15.0589 27 25.501 28 29.001C32.3816 21.9252 31.5 5.50003 29.5 2.99994C27.5 0.499852 19.9369 0.612596 16.5 1.49995L19.5 5.50098C24.5745 5.55046 27.0941 7.76258 27.8163 11.4107Z" fill="#A8ABFF"/>
<path d="M10.618 9.01838L10.9857 8.67953L10.9857 8.67953L10.618 9.01838ZM10.5714 10.148L10.9119 10.5141L10.9119 10.5141L10.5714 10.148ZM6.05232 14.351L6.39283 14.7172L6.39284 14.7172L6.05232 14.351ZM6.13943 17.7561L5.8485 18.1627L5.84851 18.1627L6.13943 17.7561ZM8.12958 19.1799L8.42051 18.7733L8.42051 18.7733L8.12958 19.1799ZM9.24755 19.1596L9.55385 19.5548L9.55385 19.5548L9.24755 19.1596ZM12.4197 16.701L12.726 17.0962L12.726 17.0962L12.4197 16.701ZM19.3107 13.9708L19.7542 14.2018L19.7542 14.2018L19.3107 13.9708ZM20.8057 11.4054C20.8821 11.1401 20.7289 10.863 20.4635 10.7866C20.1982 10.7102 19.9211 10.8634 19.8447 11.1287L20.8057 11.4054ZM14.064 23.5375L13.8167 23.103C13.8022 23.1112 13.7881 23.1202 13.7745 23.1299L14.064 23.5375ZM11.118 30.5008L10.6905 30.7601C10.7811 30.9095 10.9432 31.0008 11.118 31.0008V30.5008ZM29 30.5008V31.0008C29.1917 31.0008 29.3664 30.8912 29.45 30.7187C29.5335 30.5462 29.5111 30.3412 29.3923 30.1908L29 30.5008ZM19.0752 5.44378L18.9948 5.93728L19.0224 5.94176L19.0502 5.94316L19.0752 5.44378ZM14.5112 5.44378L14.4501 4.94754L14.4501 4.94754L14.5112 5.44378ZM16.4911 1.50079L16.0729 1.77486L16.0729 1.77486L16.4911 1.50079ZM10.5877 7.59339L10.8886 7.99275L10.8886 7.99275L10.5877 7.59339ZM13.1135 16.5123L13.06 17.0094L13.06 17.0094L13.1135 16.5123ZM16.971 16.2363L16.7896 15.7703L16.7896 15.7703L16.971 16.2363ZM1.5 1.50079L1.81695 1.11408C1.61974 0.952447 1.33249 0.965105 1.15027 1.14346C0.968039 1.32181 0.949211 1.60872 1.10657 1.80935L1.5 1.50079ZM15 16.5978L14.9827 16.0981L15 16.5978ZM10.0827 9.17529L10.2503 9.35722L10.9857 8.67953L10.818 8.4976L10.0827 9.17529ZM5.29034 14.9393V17.0967H6.29034V14.9393H5.29034ZM5.84851 18.1627L7.83865 19.5866L8.42051 18.7733L6.43036 17.3494L5.84851 18.1627ZM9.55385 19.5548L12.726 17.0962L12.1134 16.3058L8.94125 18.7644L9.55385 19.5548ZM19.7542 14.2018C20.1568 13.4288 20.4914 12.497 20.8057 11.4054L19.8447 11.1287C19.5387 12.1914 19.2259 13.0514 18.8673 13.7398L19.7542 14.2018ZM13.7745 23.1299C11.1731 24.9773 10.3385 26.8418 10.2136 28.3113C10.1521 29.0349 10.2654 29.6365 10.3957 30.0603C10.4609 30.2722 10.5307 30.4406 10.5859 30.559C10.6136 30.6182 10.6377 30.6651 10.6558 30.6988C10.6649 30.7157 10.6726 30.7293 10.6784 30.7396C10.6814 30.7447 10.6839 30.749 10.6859 30.7524C10.6869 30.7541 10.6878 30.7556 10.6886 30.7569C10.6889 30.7575 10.6893 30.7581 10.6896 30.7587C10.6898 30.7589 10.69 30.7593 10.6901 30.7594C10.6903 30.7598 10.6905 30.7601 11.118 30.5008C11.5455 30.2415 11.5457 30.2418 11.5459 30.2421C11.5459 30.2422 11.5461 30.2425 11.5462 30.2426C11.5464 30.2429 11.5465 30.2432 11.5467 30.2435C11.547 30.2439 11.5471 30.2442 11.5471 30.2442C11.5472 30.2444 11.5468 30.2437 11.546 30.2423C11.5444 30.2394 11.541 30.2335 11.5362 30.2245C11.5266 30.2067 11.5112 30.1769 11.4921 30.1361C11.454 30.0544 11.4016 29.929 11.3515 29.7662C11.2513 29.4403 11.1614 28.9685 11.21 28.396C11.3054 27.2736 11.9438 25.6565 14.3535 23.9452L13.7745 23.1299ZM11.118 31.0008H29V30.0008H11.118V31.0008ZM29.3923 30.1908C28.3489 28.8705 28.0869 26.7835 28.1296 24.2162C28.1506 22.9483 28.2439 21.602 28.3335 20.2177C28.4228 18.8391 28.5084 17.4263 28.5101 16.0504C28.5135 13.3139 28.1882 10.63 26.8204 8.5757C25.4278 6.48422 23.0234 5.14093 19.1002 4.94441L19.0502 5.94316C22.7512 6.12855 24.8176 7.37201 25.9881 9.12992C27.1833 10.925 27.5134 13.3531 27.5101 16.0491C27.5084 17.3894 27.425 18.7729 27.3356 20.153C27.2466 21.5274 27.1513 22.902 27.1297 24.1996C27.0871 26.7635 27.3235 29.1858 28.6077 30.8108L29.3923 30.1908ZM19.1556 4.95028C18.2329 4.80003 17.2019 4.74921 16.0516 4.80659L16.1015 5.80535C17.1936 5.75087 18.1529 5.80017 18.9948 5.93728L19.1556 4.95028ZM16.0516 4.80659C15.5419 4.83202 15.0084 4.87871 14.4501 4.94754L14.5724 5.94003C15.1086 5.87394 15.6178 5.82948 16.1015 5.80535L16.0516 4.80659ZM16.0729 1.77486L18.657 5.71785L19.4934 5.16971L16.9093 1.22672L16.0729 1.77486ZM15.5765 1.60903V5.30597H16.5765V1.60903H15.5765ZM10.8886 7.99275C11.51 7.5246 12.0948 7.05513 12.7157 6.66987C13.3302 6.28859 13.9382 6.01821 14.5724 5.94003L14.4501 4.94754C13.6158 5.05037 12.8664 5.39951 12.1885 5.82014C11.5169 6.23679 10.8742 6.75162 10.2869 7.19402L10.8886 7.99275ZM17.1523 16.7022C18.3167 16.249 19.1239 15.4116 19.7542 14.2018L18.8673 13.7398C18.3185 14.7932 17.6733 15.4264 16.7896 15.7703L17.1523 16.7022ZM12.726 17.0962C12.8094 17.0316 12.93 16.9954 13.06 17.0094L13.1671 16.0152C12.7984 15.9755 12.4156 16.0716 12.1134 16.3058L12.726 17.0962ZM7.83865 19.5866C8.34954 19.9521 9.05689 19.94 9.55385 19.5548L8.94125 18.7644C8.79496 18.8778 8.57331 18.8826 8.42051 18.7733L7.83865 19.5866ZM5.29034 17.0967C5.29034 17.5252 5.50459 17.9167 5.8485 18.1627L6.43036 17.3494C6.33406 17.2805 6.29034 17.1847 6.29034 17.0967H5.29034ZM16.9093 1.22672C16.7119 0.925551 16.3706 0.857865 16.1134 0.925021C15.8548 0.99255 15.5765 1.22821 15.5765 1.60903H16.5765C16.5765 1.77969 16.4468 1.8715 16.366 1.89258C16.2867 1.91329 16.1527 1.89657 16.0729 1.77486L16.9093 1.22672ZM5.7118 13.9849C5.44675 14.2314 5.29034 14.5738 5.29034 14.9393H6.29034C6.29034 14.8634 6.3224 14.7827 6.39283 14.7172L5.7118 13.9849ZM10.2503 9.35722C10.3662 9.48295 10.3617 9.66019 10.2308 9.78189L10.9119 10.5141C11.442 10.0211 11.4781 9.2139 10.9857 8.67953L10.2503 9.35722ZM10.818 8.4976C10.6933 8.36227 10.6974 8.13674 10.8886 7.99275L10.2869 7.19402C9.66271 7.66421 9.52457 8.56971 10.0827 9.17529L10.818 8.4976ZM10.7673 8.44973L1.81695 1.11408L1.18305 1.8875L10.1334 9.22315L10.7673 8.44973ZM10.2308 9.78189L8.90703 11.0131L9.58807 11.7454L10.9119 10.5141L10.2308 9.78189ZM8.90703 11.0131L5.7118 13.9849L6.39284 14.7172L9.58807 11.7454L8.90703 11.0131ZM1.10657 1.80935L8.85412 11.6878L9.64098 11.0707L1.89343 1.19223L1.10657 1.80935ZM13.06 17.0094C13.7752 17.0864 14.425 17.118 15.0173 17.0975L14.9827 16.0981C14.4495 16.1166 13.8487 16.0886 13.1671 16.0152L13.06 17.0094ZM15.0173 17.0975C15.821 17.0696 16.5275 16.9454 17.1523 16.7022L16.7896 15.7703C16.2957 15.9626 15.7058 16.073 14.9827 16.0981L15.0173 17.0975ZM14.3114 23.9721C15.3069 23.4054 15.9815 22.7357 16.3933 22.0043C16.8058 21.2717 16.938 20.5067 16.8947 19.7781C16.8092 18.3411 16.0428 17.0358 15.3775 16.2699L14.6225 16.9256C15.1986 17.5888 15.8283 18.6924 15.8964 19.8375C15.9299 20.4 15.8284 20.9694 15.5219 21.5136C15.2148 22.0591 14.6852 22.6086 13.8167 23.103L14.3114 23.9721Z" fill="#000577"/>
<ellipse cx="14" cy="10" rx="1" ry="1" transform="rotate(90 14 10)" fill="#000577"/>
</svg>
