<svg width="170" height="30" viewBox="0 0 170 30" fill="none" xmlns="http://www.w3.org/2000/svg">
<path d="M41.8295 23H36.9908V9.90909H41.8232C43.157 9.90909 44.3054 10.1712 45.2685 10.6953C46.2358 11.2152 46.9815 11.9652 47.5057 12.9453C48.0298 13.9212 48.2919 15.0888 48.2919 16.4482C48.2919 17.8118 48.0298 18.9837 47.5057 19.9638C46.9858 20.9439 46.2422 21.696 45.2749 22.2202C44.3075 22.7401 43.1591 23 41.8295 23ZM40.1548 20.3026H41.7081C42.4411 20.3026 43.0611 20.179 43.5682 19.9318C44.0795 19.6804 44.4652 19.2734 44.7251 18.7109C44.9893 18.1442 45.1214 17.3899 45.1214 16.4482C45.1214 15.5064 44.9893 14.7564 44.7251 14.1982C44.4609 13.6357 44.071 13.2308 43.5554 12.9837C43.044 12.7322 42.4134 12.6065 41.6634 12.6065H40.1548V20.3026ZM52.907 23.1662C52.2805 23.1662 51.7244 23.0618 51.2386 22.853C50.7571 22.6399 50.3757 22.3203 50.0945 21.8942C49.8175 21.4638 49.679 20.9247 49.679 20.277C49.679 19.7315 49.7749 19.2713 49.9666 18.8963C50.1584 18.5213 50.4226 18.2166 50.7592 17.9822C51.0959 17.7479 51.4837 17.571 51.9226 17.4517C52.3615 17.3281 52.8303 17.245 53.3288 17.2024C53.8871 17.1513 54.3366 17.098 54.6776 17.0426C55.0185 16.983 55.2656 16.8999 55.419 16.7933C55.5767 16.6825 55.6555 16.527 55.6555 16.3267V16.2947C55.6555 15.9666 55.5426 15.7131 55.3168 15.5341C55.0909 15.3551 54.7862 15.2656 54.4027 15.2656C53.9893 15.2656 53.657 15.3551 53.4055 15.5341C53.1541 15.7131 52.9943 15.9602 52.9261 16.2756L50.0433 16.1733C50.1286 15.5767 50.348 15.044 50.7017 14.5753C51.0597 14.1023 51.5497 13.7315 52.1719 13.4631C52.7983 13.1903 53.5504 13.054 54.4283 13.054C55.0547 13.054 55.6321 13.1286 56.1605 13.2777C56.6889 13.4226 57.1491 13.6357 57.5412 13.9169C57.9332 14.1939 58.2358 14.5348 58.4489 14.9396C58.6662 15.3445 58.7749 15.8068 58.7749 16.3267V23H55.8345V21.6321H55.7578C55.5831 21.9645 55.3594 22.2457 55.0866 22.4759C54.8182 22.706 54.5007 22.8786 54.1342 22.9936C53.772 23.1087 53.3629 23.1662 52.907 23.1662ZM53.8722 21.1207C54.2088 21.1207 54.5114 21.0526 54.7798 20.9162C55.0526 20.7798 55.2699 20.5923 55.4318 20.3537C55.5938 20.1108 55.6747 19.8295 55.6747 19.5099V18.5767C55.5852 18.6236 55.4766 18.6662 55.3487 18.7045C55.2251 18.7429 55.0888 18.7791 54.9396 18.8132C54.7905 18.8473 54.6371 18.8771 54.4794 18.9027C54.3217 18.9283 54.1705 18.9517 54.0256 18.973C53.7315 19.0199 53.4801 19.0923 53.2713 19.1903C53.0668 19.2884 52.9091 19.4162 52.7983 19.5739C52.6918 19.7273 52.6385 19.9105 52.6385 20.1236C52.6385 20.4474 52.7536 20.6946 52.9837 20.8651C53.218 21.0355 53.5142 21.1207 53.8722 21.1207ZM69.2578 16.1797L66.3878 16.2564C66.358 16.0518 66.277 15.8707 66.1449 15.7131C66.0128 15.5511 65.8402 15.4254 65.6271 15.3359C65.4183 15.2422 65.1754 15.1953 64.8984 15.1953C64.5362 15.1953 64.2273 15.2678 63.9716 15.4126C63.7202 15.5575 63.5966 15.7536 63.6009 16.0007C63.5966 16.1925 63.6733 16.3587 63.831 16.4993C63.9929 16.6399 64.2805 16.7528 64.6939 16.8381L66.5859 17.196C67.5661 17.3835 68.2947 17.6946 68.772 18.1293C69.2536 18.5639 69.4964 19.1392 69.5007 19.8551C69.4964 20.5284 69.2962 21.1143 68.8999 21.6129C68.5078 22.1115 67.9709 22.4993 67.2891 22.7763C66.6072 23.049 65.8274 23.1854 64.9496 23.1854C63.5476 23.1854 62.4418 22.8977 61.6321 22.3224C60.8267 21.7429 60.3665 20.9673 60.2514 19.9957L63.3388 19.919C63.407 20.277 63.5838 20.5497 63.8693 20.7372C64.1548 20.9247 64.5192 21.0185 64.9624 21.0185C65.3629 21.0185 65.6889 20.9439 65.9403 20.7947C66.1918 20.6456 66.3196 20.4474 66.3239 20.2003C66.3196 19.9787 66.2216 19.8018 66.0298 19.6697C65.8381 19.5334 65.5376 19.4268 65.1286 19.3501L63.4155 19.0241C62.4311 18.8452 61.6982 18.5149 61.2166 18.0334C60.7351 17.5476 60.4964 16.9297 60.5007 16.1797C60.4964 15.5234 60.6712 14.9631 61.0249 14.4986C61.3786 14.0298 61.8814 13.6719 62.5334 13.4247C63.1854 13.1776 63.9545 13.054 64.8409 13.054C66.1705 13.054 67.2188 13.3331 67.9858 13.8913C68.7528 14.4453 69.1768 15.2081 69.2578 16.1797ZM74.1653 17.4006V23H71.0396V9.90909H74.063V14.9844H74.1717C74.3933 14.3793 74.7555 13.9062 75.2583 13.5653C75.7654 13.2244 76.3855 13.054 77.1184 13.054C77.8088 13.054 78.4096 13.2074 78.921 13.5142C79.4324 13.8168 79.8287 14.245 80.1099 14.799C80.3954 15.353 80.536 16.0007 80.5318 16.7422V23H77.4061V17.3558C77.4103 16.8104 77.274 16.3842 76.997 16.0774C76.72 15.7706 76.3301 15.6172 75.8272 15.6172C75.4991 15.6172 75.2093 15.6896 74.9579 15.8345C74.7108 15.9751 74.5169 16.1776 74.3762 16.4418C74.2399 16.706 74.1696 17.0256 74.1653 17.4006ZM82.483 23V9.90909H85.6087V14.8629H85.6726C85.8004 14.5646 85.9815 14.277 86.2159 14C86.4545 13.723 86.7571 13.4972 87.1236 13.3224C87.4943 13.1435 87.9375 13.054 88.4531 13.054C89.1349 13.054 89.772 13.233 90.3643 13.5909C90.9609 13.9489 91.4425 14.5007 91.8089 15.2464C92.1754 15.9922 92.3587 16.9425 92.3587 18.0973C92.3587 19.2095 92.1818 20.1406 91.8281 20.8906C91.4787 21.6406 91.0057 22.2031 90.4091 22.5781C89.8168 22.9531 89.1584 23.1406 88.4339 23.1406C87.9396 23.1406 87.5114 23.0597 87.1491 22.8977C86.7869 22.7358 86.4822 22.5227 86.2351 22.2585C85.9922 21.9943 85.8047 21.7109 85.6726 21.4084H85.5767V23H82.483ZM85.5447 18.0909C85.5447 18.6193 85.6151 19.0795 85.7557 19.4716C85.9006 19.8636 86.1072 20.1683 86.3757 20.3857C86.6484 20.5987 86.9744 20.7053 87.3537 20.7053C87.7372 20.7053 88.0632 20.5987 88.3317 20.3857C88.6001 20.1683 88.8026 19.8636 88.9389 19.4716C89.0795 19.0795 89.1499 18.6193 89.1499 18.0909C89.1499 17.5625 89.0795 17.1044 88.9389 16.7166C88.8026 16.3288 88.6001 16.0284 88.3317 15.8153C88.0675 15.6023 87.7415 15.4957 87.3537 15.4957C86.9702 15.4957 86.6442 15.6001 86.3757 15.8089C86.1072 16.0178 85.9006 16.3161 85.7557 16.7038C85.6151 17.0916 85.5447 17.554 85.5447 18.0909ZM98.5797 23.1854C97.5485 23.1854 96.6621 22.9744 95.9206 22.5526C95.1834 22.1264 94.6145 21.5341 94.214 20.7756C93.8176 20.0128 93.6195 19.1286 93.6195 18.1229C93.6195 17.1129 93.8176 16.2287 94.214 15.4702C94.6145 14.7074 95.1834 14.1151 95.9206 13.6932C96.6621 13.267 97.5485 13.054 98.5797 13.054C99.611 13.054 100.495 13.267 101.232 13.6932C101.974 14.1151 102.543 14.7074 102.939 15.4702C103.34 16.2287 103.54 17.1129 103.54 18.1229C103.54 19.1286 103.34 20.0128 102.939 20.7756C102.543 21.5341 101.974 22.1264 101.232 22.5526C100.495 22.9744 99.611 23.1854 98.5797 23.1854ZM98.5989 20.8267C98.9739 20.8267 99.2914 20.7116 99.5513 20.4815C99.8113 20.2514 100.009 19.9318 100.146 19.5227C100.286 19.1136 100.357 18.6406 100.357 18.1037C100.357 17.5582 100.286 17.081 100.146 16.6719C100.009 16.2628 99.8113 15.9432 99.5513 15.7131C99.2914 15.483 98.9739 15.3679 98.5989 15.3679C98.2111 15.3679 97.883 15.483 97.6145 15.7131C97.3503 15.9432 97.1479 16.2628 97.0073 16.6719C96.8709 17.081 96.8027 17.5582 96.8027 18.1037C96.8027 18.6406 96.8709 19.1136 97.0073 19.5227C97.1479 19.9318 97.3503 20.2514 97.6145 20.4815C97.883 20.7116 98.2111 20.8267 98.5989 20.8267ZM107.909 23.1662C107.282 23.1662 106.726 23.0618 106.241 22.853C105.759 22.6399 105.378 22.3203 105.096 21.8942C104.819 21.4638 104.681 20.9247 104.681 20.277C104.681 19.7315 104.777 19.2713 104.969 18.8963C105.16 18.5213 105.425 18.2166 105.761 17.9822C106.098 17.7479 106.486 17.571 106.925 17.4517C107.363 17.3281 107.832 17.245 108.331 17.2024C108.889 17.1513 109.339 17.098 109.68 17.0426C110.02 16.983 110.268 16.8999 110.421 16.7933C110.579 16.6825 110.657 16.527 110.657 16.3267V16.2947C110.657 15.9666 110.545 15.7131 110.319 15.5341C110.093 15.3551 109.788 15.2656 109.405 15.2656C108.991 15.2656 108.659 15.3551 108.407 15.5341C108.156 15.7131 107.996 15.9602 107.928 16.2756L105.045 16.1733C105.131 15.5767 105.35 15.044 105.704 14.5753C106.062 14.1023 106.552 13.7315 107.174 13.4631C107.8 13.1903 108.552 13.054 109.43 13.054C110.057 13.054 110.634 13.1286 111.162 13.2777C111.691 13.4226 112.151 13.6357 112.543 13.9169C112.935 14.1939 113.238 14.5348 113.451 14.9396C113.668 15.3445 113.777 15.8068 113.777 16.3267V23H110.836V21.6321H110.76C110.585 21.9645 110.361 22.2457 110.089 22.4759C109.82 22.706 109.503 22.8786 109.136 22.9936C108.774 23.1087 108.365 23.1662 107.909 23.1662ZM108.874 21.1207C109.211 21.1207 109.513 21.0526 109.782 20.9162C110.055 20.7798 110.272 20.5923 110.434 20.3537C110.596 20.1108 110.677 19.8295 110.677 19.5099V18.5767C110.587 18.6236 110.479 18.6662 110.351 18.7045C110.227 18.7429 110.091 18.7791 109.942 18.8132C109.792 18.8473 109.639 18.8771 109.481 18.9027C109.324 18.9283 109.172 18.9517 109.028 18.973C108.733 19.0199 108.482 19.0923 108.273 19.1903C108.069 19.2884 107.911 19.4162 107.8 19.5739C107.694 19.7273 107.64 19.9105 107.64 20.1236C107.64 20.4474 107.756 20.6946 107.986 20.8651C108.22 21.0355 108.516 21.1207 108.874 21.1207ZM115.688 23V13.1818H118.724V14.9716H118.827C119.006 14.3239 119.297 13.8423 119.702 13.527C120.107 13.2074 120.578 13.0476 121.115 13.0476C121.26 13.0476 121.409 13.0582 121.562 13.0795C121.716 13.0966 121.858 13.1243 121.991 13.1626V15.8793C121.841 15.8281 121.645 15.7876 121.403 15.7578C121.164 15.728 120.951 15.7131 120.763 15.7131C120.393 15.7131 120.058 15.7962 119.76 15.9624C119.466 16.1243 119.233 16.3523 119.063 16.6463C118.897 16.9361 118.814 17.277 118.814 17.669V23H115.688ZM126.34 23.1406C125.616 23.1406 124.958 22.9531 124.365 22.5781C123.773 22.2031 123.3 21.6406 122.946 20.8906C122.593 20.1406 122.416 19.2095 122.416 18.0973C122.416 16.9425 122.599 15.9922 122.965 15.2464C123.332 14.5007 123.811 13.9489 124.404 13.5909C125 13.233 125.642 13.054 126.328 13.054C126.843 13.054 127.284 13.1435 127.651 13.3224C128.017 13.4972 128.32 13.723 128.558 14C128.797 14.277 128.978 14.5646 129.102 14.8629H129.166V9.90909H132.291V23H129.198V21.4084H129.102C128.97 21.7109 128.782 21.9943 128.539 22.2585C128.296 22.5227 127.992 22.7358 127.625 22.8977C127.263 23.0597 126.835 23.1406 126.34 23.1406ZM127.427 20.7053C127.806 20.7053 128.13 20.5987 128.399 20.3857C128.667 20.1683 128.874 19.8636 129.019 19.4716C129.164 19.0795 129.236 18.6193 129.236 18.0909C129.236 17.554 129.164 17.0916 129.019 16.7038C128.878 16.3161 128.671 16.0178 128.399 15.8089C128.13 15.6001 127.806 15.4957 127.427 15.4957C127.039 15.4957 126.711 15.6023 126.443 15.8153C126.174 16.0284 125.97 16.3288 125.829 16.7166C125.693 17.1044 125.624 17.5625 125.624 18.0909C125.624 18.6193 125.695 19.0795 125.835 19.4716C125.976 19.8636 126.178 20.1683 126.443 20.3857C126.711 20.5987 127.039 20.7053 127.427 20.7053ZM134.268 23V9.90909H137.432V15.4446H137.605L141.932 9.90909H145.659L141.018 15.7514L145.742 23H141.958L138.698 17.8544L137.432 19.4524V23H134.268ZM147.522 23V13.1818H150.648V23H147.522ZM149.088 12.0376C148.649 12.0376 148.272 11.8928 147.957 11.603C147.641 11.3089 147.484 10.9553 147.484 10.5419C147.484 10.1328 147.641 9.78338 147.957 9.49361C148.272 9.19957 148.649 9.05256 149.088 9.05256C149.531 9.05256 149.908 9.19957 150.219 9.49361C150.535 9.78338 150.692 10.1328 150.692 10.5419C150.692 10.9553 150.535 11.3089 150.219 11.603C149.908 11.8928 149.531 12.0376 149.088 12.0376ZM158.179 13.1818V15.483H151.985V13.1818H158.179ZM153.283 10.8295H156.409V19.9126C156.409 20.1044 156.438 20.2599 156.498 20.3793C156.562 20.4943 156.654 20.5774 156.773 20.6286C156.892 20.6754 157.035 20.6989 157.201 20.6989C157.32 20.6989 157.446 20.6882 157.578 20.6669C157.715 20.6413 157.817 20.62 157.885 20.603L158.358 22.8594C158.209 22.902 157.998 22.9553 157.725 23.0192C157.457 23.0831 157.135 23.1236 156.76 23.1406C156.027 23.1747 155.399 23.0895 154.874 22.8849C154.355 22.6761 153.956 22.3523 153.679 21.9134C153.406 21.4744 153.274 20.9226 153.283 20.2578V10.8295Z" fill="white"/>
<path d="M16.0807 3.58574L14.7479 10.3101C14.6898 10.4821 14.4937 10.6251 14.2334 10.6197C13.2941 10.6006 12.3374 10.829 11.4652 11.3309C8.91875 12.7961 8.0449 16.0402 9.51442 18.5769C10.9839 21.1136 14.2399 21.9814 16.7864 20.5161C18.8515 19.3279 19.8157 16.9706 19.3241 14.7695C19.2673 14.5151 19.3695 14.2946 19.5272 14.2039L25.695 11.5893C25.8987 11.4721 26.1301 11.5599 26.2067 11.7389C28.1893 17.7972 26.4948 23.9002 20.6838 27.244C14.4053 30.8566 6.3799 28.7163 2.75819 22.4645C-0.863512 16.2127 1.28942 8.21573 7.56786 4.60307C10.4649 2.93605 12.7195 2.84698 15.8324 3.11544C16.0234 3.15453 16.156 3.3628 16.0807 3.58574Z" stroke="white"/>
<path d="M17.1022 12.6583C17.4974 13.0032 18.0816 13.1162 18.5464 12.8612L28.4628 8.5162C29.0037 8.21934 29.1738 7.54938 28.7988 7.0746C27.4199 4.9248 22.7562 0.691621 19.3903 0.0932777C18.8266 -0.161933 18.1699 0.129126 17.9708 0.691621L16.0565 10.9248C15.8854 11.4085 16.1176 11.9308 16.5521 12.2307C16.7428 12.3624 16.9265 12.505 17.1022 12.6583Z" fill="#7267EF"/>
</svg>
